<?xml version="1.0" encoding="UTF-8"?>
<!-- Generator: visioncortex VTracer 0.6.4 -->
<svg version="1.1" xmlns="http://www.w3.org/2000/svg" width="1024" height="1024">
<path d="M0 0 C337.92 0 675.84 0 1024 0 C1024 337.92 1024 675.84 1024 1024 C686.08 1024 348.16 1024 0 1024 C0 686.08 0 348.16 0 0 Z " fill="#041A33" transform="translate(0,0)"/>
<path d="M0 0 C8.95 -0.08 17.9 -0.16 27.12 -0.25 C29.92 -0.29 32.72 -0.32 35.6 -0.36 C64.59 -0.58 64.59 -0.58 74.69 7.38 C79.38 12.15 81.16 16.04 81.5 22.75 C81.34 29.06 79.6 33.84 76 39 C73.19 41.62 73.19 41.62 71 43 C71.6 43.34 72.21 43.68 72.83 44.03 C78.49 47.47 82.28 50.44 84 57 C85.24 64.98 83.71 71.44 79 78 C72.87 84.73 63.43 87.44 54.6 88.35 C51.08 88.46 47.57 88.45 44.04 88.39 C42.92 88.39 41.79 88.38 40.63 88.38 C36.48 88.36 32.33 88.3 28.19 88.25 C18.89 88.17 9.58 88.09 0 88 C0 58.96 0 29.92 0 0 Z " fill="#F0F2F2" transform="translate(181,677)"/>
<path d="M0 0 C14.76 -0.12 14.76 -0.12 29.81 -0.25 C32.9 -0.29 35.98 -0.32 39.16 -0.36 C41.63 -0.37 44.11 -0.38 46.58 -0.39 C47.84 -0.41 49.1 -0.43 50.4 -0.45 C60.86 -0.46 69.98 1.54 78.28 8.22 C84.76 14.92 86.36 22.55 86.28 31.57 C85.65 39.28 82.49 45.63 77 51 C73.2 53.73 69.2 55.94 65 58 C65.51 58.68 66.02 59.36 66.55 60.06 C67.68 61.57 68.81 63.08 69.94 64.59 C72.37 67.84 74.82 71.08 77.27 74.32 C77.82 75.05 78.36 75.77 78.92 76.52 C80.01 77.96 81.1 79.39 82.19 80.83 C86 85.89 86 85.89 86 87 C69.59 89.04 69.59 89.04 64.15 85.95 C59.23 81.63 55.94 75.77 52.88 70.05 C50.47 65.92 48.3 62.34 44 60 C34.74 57.98 25.44 58.73 16 59 C16 68.24 16 77.48 16 87 C10.72 87 5.44 87 0 87 C0 58.29 0 29.58 0 0 Z " fill="#F2F4F4" transform="translate(403,677)"/>
<path d="M0 0 C2.25 3.38 2.25 4.61 2.19 8.56 C2.18 9.53 2.17 10.5 2.17 11.5 C2 14 2 14 1 16 C0.42 20.74 0.53 24.12 2.81 28.38 C3.9 29.67 3.9 29.67 5 31 C5.41 31.55 5.82 32.09 6.25 32.65 C8.85 34.66 10.96 34.29 14.19 34.19 C15.82 34.15 15.82 34.15 17.48 34.11 C18.31 34.07 19.14 34.04 20 34 C20 36.64 20 39.28 20 42 C20.76 42.21 21.53 42.43 22.32 42.64 C27.44 44.53 32.13 47.12 36.94 49.69 C58.11 60.95 58.11 60.95 81.5 64.38 C83.33 64.43 83.33 64.43 85.19 64.49 C93.95 64.57 100.2 62.89 108 59 C110.1 58.03 112.19 57.06 114.29 56.1 C116.4 55.09 118.51 54.08 120.62 53.06 C121.68 52.56 122.73 52.06 123.82 51.55 C129.78 48.69 135.47 45.63 141.05 42.1 C143 41 143 41 145 41 C145 39.02 145 37.04 145 35 C145.74 34.99 146.47 34.97 147.23 34.96 C153.62 34.7 153.62 34.7 159.06 31.62 C161.94 27.73 163.27 25.77 163.19 20.94 C163.18 20.06 163.17 19.18 163.17 18.28 C163.14 15.97 163.14 15.97 162 14 C161.83 11.98 161.83 11.98 161.81 9.62 C161.8 8.85 161.78 8.08 161.77 7.29 C162.02 4.78 162.75 3.17 164 1 C170.69 2.62 174.5 8.58 177.94 14.12 C180.47 21.03 180.15 30.05 177.56 36.88 C172.72 45.62 163.99 50.52 155.31 54.81 C154.32 55.32 153.32 55.82 152.29 56.34 C150.22 57.39 148.14 58.43 146.07 59.47 C143.14 60.93 140.22 62.43 137.31 63.93 C128.42 68.51 119.47 72.81 110.19 76.56 C109 77.05 109 77.05 107.78 77.54 C85.24 86.37 65.03 81.43 43.64 72.17 C36.8 69.14 30.07 65.89 23.34 62.61 C20.78 61.36 18.21 60.12 15.64 58.89 C13.97 58.08 12.31 57.27 10.64 56.46 C9.89 56.1 9.14 55.74 8.37 55.37 C-0.84 50.84 -10.77 44.19 -14.52 34.14 C-16.34 25.99 -15.71 18.48 -11.57 11.23 C-8.35 6.65 -4.64 3.1 0 0 Z " fill="#6EC2DA" transform="translate(414,254)"/>
<path d="M0 0 C24.42 0 48.84 0 74 0 C74 4.95 74 9.9 74 15 C55.19 15 36.38 15 17 15 C17 22.26 17 29.52 17 37 C33.83 37 50.66 37 68 37 C68 41.62 68 46.24 68 51 C50.84 51 33.68 51 16 51 C16 58.26 16 65.52 16 73 C34.81 73 53.62 73 73 73 C73 77.62 73 82.24 73 87 C48.91 87 24.82 87 0 87 C0 58.29 0 29.58 0 0 Z " fill="#F1F4F4" transform="translate(603,677)"/>
<path d="M0 0 C1.8 0.8 3.57 1.66 5.31 2.56 C6.2 3.02 7.08 3.47 7.99 3.94 C8.65 4.29 9.32 4.64 10 5 C7.47 7.86 4.75 9.88 1.56 11.94 C-6.99 17.55 -13.75 25.82 -16 36 C-17.33 47.09 -14.61 56.14 -8.25 65.25 C3.26 79.28 19.89 86.02 35.9 93.62 C55.82 103.11 74.35 113.57 83 135 C85.48 144.7 84.46 154.07 80 163 C76.96 167.96 73.61 171.45 69 175 C68.99 174.34 68.97 173.67 68.96 172.99 C68.34 145.27 68.34 145.27 53.69 122.38 C43.28 113.69 30.48 108.17 18.31 102.44 C-3.48 92.17 -21.34 81.29 -31.11 58.39 C-33.97 47.47 -33.85 32.63 -28.6 22.56 C-28.07 21.71 -27.54 20.87 -27 20 C-26.44 19.06 -25.88 18.13 -25.31 17.16 C-20.28 9.5 -10 -2.67 0 0 Z " fill="#F7F9FA" transform="translate(470,384)"/>
<path d="M0 0 C5.28 0 10.56 0 16 0 C16.33 11.22 16.66 22.44 17 34 C24.26 27.87 31.36 21.83 37.98 15.02 C40.53 12.47 43.22 10.13 45.98 7.8 C47.97 6.14 47.97 6.14 49.17 4.47 C51.42 1.72 52.98 0.19 56.54 -0.48 C59.51 -0.59 62.41 -0.52 65.38 -0.38 C66.4 -0.35 67.42 -0.32 68.47 -0.29 C70.98 -0.22 73.49 -0.12 76 0 C69.87 7.33 69.87 7.33 66.44 10.12 C62.59 13.39 59.05 16.91 55.5 20.5 C51.35 24.7 47.16 28.74 42.66 32.57 C40.31 34.6 38.16 36.77 36 39 C37.32 41.93 38.75 44 41.03 46.27 C41.64 46.88 42.25 47.5 42.88 48.13 C43.53 48.78 44.19 49.43 44.87 50.1 C45.55 50.78 46.23 51.46 46.93 52.16 C48.36 53.58 49.79 55.01 51.23 56.44 C53.43 58.62 55.62 60.81 57.81 63 C59.21 64.39 60.6 65.78 62 67.16 C62.65 67.82 63.31 68.47 63.98 69.15 C64.6 69.76 65.21 70.36 65.85 70.99 C66.65 71.79 66.65 71.79 67.48 72.61 C69.16 74.21 69.16 74.21 72 76 C72 76.66 72 77.32 72 78 C72.66 78 73.32 78 74 78 C75.73 79.71 75.73 79.71 77.62 81.94 C78.26 82.67 78.89 83.4 79.54 84.15 C81 86 81 86 81 87 C77.42 87.09 73.83 87.14 70.25 87.19 C69.23 87.21 68.22 87.24 67.17 87.26 C65.7 87.28 65.7 87.28 64.2 87.29 C62.85 87.32 62.85 87.32 61.47 87.34 C58.51 86.93 57.14 86.05 55 84 C55 83.34 55 82.68 55 82 C54.47 81.8 53.94 81.59 53.39 81.38 C49.99 79.42 47.44 76.68 44.7 73.9 C44.11 73.3 43.52 72.71 42.9 72.09 C41.01 70.19 39.13 68.28 37.25 66.38 C35.97 65.08 34.69 63.79 33.4 62.5 C30.26 59.34 27.13 56.17 24 53 C21.37 54.52 19.16 55.84 17 58 C16.63 61.11 16.63 61.11 16.59 64.76 C16.57 65.42 16.55 66.08 16.53 66.77 C16.47 68.89 16.42 71.01 16.38 73.12 C16.34 74.56 16.3 76 16.26 77.43 C16.16 80.96 16.08 84.48 16 88 C10.72 88 5.44 88 0 88 C0 58.96 0 29.92 0 0 Z " fill="#F0F2F2" transform="translate(709,677)"/>
<path d="M0 0 C14.54 5.16 14.54 5.16 17.86 9.34 C18.58 11 19.26 12.68 19.88 14.38 C22.05 19.45 26.15 23.14 30 27 C30.53 27.55 31.06 28.11 31.61 28.68 C39.37 36.08 50.43 40.31 60.06 44.75 C103.46 64.89 103.46 64.89 110.83 84.17 C112.98 90.61 113.55 96.61 113.5 103.38 C113.49 104.39 113.49 105.4 113.48 106.44 C113.17 119.02 108.74 127.99 100 137 C87.64 148.04 87.64 148.04 83.44 147.94 C78.61 146.62 74.39 144.35 70 142 C72.71 139.13 75.44 136.95 78.75 134.81 C87.01 129.09 93.85 122.09 96 112 C96.87 103.03 96.88 94.89 92 87 C91.46 86.01 90.93 85.02 90.38 84 C83.9 75.83 75.93 70.35 66.75 65.62 C65.71 65.08 64.68 64.53 63.61 63.96 C57.52 60.75 51.36 57.69 45.17 54.68 C24.92 44.79 8.51 33.73 0.81 11.57 C-0.11 7.52 -0.15 4.13 0 0 Z " fill="#EFF3F6" transform="translate(441,328)"/>
<path d="M0 0 C2.23 0.01 4.47 -0.02 6.7 -0.05 C21.67 -0.13 36.08 2.5 49 10.45 C51 12.45 51 12.45 51.44 15.26 C50.84 19.63 49.43 20.71 46 23.45 C33.56 31.85 19.41 32.66 4.82 32.74 C3.33 32.75 1.84 32.77 0.35 32.8 C-14.63 33.1 -31.23 31.8 -42.63 20.95 C-44 18.45 -44 18.45 -44.06 15.95 C-41.12 9.03 -34.59 6.13 -28 3.45 C-18.69 0.52 -9.67 -0.06 0 0 Z " fill="#6DDEE6" transform="translate(492.00048828125,211.553955078125)"/>
<path d="M0 0 C2.66 0.01 5.32 -0.02 7.99 -0.05 C32.38 -0.15 59.29 5 77.56 22.18 C82.91 27.6 85.39 31.77 85.8 39.45 C84.83 39.12 83.86 38.79 82.86 38.45 C76.93 36.75 70.75 36.91 64.8 38.45 C64.49 37.27 64.18 36.09 63.86 34.88 C60.95 27.29 53.8 23.76 46.86 20.26 C20.4 8.65 -12.48 9.6 -39.2 19.45 C-45.4 22.02 -51.95 25.07 -56.2 30.45 C-57.3 33.17 -57.75 35.51 -58.2 38.45 C-59.01 38.28 -59.81 38.12 -60.64 37.95 C-67.24 37.02 -72.94 36.88 -79.2 39.45 C-78.96 31.9 -77.3 27.09 -72.2 21.45 C-52.21 3.84 -25.69 -0.12 0 0 Z " fill="#93E1F0" transform="translate(493.20361328125,181.553955078125)"/>
<path d="M0 0 C24.09 0 48.18 0 73 0 C73 4.95 73 9.9 73 15 C63.43 15 53.86 15 44 15 C44 39.09 44 63.18 44 88 C38.72 88 33.44 88 28 88 C28 63.91 28 39.82 28 15 C18.76 15 9.52 15 0 15 C0 10.05 0 5.1 0 0 Z " fill="#F1F3F5" transform="translate(507,677)"/>
<path d="M0 0 C15.03 -1.51 15.03 -1.51 19.22 1.7 C20.82 4.4 21.9 7.06 23 10 C23.94 12.04 24.91 14.05 25.89 16.07 C27.31 19.02 28.65 22.01 30 25 C28.66 25.2 28.66 25.2 27.3 25.4 C26.13 25.58 24.96 25.76 23.75 25.94 C22.59 26.11 21.43 26.29 20.23 26.46 C17.77 26.87 15.41 27.34 13 28 C11.68 25.69 10.36 23.38 9 21 C8.26 22.49 8.26 22.49 7.51 24 C-10.99 61.17 -10.99 61.17 -19 76 C-19.32 76.6 -19.65 77.2 -19.98 77.82 C-21.64 80.89 -23.32 83.95 -25 87 C-31.27 87 -37.54 87 -44 87 C-42.52 82.56 -41.14 79.13 -38.95 75.1 C-38.34 73.97 -37.73 72.85 -37.1 71.69 C-36.78 71.1 -36.46 70.51 -36.13 69.9 C-34.41 66.75 -32.71 63.59 -31.01 60.43 C-30.66 59.8 -30.32 59.16 -29.97 58.51 C-19.55 39.22 -9.75 19.63 0 0 Z " fill="#F0F4F5" transform="translate(323,677)"/>
<path d="M0 0 C4.24 2.52 7.52 6.04 9.62 10.5 C10.07 13.16 10.33 15.82 10.62 18.5 C16.94 18.46 23.26 18.39 29.58 18.29 C31.72 18.26 33.87 18.24 36.02 18.23 C39.11 18.21 42.2 18.16 45.29 18.11 C46.25 18.11 47.21 18.11 48.2 18.11 C53.76 17.98 56.44 17.45 60.62 13.5 C64.58 13.5 66.8 13.93 70.06 16.19 C72.14 19.26 72.22 20.86 71.62 24.5 C69.65 27.91 68.41 29.22 64.69 30.56 C61.62 30.5 61.62 30.5 58.75 28.75 C56.62 26.5 56.62 26.5 56.62 23.5 C41.44 23.83 26.26 24.16 10.62 24.5 C9.31 27.14 7.99 29.78 6.62 32.5 C4.62 34.52 4.62 34.52 2.62 35.88 C1.63 36.57 1.63 36.57 0.62 37.27 C-4.84 40.62 -8.98 41.26 -15.38 40.5 C-21.54 38.69 -25.89 34.84 -29.38 29.5 C-31.89 24.2 -32.15 19.27 -31.38 13.5 C-29.1 7.57 -24.56 3.05 -19.38 -0.5 C-13.3 -2.53 -5.92 -2.6 0 0 Z " fill="#F1F5F6" transform="translate(351.375,391.5)"/>
<path d="M0 0 C6.54 3.77 11.08 7.35 13.25 14.88 C14.2 21.45 12.93 26.38 9.25 31.88 C5.24 36.78 0.31 40.17 -5.98 41.26 C-11.67 41.55 -16.13 40.19 -20.75 36.88 C-25.22 32.78 -26.78 29.8 -28.75 23.88 C-43.93 23.88 -59.11 23.88 -74.75 23.88 C-75.08 25.19 -75.41 26.51 -75.75 27.88 C-79.5 30.38 -81.31 30.41 -85.75 29.88 C-88.75 27.81 -88.75 27.81 -90.75 24.88 C-90.9 20.56 -90.45 18.66 -87.56 15.44 C-84.24 13.59 -82.49 13.32 -78.75 13.88 C-76.38 15.25 -76.38 15.25 -74.75 16.88 C-74.75 17.54 -74.75 18.19 -74.75 18.88 C-59.57 18.88 -44.39 18.88 -28.75 18.88 C-28.75 16.89 -28.75 14.92 -28.75 12.88 C-26.32 7.27 -22.37 2.64 -17.02 -0.32 C-11.3 -2.35 -5.71 -1.71 0 0 Z " fill="#F7FAFB" transform="translate(659.75,391.125)"/>
<path d="M0 0 C5.98 -0.09 11.95 -0.17 17.93 -0.22 C19.96 -0.24 21.99 -0.27 24.02 -0.3 C26.95 -0.35 29.88 -0.37 32.81 -0.39 C33.71 -0.41 34.61 -0.43 35.54 -0.45 C41.51 -0.46 46.03 0.58 51 4 C54.13 7.37 55.26 9.99 55.5 14.5 C55.26 19.01 54.13 21.63 51 25 C45.13 29.03 39.78 29.55 32.81 29.39 C31.87 29.38 30.93 29.38 29.95 29.37 C26.97 29.35 23.99 29.3 21 29.25 C18.96 29.23 16.93 29.21 14.89 29.2 C9.93 29.15 4.97 29.08 0 29 C0 19.43 0 9.86 0 0 Z " fill="#04162D" transform="translate(419,692)"/>
<path d="M0 0 C0 3.63 0 7.26 0 11 C0.66 11 1.32 11 2 11 C2.05 11.81 2.1 12.62 2.15 13.45 C2.26 15.05 2.26 15.05 2.38 16.69 C2.48 18.27 2.48 18.27 2.59 19.89 C2.99 22.91 3.74 25.24 5 28 C3.12 27.69 3.12 27.69 1 27 C-1.21 23.69 -1.22 22.66 -1.12 18.81 C-1.11 17.91 -1.09 17.01 -1.07 16.08 C-1.05 15.39 -1.02 14.71 -1 14 C-2.62 14.6 -2.62 14.6 -4.27 15.21 C-32.31 25.25 -66.54 28.01 -94.18 14.95 C-94.78 14.64 -95.38 14.32 -96 14 C-96.33 17.3 -96.66 20.6 -97 24 C-97.66 24 -98.32 24 -99 24 C-99.66 25.32 -100.32 26.64 -101 28 C-101.66 27.67 -102.32 27.34 -103 27 C-102.68 26.29 -102.37 25.59 -102.04 24.86 C-100.95 21.87 -100.6 19.35 -100.38 16.19 C-100.3 15.21 -100.23 14.24 -100.15 13.23 C-100.1 12.49 -100.05 11.76 -100 11 C-99.34 11 -98.68 11 -98 11 C-97.67 7.7 -97.34 4.4 -97 1 C-96.11 1.33 -95.23 1.65 -94.32 1.99 C-57.67 14.91 -34.81 0 0 0 Z " fill="#94E8EF" transform="translate(545,245)"/>
<path d="M0 0 C2.88 1.14 5.61 2.5 8.38 3.91 C9.45 4.45 10.53 5 11.64 5.57 C12.46 5.99 13.28 6.41 14.12 6.84 C11.77 9.39 9.21 11.19 6.31 13.09 C-3.49 19.94 -9.74 29.57 -12.49 41.33 C-13.38 47.12 -13.36 53 -13.5 58.84 C-13.54 60.2 -13.58 61.57 -13.62 62.93 C-13.71 66.23 -13.8 69.54 -13.88 72.84 C-21.31 67.04 -27.26 59.34 -28.88 49.84 C-30.11 35.04 -26.47 23.07 -16.96 11.52 C-5.51 -0.46 -5.51 -0.46 0 0 Z " fill="#529EBB" transform="translate(466.875,486.15625)"/>
<path d="M0 0 C2.23 0.01 4.47 -0.02 6.7 -0.05 C20.44 -0.12 33.65 2.16 46 8.45 C46 9.44 46 10.43 46 11.45 C32.74 13.07 19.75 13.65 6.39 13.28 C-5.68 13.08 -16.22 15.74 -27.24 20.46 C-32.04 22.39 -35.82 22.85 -41 22.45 C-43.06 20.76 -43.06 20.76 -44 18.45 C-44 15.05 -43.14 13.63 -41.06 10.95 C-29.24 1.29 -14.71 -0.08 0 0 Z " fill="#ABF7FA" transform="translate(492.00048828125,211.553955078125)"/>
<path d="M0 0 C5.71 -0.07 11.42 -0.13 17.13 -0.16 C19.07 -0.18 21.01 -0.2 22.95 -0.23 C25.75 -0.26 28.55 -0.28 31.35 -0.29 C32.21 -0.31 33.07 -0.32 33.96 -0.34 C40.13 -0.34 45.11 0.49 49.94 4.69 C51.51 8.12 51.66 11.34 51 15 C48.82 18.58 46.83 20.42 43 22 C40.89 22.24 40.89 22.24 38.6 22.23 C37.31 22.23 37.31 22.23 35.99 22.23 C35.07 22.22 34.15 22.21 33.2 22.2 C32.25 22.19 31.31 22.19 30.33 22.19 C27.3 22.18 24.28 22.15 21.25 22.12 C19.2 22.11 17.14 22.11 15.09 22.1 C10.06 22.08 5.03 22.04 0 22 C0 14.74 0 7.48 0 0 Z " fill="#04162C" transform="translate(197,728)"/>
<path d="M0 0 C5.46 8.19 3.76 21.56 3 31 C-0.19 45.62 -12.02 56.01 -24 64 C-29.93 63.86 -34.89 60.74 -40 58 C-37.29 55.13 -34.56 52.95 -31.25 50.81 C-23.02 45.11 -16.09 38.08 -14 28 C-13.43 21.52 -13.03 14.25 -15 8 C-9.61 4.41 -6.46 3.55 0 4 C0 2.68 0 1.36 0 0 Z " fill="#79D4E4" transform="translate(551,412)"/>
<path d="M0 0 C5.43 -0.07 10.85 -0.13 16.28 -0.16 C18.12 -0.18 19.97 -0.2 21.81 -0.23 C24.47 -0.26 27.13 -0.28 29.79 -0.29 C30.6 -0.31 31.42 -0.32 32.26 -0.34 C38.33 -0.34 42.89 0.75 47.91 4.38 C50.2 7.79 49.58 12.09 49 16 C46.82 19.11 44.44 20.51 41 22 C38.96 22.24 38.96 22.24 36.78 22.23 C35.55 22.23 35.55 22.23 34.3 22.23 C32.98 22.21 32.98 22.21 31.64 22.2 C30.74 22.19 29.83 22.19 28.9 22.19 C26.02 22.18 23.13 22.15 20.25 22.12 C18.29 22.11 16.34 22.11 14.38 22.1 C9.59 22.08 4.79 22.04 0 22 C0 14.74 0 7.48 0 0 Z " fill="#0A1C32" transform="translate(197,692)"/>
<path d="M0 0 C32.05 -2.26 32.05 -2.26 38.68 2.65 C41.75 5.72 43.84 9.25 46 13 C47.97 15.19 47.97 15.19 49.94 16.94 C52 18.94 53.81 20.98 55.56 23.25 C58.82 26.93 61.49 28.71 66.43 29.28 C71.7 29.47 74.54 28.89 79 26 C83.97 25.36 87.35 26.07 91.48 28.75 C94.1 30.91 95.02 32.76 96 36 C96.19 40.61 95.62 43.99 93.19 47.94 C89.07 51.82 85.7 52.4 80.18 52.25 C77.07 51.89 75.35 51.08 73 49 C70.02 44.42 69.46 40.33 69 35 C68.09 35.05 68.09 35.05 67.15 35.1 C61.45 35.02 58.31 33.95 54.11 30.03 C52.49 28.35 50.89 26.66 49.31 24.94 C48.51 24.1 47.71 23.27 46.88 22.41 C42.59 17.92 38.45 13.3 34.4 8.6 C31.79 5.49 31.79 5.49 27.84 4.68 C26.49 4.64 25.15 4.61 23.8 4.59 C22.74 4.56 22.74 4.56 21.66 4.53 C19.4 4.47 17.14 4.42 14.88 4.38 C13.34 4.34 11.81 4.3 10.28 4.26 C6.52 4.16 2.76 4.08 -1 4 C-0.67 2.68 -0.34 1.36 0 0 Z " fill="#F3F7FA" transform="translate(548,483)"/>
<path d="M0 0 C0.88 0.03 1.77 0.05 2.68 0.08 C4.85 0.15 7.02 0.26 9.19 0.38 C9.68 2.36 9.68 2.36 10.19 4.38 C9.12 4.27 8.06 4.17 6.96 4.07 C0.08 3.74 -5.57 3.78 -10.88 8.61 C-13.92 11.76 -16.68 15.13 -19.38 18.59 C-21.35 21.04 -23.55 23.2 -25.81 25.38 C-26.53 26.1 -27.24 26.83 -27.98 27.58 C-28.65 28.25 -29.31 28.93 -30 29.62 C-30.67 30.31 -31.35 31 -32.04 31.7 C-35.02 34.51 -36.95 34.49 -40.94 34.44 C-41.85 34.43 -42.76 34.42 -43.7 34.41 C-44.39 34.4 -45.09 34.39 -45.81 34.38 C-45.73 35.55 -45.65 36.73 -45.56 37.94 C-45.57 42.84 -46.94 45.42 -49.81 49.38 C-53.37 52.53 -56.9 53.01 -61.52 52.87 C-65.54 52 -68.26 49.5 -70.81 46.38 C-72.17 42.31 -72.34 38.62 -71.81 34.38 C-69.38 30.07 -66.48 27.96 -61.81 26.38 C-57.12 26.32 -53.75 26.75 -49.81 29.38 C-47.23 29.47 -47.23 29.47 -44.44 29.12 C-43.5 29.04 -42.57 28.95 -41.6 28.86 C-35.49 27.8 -32.16 25.16 -27.94 20.75 C-27.41 20.21 -26.88 19.67 -26.34 19.12 C-19.01 11.58 -19.01 11.58 -12.73 3.17 C-9.27 -0.99 -5.03 -0.29 0 0 Z " fill="#F1F8F9" transform="translate(420.8125,482.625)"/>
<path d="M0 0 C4.38 2.19 7.13 4.43 9 9 C9.54 13.83 9.52 15.98 7.31 20.31 C4.29 23.83 2.29 25.81 -2.47 26.21 C-9.38 26.31 -9.38 26.31 -12 25 C-16.24 24.33 -20.07 24.75 -23.73 27.12 C-28.08 30.45 -32.06 34.19 -36 38 C-36.75 38.72 -37.5 39.44 -38.27 40.18 C-39.88 41.76 -41.45 43.37 -43 45 C-44.67 46.67 -46.33 48.33 -48 50 C-48.56 50.7 -49.12 51.41 -49.69 52.13 C-52.92 54.75 -55.16 54.4 -59.25 54.25 C-60.51 54.21 -61.78 54.18 -63.08 54.14 C-64.04 54.09 -65.01 54.05 -66 54 C-66 52.35 -66 50.7 -66 49 C-65.26 49.06 -64.52 49.11 -63.76 49.17 C-58.62 49.2 -55.21 48.92 -51.04 45.73 C-48.26 42.89 -45.64 39.97 -43 37 C-41.63 35.74 -40.24 34.51 -38.81 33.31 C-35.99 30.94 -33.54 28.41 -31.06 25.69 C-27.14 21.67 -23.53 20.46 -18 20 C-17.34 20 -16.68 20 -16 20 C-16.5 19.01 -16.5 19.01 -17 18 C-17.62 13.7 -17.97 9.67 -15.73 5.82 C-10.98 0.25 -7.27 -0.88 0 0 Z " fill="#F2F6F8" transform="translate(635,279)"/>
<path d="M0 0 C4.07 2.07 6.37 3.74 8 8 C8.2 10.8 8.2 10.8 8.12 13.75 C8.11 14.73 8.09 15.72 8.07 16.73 C8.05 17.48 8.02 18.23 8 19 C9.26 19.31 10.52 19.62 11.81 19.94 C20.29 22.85 26.33 29.2 32.39 35.56 C33.17 36.37 33.95 37.18 34.75 38.02 C36.31 39.65 37.85 41.3 39.37 42.97 C43.06 46.85 45.59 49.42 51.05 50.03 C52.36 50.02 53.66 50.01 55 50 C55 51.32 55 52.64 55 54 C52.92 54.16 50.83 54.28 48.75 54.38 C47.01 54.48 47.01 54.48 45.23 54.59 C42 54 42 54 39.96 51.38 C39.31 50.26 38.67 49.15 38 48 C36.07 45.76 33.98 43.7 31.88 41.62 C31.3 41.06 30.73 40.5 30.14 39.91 C19.62 29.2 19.62 29.2 5.75 24.81 C3.04 24.82 3.04 24.82 1 26 C-3.98 26.55 -7.9 26.54 -12.44 24.31 C-16.46 20.68 -17.83 18.51 -18.44 13.06 C-18.26 8.78 -16.81 6.27 -14 3 C-9.8 -0.6 -5.3 -0.85 0 0 Z " fill="#F2F8F9" transform="translate(367,279)"/>
<path d="M0 0 C1.8 0.8 3.57 1.66 5.31 2.56 C6.2 3.02 7.08 3.47 7.99 3.94 C8.65 4.29 9.32 4.64 10 5 C7.47 7.86 4.75 9.88 1.56 11.94 C-7.12 17.64 -13.51 25.78 -16 36 C-16.51 39.99 -16.81 43.98 -17 48 C-22.76 47.64 -27.96 46.4 -32 42 C-34.07 35.5 -31.32 28.92 -28.6 23.02 C-23.73 13.83 -12.16 -3.25 0 0 Z " fill="#7FBDD7" transform="translate(470,384)"/>
<path d="M0 0 C3.25 1.81 3.25 1.81 6 4 C6.9 4.62 6.9 4.62 7.81 5.25 C9.83 8.22 10.13 11.49 10 15 C8 20 8 20 6 22 C5.88 23.96 5.82 25.93 5.79 27.9 C5.75 29.7 5.75 29.7 5.7 31.54 C5.65 34.09 5.61 36.64 5.57 39.19 C5.52 40.99 5.52 40.99 5.48 42.84 C5.46 43.95 5.44 45.05 5.42 46.2 C5 49 5 49 3.63 50.86 C1.29 52.5 -0.21 52.42 -3 52 C-4.64 50.84 -4.64 50.84 -6 49 C-6.34 46.36 -6.34 46.36 -6.29 43.24 C-6.28 42.12 -6.27 41 -6.26 39.85 C-6.24 38.68 -6.21 37.52 -6.19 36.31 C-6.17 34.54 -6.17 34.54 -6.15 32.74 C-6.11 29.83 -6.06 26.91 -6 24 C-6.94 23.72 -7.88 23.45 -8.85 23.16 C-13.05 21.61 -14.08 20 -16 16 C-16.76 12.44 -16.81 9.46 -15.01 6.23 C-10.64 0.67 -6.98 -0.72 0 0 Z " fill="#96EFF6" transform="translate(428,227)"/>
<path d="M0 0 C3.77 1.82 6.27 4.04 7.75 8 C8.34 11.25 8.12 13.68 6.94 16.75 C4.58 19.49 2.13 21.2 -1 23 C-1.66 23 -2.32 23 -3 23 C-2.99 23.78 -2.98 24.55 -2.97 25.35 C-2.93 28.86 -2.9 32.37 -2.88 35.88 C-2.86 37.1 -2.84 38.32 -2.82 39.58 C-2.82 40.75 -2.81 41.92 -2.8 43.12 C-2.79 44.74 -2.79 44.74 -2.77 46.39 C-3 49 -3 49 -5 51 C-11.58 50.42 -11.58 50.42 -13 49 C-13.11 47.07 -13.16 45.14 -13.18 43.21 C-13.2 42.02 -13.22 40.83 -13.25 39.61 C-13.29 37.1 -13.32 34.59 -13.34 32.08 C-13.5 25.3 -13.7 21.27 -18 16 C-19.05 11.79 -19.09 7.81 -16.81 4.02 C-12.06 -0.79 -6.44 -1.4 0 0 Z " fill="#A4F3FA" transform="translate(573,228)"/>
<path d="M0 0 C0.76 11.46 -3.19 21.82 -10 31 C-12.82 34.22 -15.8 37.16 -19 40 C-19.82 40.73 -19.82 40.73 -20.66 41.48 C-23.27 43.52 -24.94 44 -28.25 44.06 C-33.19 42.66 -37.51 40.45 -42 38 C-42 37.34 -42 36.68 -42 36 C-40.41 34.94 -38.78 33.95 -37.12 33 C-28.68 27.77 -21.21 21.13 -17 12 C-16.78 11.01 -16.57 10.03 -16.35 9.01 C-14.79 5.54 -13.37 4.75 -9.9 3.34 C-9.25 3.1 -8.6 2.87 -7.94 2.62 C-7.29 2.37 -6.64 2.11 -5.97 1.84 C-1.29 0 -1.29 0 0 0 Z " fill="#407E98" transform="translate(552,328)"/>
<path d="M0 0 C4.97 2.53 8.49 5.99 11 11 C11.4 16.24 10.86 19.56 8 24 C2.82 28.67 -0.39 29.35 -7.23 29.28 C-12.15 28.78 -14.72 26.46 -17.88 22.88 C-19.57 18.55 -19.65 14.58 -19 10 C-15.11 1.91 -8.75 -1.55 0 0 Z " fill="#E7ECEF" transform="translate(820,679)"/>
<path d="M0 0 C3.94 0.82 5.43 2.61 8 5.62 C9.12 6.98 9.12 6.98 12.05 6.74 C13.4 6.74 14.75 6.73 16.1 6.72 C16.81 6.72 17.52 6.72 18.25 6.72 C20.52 6.71 22.79 6.7 25.06 6.69 C26.6 6.68 28.14 6.68 29.67 6.67 C33.45 6.66 37.22 6.65 41 6.62 C41 7.29 41 7.94 41 8.62 C41.59 8.89 42.18 9.15 42.79 9.43 C45.07 10.66 46.52 11.93 48.31 13.78 C48.91 14.39 49.51 15 50.13 15.63 C51.06 16.59 51.06 16.59 52 17.56 C53.23 18.82 54.46 20.08 55.69 21.34 C56.23 21.9 56.77 22.46 57.32 23.03 C57.88 23.56 58.43 24.08 59 24.62 C59.57 25.18 60.15 25.74 60.74 26.31 C63.92 28.16 66.9 28.03 70.48 28 C71.97 28.01 73.46 28.03 74.95 28.05 C77.28 28.06 79.61 28.06 81.94 28.06 C90.92 28.08 98.89 28.22 107 32.62 C107 33.62 107 34.61 107 35.62 C105.71 35.44 104.41 35.26 103.08 35.08 C98.3 34.58 93.67 34.75 88.89 35.05 C64.94 36.22 64.94 36.22 57.81 31.52 C54.19 27.96 51.12 24.1 48 20.1 C43.68 15.05 40.37 12.16 33.77 11.3 C29.96 11.01 26.19 10.99 22.38 11.12 C21.63 11.15 20.89 11.17 20.12 11.2 C12.15 11.1 12.15 11.1 5.32 14.16 C4.89 14.64 4.45 15.13 4 15.62 C-2.83 16.38 -2.83 16.38 -6.5 14 C-8.48 10.86 -8.67 9.28 -8 5.62 C-5.54 2.3 -4.07 0.85 0 0 Z " fill="#E4EBEE" transform="translate(321,324.375)"/>
<path d="M0 0 C2.2 0.07 4.4 0.12 6.6 0.18 C11.95 0.32 17.29 0.54 22.62 0.81 C22.62 2.13 22.62 3.45 22.62 4.81 C21.32 4.79 20.01 4.76 18.67 4.73 C13.78 4.64 8.89 4.63 4 4.64 C1.9 4.63 -0.21 4.6 -2.32 4.56 C-15.99 3.8 -15.99 3.8 -27.7 9.68 C-29.75 11.94 -31.55 14.37 -33.38 16.81 C-35.96 19.65 -38.01 20.01 -41.71 20.2 C-43.49 20.22 -45.26 20.22 -47.03 20.22 C-47.97 20.23 -48.91 20.24 -49.88 20.25 C-53.89 20.3 -57.91 20.31 -61.92 20.32 C-64.85 20.34 -67.79 20.37 -70.72 20.41 C-71.63 20.4 -72.53 20.4 -73.47 20.4 C-78.16 20.45 -80.78 20.54 -84.38 23.81 C-88.25 23.74 -90.61 23.31 -93.88 21.19 C-95.38 18.81 -95.38 18.81 -95.31 15.25 C-94.38 11.81 -94.38 11.81 -93.31 9.88 C-90.12 8.13 -86.87 8.16 -83.38 8.81 C-80.88 10.69 -80.88 10.69 -79.38 12.81 C-79.38 13.47 -79.38 14.13 -79.38 14.81 C-73.79 14.99 -68.21 15.08 -62.63 15.1 C-60.73 15.12 -58.84 15.16 -56.95 15.22 C-46.24 15.93 -46.24 15.93 -36.47 12.49 C-34.73 10.82 -33.14 9.1 -31.56 7.28 C-22.97 -2.5 -12.11 -0.63 0 0 Z " fill="#DBE7ED" transform="translate(408.375,467.1875)"/>
<path d="M0 0 C2.44 1.62 2.44 1.62 4 4 C4 7.75 3.82 10.02 1.38 12.94 C-1.93 14.42 -4.42 14.39 -8 14 C-8.65 13.26 -8.65 13.26 -9.32 12.51 C-12.85 9.34 -18.66 10.4 -23.18 10.39 C-25.16 10.38 -27.15 10.31 -29.13 10.24 C-37.48 10.13 -37.48 10.13 -44.5 14.14 C-45.69 15.41 -46.86 16.69 -48 18 C-49.17 19.09 -50.36 20.17 -51.55 21.24 C-52.66 22.26 -53.77 23.29 -54.88 24.31 C-55.44 24.84 -56.01 25.36 -56.59 25.9 C-58.76 27.91 -60.91 29.91 -63 32 C-65.74 32.22 -68.38 32.33 -71.12 32.34 C-72.34 32.37 -72.34 32.37 -73.59 32.39 C-76.21 32.43 -78.82 32.47 -81.44 32.5 C-96.83 32.58 -96.83 32.58 -112 35 C-111.71 33.11 -111.71 33.11 -111 31 C-104.54 27.71 -99.44 26.88 -92.3 27 C-90.77 27 -89.23 27 -87.7 27 C-85.29 26.99 -82.89 27 -80.49 27.05 C-68.96 27.37 -68.96 27.37 -59.18 21.81 C-56.78 19.24 -54.61 16.55 -52.49 13.75 C-48.68 8.94 -45.74 6.39 -39.5 5.5 C-33.92 5.09 -28.35 5.07 -22.77 5.23 C-21.75 5.25 -21.75 5.25 -20.72 5.27 C-18.85 5.32 -16.98 5.4 -15.11 5.48 C-11.8 5.3 -11.8 5.3 -9.7 2.54 C-9.14 1.7 -8.58 0.86 -8 0 C-5.03 -1.49 -3.17 -0.82 0 0 Z " fill="#D7E0E6" transform="translate(676,326)"/>
<path d="M0 0 C14.54 5.16 14.54 5.16 17.86 9.34 C18.58 11 19.26 12.68 19.88 14.38 C24.08 24.21 34.77 32.1 44 37 C43.01 37.99 42.02 38.98 41 40 C40.34 39.34 39.68 38.68 39 38 C36.32 37.61 33.76 37.35 31.06 37.19 C30.33 37.12 29.6 37.06 28.85 36.99 C24.65 36.66 24.65 36.66 21 38.49 C20.67 38.99 20.34 39.49 20 40 C9.81 30.97 3.09 21.56 0 8 C-0.15 5.31 -0.09 2.7 0 0 Z " fill="#799BAD" transform="translate(441,328)"/>
<path d="M0 0 C4.7 -0.17 9.39 -0.3 14.09 -0.38 C15.68 -0.42 17.28 -0.47 18.87 -0.53 C33.83 -1.08 33.83 -1.08 38.59 3.15 C39.76 4.4 40.9 5.69 42 7 C46.28 11.81 50.12 13.3 56.43 13.71 C60.62 13.87 64.81 13.88 69 13.88 C70.75 13.89 72.49 13.91 74.24 13.94 C78.49 13.99 82.75 14 87 14 C87.29 13.38 87.58 12.76 87.88 12.12 C89 10 89 10 91 8 C97.96 7.33 97.96 7.33 101.5 9.62 C103.48 12.76 103.67 14.35 103 18 C100.51 21.37 99.11 22.82 94.94 23.5 C92 23 92 23 90.34 21.49 C86.91 19.31 83.57 19.66 79.65 19.73 C77.98 19.73 76.3 19.73 74.63 19.72 C72.01 19.73 69.39 19.75 66.77 19.79 C49.19 20.02 49.19 20.02 41.94 13.99 C40 12 40 12 38.45 10.01 C35.62 6.48 33.93 5.17 29.37 4.36 C24.93 4 20.51 4.03 16.06 4.06 C14.5 4.05 12.95 4.03 11.39 4.01 C7.59 3.97 3.8 3.97 0 4 C0 2.68 0 1.36 0 0 Z " fill="#D9DFE4" transform="translate(577,468)"/>
<path d="M0 0 C4.31 2.28 7.17 4.42 9 9 C9.55 13.21 9.43 16.8 8 20.81 C4.68 24.44 0.84 26.73 -4.12 27.2 C-7.94 26.95 -9.94 26.05 -12.88 23.62 C-16.47 19.19 -17.46 16.86 -17.31 11.29 C-16.82 7.63 -15.49 5.68 -13 3 C-8.62 0.57 -5 -0.74 0 0 Z " fill="#5DCAC4" transform="translate(682,435)"/>
<path d="M0 0 C4.59 1.8 6.78 4.64 9 9 C9.65 13.12 9.94 15.4 7.82 19 C5.06 22.44 2.46 25.15 -2 26 C-6.64 25.93 -9.68 25.61 -13.38 22.75 C-17.24 18.7 -18.03 16.67 -17.94 11.06 C-17.23 6.51 -15.22 4.22 -12 1 C-8.31 -0.85 -4.04 -0.34 0 0 Z " fill="#63CCC7" transform="translate(319,436)"/>
<path d="M0 0 C2.8 1.04 4.58 2.2 7 4 C6 6 5 8 4 10 C3.36 9.86 2.72 9.71 2.06 9.56 C1.05 9.38 0.04 9.19 -1 9 C-1.71 8.86 -2.43 8.72 -3.16 8.57 C-8.3 7.72 -8.3 7.72 -13 9.81 C-16.11 13.22 -16.22 15.43 -16.16 20.03 C-15.96 22.47 -15.44 24.03 -14 26 C-10.88 28.08 -10.07 28.27 -6.5 28.25 C-5.34 28.26 -5.34 28.26 -4.16 28.27 C-1.7 28.13 -1.7 28.13 1 26 C3 26.12 3 26.12 5 27 C6.75 29.06 6.75 29.06 8 31 C2.04 36 -2.19 36.35 -9.83 36.28 C-15.25 35.8 -17.74 33.4 -21.25 29.5 C-24.9 24.28 -25.83 20.33 -25 14 C-23.13 8.06 -19.99 4.58 -15 1 C-10.59 -1.21 -4.8 -0.44 0 0 Z " fill="#F2F5F7" transform="translate(549,802)"/>
<path d="M0 0 C1.07 0.15 1.07 0.15 2.16 0.31 C-0.09 5.87 -5 9.49 -9.26 13.53 C-10.95 15.32 -10.95 15.32 -12.23 17.78 C-14.17 20.96 -15.88 23.03 -18.84 25.31 C-25.08 26.73 -31.18 26.48 -37.55 26.29 C-39.38 26.27 -41.21 26.26 -43.04 26.25 C-47.82 26.21 -52.61 26.11 -57.4 26 C-62.29 25.9 -67.18 25.85 -72.08 25.8 C-81.67 25.69 -91.25 25.52 -100.84 25.31 C-100.84 23.66 -100.84 22.01 -100.84 20.31 C-99.36 20.32 -99.36 20.32 -97.85 20.33 C-88.53 20.37 -79.22 20.37 -69.91 20.34 C-65.12 20.32 -60.33 20.31 -55.54 20.34 C-50.92 20.37 -46.3 20.36 -41.67 20.32 C-39.91 20.32 -38.15 20.32 -36.39 20.34 C-26.89 20.76 -26.89 20.76 -18.26 17.58 C-16.49 15.57 -15.18 13.62 -13.84 11.31 C-12.9 10.22 -11.92 9.16 -10.92 8.12 C-9.1 6.24 -7.29 4.34 -5.48 2.44 C-2.84 0.31 -2.84 0.31 0 0 Z " fill="#E6EDEF" transform="translate(647.8359375,360.6875)"/>
<path d="M0 0 C4.36 2.22 7.13 4.44 9 9 C9.53 13.79 9.5 15.99 7.38 20.31 C4.21 23.89 1.67 25.76 -3.18 26.2 C-6.72 26.09 -9.1 25.75 -11.88 23.43 C-16.96 17.58 -16.96 17.58 -17.05 14.01 C-16.72 9.68 -16.43 7.53 -13.62 4.06 C-9.02 0.44 -5.86 -0.9 0 0 Z " fill="#66C8C3" transform="translate(354,716)"/>
<path d="M0 0 C2.5 1.56 2.5 1.56 4 4 C4.56 7.91 4.58 10.05 2.5 13.44 C-1.21 15.76 -3.66 15.42 -8 15 C-8.66 14.34 -9.32 13.68 -10 13 C-11.9 12.67 -11.9 12.67 -14.08 12.68 C-14.92 12.66 -15.76 12.64 -16.63 12.62 C-17.54 12.61 -18.45 12.6 -19.38 12.59 C-20.78 12.56 -20.78 12.56 -22.2 12.53 C-25.17 12.47 -28.15 12.42 -31.12 12.38 C-33.14 12.34 -35.15 12.3 -37.17 12.26 C-42.11 12.16 -47.06 12.08 -52 12 C-52.05 12.69 -52.11 13.38 -52.16 14.09 C-52.24 14.99 -52.32 15.9 -52.4 16.83 C-52.51 18.17 -52.51 18.17 -52.62 19.54 C-53.16 23.04 -54.45 24.58 -57 27 C-57.53 27.54 -58.06 28.08 -58.61 28.63 C-61.64 31.52 -63.18 32.91 -67.44 33.38 C-68.71 33.19 -68.71 33.19 -70 33 C-68.58 29.87 -66.83 27.45 -64.62 24.81 C-61.62 21.04 -59.63 17.44 -57.92 12.95 C-56.87 10.72 -55.9 9.56 -54 8 C-52.01 7.64 -52.01 7.64 -49.71 7.66 C-48.85 7.66 -47.99 7.66 -47.1 7.66 C-45.72 7.68 -45.72 7.68 -44.3 7.71 C-42.88 7.71 -42.88 7.71 -41.42 7.72 C-38.38 7.74 -35.35 7.77 -32.31 7.81 C-30.25 7.83 -28.2 7.84 -26.14 7.85 C-21.09 7.89 -16.05 7.94 -11 8 C-11.02 7.21 -11.04 6.42 -11.06 5.61 C-11 3 -11 3 -10 1.19 C-6.8 -0.71 -3.56 -0.63 0 0 Z " fill="#F4F9FA" transform="translate(418,438)"/>
<path d="M0 0 C2.44 1.75 2.44 1.75 4 4 C4 5.32 4 6.64 4 8 C5.27 7.96 6.53 7.92 7.84 7.87 C12.55 7.73 17.27 7.64 21.99 7.56 C24.03 7.52 26.06 7.47 28.1 7.4 C31.04 7.3 33.97 7.25 36.91 7.22 C37.81 7.18 38.72 7.14 39.65 7.09 C43.53 7.09 46.01 7.19 49.08 9.69 C50.88 11.72 52.46 13.77 54 16 C54.51 16.71 55.02 17.41 55.54 18.14 C56.89 20.02 58.17 21.94 59.44 23.88 C60.11 24.87 60.11 24.87 60.79 25.88 C64 30.74 64 30.74 64 33 C61.85 33.31 61.85 33.31 59 33 C56.87 31.41 55.2 29.94 53.38 28.06 C51.96 26.69 51.96 26.69 50.52 25.29 C48.33 22.78 47.33 20.46 46.34 17.29 C46.09 16.49 45.83 15.68 45.57 14.85 C45.38 14.24 45.19 13.63 45 13 C39.06 12.95 33.11 12.91 27.17 12.89 C25.14 12.88 23.12 12.87 21.1 12.85 C18.19 12.82 15.29 12.81 12.38 12.8 C11.47 12.79 10.57 12.78 9.63 12.77 C8.37 12.77 8.37 12.77 7.08 12.77 C6.34 12.77 5.6 12.76 4.83 12.76 C2.75 12.84 2.75 12.84 1 15 C-5.93 15.67 -5.93 15.67 -9.5 13.44 C-11.58 10.05 -11.56 7.91 -11 4 C-8.11 -0.51 -5.12 -0.73 0 0 Z " fill="#E5F4F9" transform="translate(582,438)"/>
<path d="M0 0 C2.16 -0.32 2.16 -0.32 5 0 C7.04 1.64 8.68 3.16 10.44 5.06 C11.34 6 12.25 6.94 13.18 7.91 C14.71 9.49 15.94 10.9 17.04 12.8 C18.5 15.1 19.75 16.45 22 18 C27.14 19.06 32.24 18.96 37.46 18.9 C38.98 18.91 40.49 18.92 42.01 18.94 C45.98 18.97 49.96 18.96 53.93 18.94 C58 18.93 62.06 18.96 66.12 18.99 C74.08 19.03 82.04 19.03 90 19 C90.5 21.48 90.5 21.48 91 24 C81.73 24.21 72.47 24.37 63.2 24.47 C58.9 24.51 54.59 24.58 50.29 24.68 C46.13 24.78 41.98 24.83 37.82 24.85 C36.24 24.87 34.66 24.9 33.07 24.95 C20.67 25.32 20.67 25.32 16.53 22.05 C14.75 19.78 13.38 17.52 12 15 C10.63 13.31 10.63 13.31 9.2 11.86 C8.37 10.98 7.54 10.09 6.69 9.19 C5.85 8.29 5 7.4 4.14 6.48 C2.3 4.34 1.09 2.58 0 0 Z " fill="#EAF0F4" transform="translate(345,362)"/>
<path d="M0 0 C19.14 0 38.28 0 58 0 C58 2.64 58 5.28 58 8 C38.86 8 19.72 8 0 8 C0 5.36 0 2.72 0 0 Z " fill="#3B7193" transform="translate(467,563)"/>
<path d="M0 0 C19.14 0 38.28 0 58 0 C58 2.64 58 5.28 58 8 C38.86 8 19.72 8 0 8 C0 5.36 0 2.72 0 0 Z " fill="#5A9FC8" transform="translate(467,544)"/>
<path d="M0 0 C3.63 0.04 5.04 0.19 8.25 2.06 C11.02 5.18 12.08 7.03 12.62 11.19 C12.05 15.94 9.7 18.76 6.5 22.19 C3.09 23.89 -0.08 24.07 -3.75 23.31 C-7.07 21.54 -9.24 19.16 -11.19 15.94 C-11.96 12.34 -11.7 9.87 -10.75 6.31 C-8.25 3.44 -8.25 3.44 -5.75 1.31 C-4.11 -0.33 -2.26 0.06 0 0 Z " fill="#54C1B8" transform="translate(583.75,518.6875)"/>
<path d="M0 0 C20.46 0 40.92 0 62 0 C62 2.31 62 4.62 62 7 C41.54 7 21.08 7 0 7 C0 4.69 0 2.38 0 0 Z " fill="#ECF1F2" transform="translate(465,280)"/>
<path d="M0 0 C3.13 1.45 5.15 3.08 7 6 C8.14 10.89 7.78 14.66 5.25 19 C1.24 22.57 -1.51 23.47 -7.04 23.32 C-10.24 22.8 -11.84 21.35 -14 19 C-16.04 15.31 -16.51 12.18 -16 8 C-12.03 0.88 -7.97 -1.45 0 0 Z " fill="#54C2BA" transform="translate(413,519)"/>
<path d="M0 0 C3.02 1.76 5.41 3.83 7 7 C7.54 11.54 7.62 14.95 5.25 18.94 C2.15 21.78 0.31 22.83 -3.88 23.38 C-8.84 22.78 -11.81 20.5 -14.88 16.62 C-16.24 13.44 -16.43 11.43 -16 8 C-12.98 1.16 -7.37 -1.58 0 0 Z " fill="#4CC1B8" transform="translate(588,555)"/>
<path d="M0 0 C19.47 0 38.94 0 59 0 C59 2.31 59 4.62 59 7 C39.53 7 20.06 7 0 7 C0 4.69 0 2.38 0 0 Z " fill="#A4E3F7" transform="translate(466,428)"/>
<path d="M0 0 C3.06 1.94 3.06 1.94 5 5 C5.9 9.89 5.77 13.68 3.25 18 C-0.47 21.31 -1.81 22.02 -6.94 21.94 C-11.23 21.29 -13.24 19.35 -16 16 C-16.33 15.67 -16.66 15.34 -17 15 C-18.22 6.67 -18.22 6.67 -15.73 3.26 C-10.37 -1.16 -6.58 -1.6 0 0 Z " fill="#4DCABB" transform="translate(415,556)"/>
<path d="M0 0 C2.64 0 5.28 0 8 0 C8 9.57 8 19.14 8 29 C13.28 29 18.56 29 24 29 C24 31.31 24 33.62 24 36 C16.08 36 8.16 36 0 36 C0 24.12 0 12.24 0 0 Z " fill="#F9FAFA" transform="translate(438,802)"/>
<path d="M0 0 C0.86 -0.02 1.72 -0.05 2.61 -0.07 C6.57 -0.14 10.53 -0.2 14.49 -0.24 C16.57 -0.26 18.66 -0.3 20.75 -0.36 C23.75 -0.44 26.76 -0.47 29.77 -0.49 C31.16 -0.54 31.16 -0.54 32.58 -0.59 C38.94 -0.57 38.94 -0.57 41.91 1.8 C45.94 6.41 45.94 6.41 45.94 8.22 C28.12 8.22 10.3 8.22 -8.06 8.22 C-4.58 0.11 -4.58 0.11 0 0 Z " fill="#6BBBD5" transform="translate(475.057373046875,408.775390625)"/>
<path d="M0 0 C7.65 -0.08 15.31 -0.13 22.96 -0.16 C25.57 -0.18 28.17 -0.2 30.78 -0.23 C34.52 -0.26 38.25 -0.28 41.99 -0.29 C43.16 -0.31 44.33 -0.32 45.54 -0.34 C46.62 -0.34 47.7 -0.34 48.82 -0.34 C50.25 -0.35 50.25 -0.35 51.71 -0.36 C52.47 -0.24 53.22 -0.12 54 0 C56 3 56 3 56 7 C37.19 7 18.38 7 -1 7 C-0.67 4.69 -0.34 2.38 0 0 Z " fill="#5CA1C5" transform="translate(468,526)"/>
<path d="M0 0 C18.15 0 36.3 0 55 0 C48.83 7.71 48.83 7.71 45.15 8.29 C42.8 8.45 40.47 8.49 38.11 8.5 C37.24 8.51 36.37 8.52 35.48 8.53 C33.65 8.55 31.82 8.56 29.99 8.56 C27.21 8.56 24.42 8.62 21.64 8.67 C19.86 8.68 18.07 8.69 16.29 8.69 C15.47 8.71 14.64 8.73 13.79 8.76 C8.18 8.69 5.3 7.3 1.2 3.48 C0 2 0 2 0 0 Z " fill="#82C3E6" transform="translate(469,298)"/>
<path d="M0 0 C32.05 -2.26 32.05 -2.26 38.68 2.65 C41.75 5.72 43.84 9.25 46 13 C47.97 15.19 47.97 15.19 49.94 16.94 C52 18.94 53.81 20.98 55.56 23.25 C60.51 28.83 65.91 29.54 73 30 C73 30.33 73 30.66 73 31 C71.35 31.33 69.7 31.66 68 32 C69.49 32.5 69.49 32.5 71 33 C70.67 33.99 70.34 34.98 70 36 C69.67 35.67 69.34 35.34 69 35 C68.36 35 67.72 35 67.06 35 C61.37 35.01 58.29 33.94 54.11 30.03 C52.49 28.35 50.89 26.66 49.31 24.94 C48.51 24.1 47.71 23.27 46.88 22.41 C42.59 17.92 38.45 13.3 34.4 8.6 C31.79 5.49 31.79 5.49 27.84 4.68 C26.49 4.64 25.15 4.61 23.8 4.59 C22.74 4.56 22.74 4.56 21.66 4.53 C19.4 4.47 17.14 4.42 14.88 4.38 C13.34 4.34 11.81 4.3 10.28 4.26 C6.52 4.16 2.76 4.08 -1 4 C-0.67 2.68 -0.34 1.36 0 0 Z " fill="#D5E1E8" transform="translate(548,483)"/>
<path d="M0 0 C2.31 0 4.62 0 7 0 C7 9.24 7 18.48 7 28 C12.61 28 18.22 28 24 28 C24 30.31 24 32.62 24 35 C16.08 35 8.16 35 0 35 C0 23.45 0 11.9 0 0 Z " fill="#FAFDFD" transform="translate(483,803)"/>
<path d="M0 0 C-8.41 9.35 -24.11 10.33 -36 11 C-46.11 11.48 -55.99 10.25 -66 9 C-65 7 -65 7 -61.95 5.97 C-55.04 4.4 -47.91 4.03 -40.88 3.44 C-39.44 3.31 -38.01 3.18 -36.57 3.06 C-28.7 2.37 -20.84 1.76 -12.96 1.27 C-8.53 0.87 -4.47 -0.13 0 0 Z " fill="#07212D" transform="translate(539,230)"/>
<path d="M0 0 C16.17 0 32.34 0 49 0 C43 7 43 7 42 8 C37.28 8.32 32.56 8.36 27.84 8.41 C26.25 8.43 24.66 8.46 23.07 8.51 C7.19 8.97 7.19 8.97 1.14 3.49 C0 2 0 2 0 0 Z " fill="#80BFD9" transform="translate(473,447)"/>
<path d="M0 0 C0.88 0.03 1.77 0.05 2.68 0.08 C4.85 0.15 7.02 0.26 9.19 0.38 C9.68 2.36 9.68 2.36 10.19 4.38 C8.59 4.22 8.59 4.22 6.96 4.07 C0.08 3.74 -5.57 3.78 -10.88 8.61 C-13.92 11.76 -16.68 15.13 -19.38 18.59 C-21.35 21.04 -23.55 23.2 -25.81 25.38 C-26.53 26.1 -27.24 26.83 -27.98 27.58 C-28.65 28.25 -29.31 28.93 -30 29.62 C-30.67 30.31 -31.35 31 -32.04 31.7 C-35.02 34.51 -36.95 34.49 -40.94 34.44 C-41.85 34.43 -42.76 34.42 -43.7 34.41 C-44.39 34.4 -45.09 34.39 -45.81 34.38 C-45.81 37.01 -45.81 39.65 -45.81 42.38 C-46.14 42.38 -46.47 42.38 -46.81 42.38 C-46.81 38.75 -46.81 35.12 -46.81 31.38 C-47.47 31.04 -48.13 30.72 -48.81 30.38 C-47.95 30.31 -47.09 30.24 -46.21 30.18 C-34.48 28.58 -29.27 23.03 -21.81 14.38 C-20.73 13.18 -20.73 13.18 -19.62 11.95 C-17.08 9.12 -14.81 6.38 -12.74 3.18 C-9.27 -0.99 -5.04 -0.29 0 0 Z " fill="#D2DDE7" transform="translate(420.8125,482.625)"/>
<path d="M0 0 C2.38 1.38 2.38 1.38 4 3 C4 3.66 4 4.32 4 5 C19.18 5 34.36 5 50 5 C50 5.33 50 5.66 50 6 C36.14 6.33 22.28 6.66 8 7 C7.67 7.66 7.34 8.32 7 9 C21.19 9 35.38 9 50 9 C50 9.33 50 9.66 50 10 C34.82 10 19.64 10 4 10 C3.67 11.32 3.34 12.64 3 14 C-0.75 16.5 -2.56 16.54 -7 16 C-10 13.94 -10 13.94 -12 11 C-12.15 6.69 -11.7 4.79 -8.81 1.56 C-5.49 -0.28 -3.74 -0.56 0 0 Z " fill="#D9E0E5" transform="translate(581,405)"/>
<path d="M0 0 C1.39 -0.02 2.79 -0.06 4.18 -0.1 C17.23 -0.54 17.23 -0.54 21.87 3.31 C24.42 5.94 24.42 5.94 24.42 8.41 C9.9 8.41 -4.62 8.41 -19.58 8.41 C-14.99 -0.78 -9.6 0.11 0 0 Z " fill="#5F95B5" transform="translate(491.583740234375,506.594970703125)"/>
<path d="M0 0 C0.5 0.99 0.5 0.99 1 2 C0.34 2 -0.32 2 -1 2 C-1 2.66 -1 3.32 -1 4 C0.32 4.33 1.64 4.66 3 5 C2.43 5.08 1.87 5.16 1.28 5.24 C-4.95 6.32 -8.55 8.41 -13.12 12.69 C-14.03 13.5 -14.03 13.5 -14.95 14.32 C-19.11 18.08 -23.14 21.94 -27 26 C-28.67 27.67 -30.33 29.33 -32 31 C-32.56 31.7 -33.12 32.41 -33.69 33.13 C-36.92 35.75 -39.16 35.4 -43.25 35.25 C-44.51 35.21 -45.78 35.18 -47.08 35.14 C-48.04 35.09 -49.01 35.05 -50 35 C-50 33.35 -50 31.7 -50 30 C-49.26 30.06 -48.52 30.11 -47.76 30.17 C-42.62 30.2 -39.21 29.92 -35.04 26.73 C-32.26 23.89 -29.64 20.97 -27 18 C-25 16.17 -22.96 14.43 -20.88 12.69 C-18.82 10.84 -17.04 8.82 -15.19 6.75 C-10.82 2.25 -6.05 1.07 0 0 Z " fill="#EAF2F4" transform="translate(619,298)"/>
<path d="M0 0 C0.09 4.27 0.14 8.54 0.19 12.81 C0.21 14.03 0.24 15.24 0.26 16.49 C0.28 18.24 0.28 18.24 0.29 20.02 C0.32 21.63 0.32 21.63 0.34 23.27 C0 26 0 26 -1.36 27.85 C-3.71 29.5 -5.2 29.42 -8 29 C-9.64 27.84 -9.64 27.84 -11 26 C-11.34 23.36 -11.34 23.36 -11.29 20.24 C-11.28 19.12 -11.27 18 -11.26 16.85 C-11.24 15.68 -11.21 14.52 -11.19 13.31 C-11.17 12.13 -11.16 10.95 -11.15 9.74 C-11.11 6.83 -11.06 3.91 -11 1 C-10.01 1.5 -10.01 1.5 -9 2 C-7.03 1.68 -7.03 1.68 -4.94 1.06 C-1.05 0 -1.05 0 0 0 Z " fill="#7ED9E0" transform="translate(433,250)"/>
<path d="M0 0 C2.5 1.88 2.5 1.88 4 4 C4 4.66 4 5.32 4 6 C17.2 6 30.4 6 44 6 C44 6.33 44 6.66 44 7 C30.8 7 17.6 7 4 7 C4 7.99 4 8.98 4 10 C17.86 10 31.72 10 46 10 C46 10.33 46 10.66 46 11 C44.08 11.02 44.08 11.02 42.12 11.04 C37.36 11.1 32.6 11.18 27.85 11.26 C25.79 11.3 23.73 11.32 21.67 11.35 C18.71 11.38 15.76 11.43 12.8 11.49 C11.88 11.49 10.96 11.5 10.01 11.51 C5.31 11.62 2.6 11.72 -1 15 C-4.88 14.93 -7.24 14.49 -10.5 12.38 C-12 10 -12 10 -11.94 6.44 C-11 3 -11 3 -9.94 1.06 C-6.75 -0.69 -3.49 -0.65 0 0 Z " fill="#68B3B2" transform="translate(325,476)"/>
<path d="M0 0 C13.53 0 27.06 0 41 0 C35 7 35 7 33 8 C28.76 8.32 24.5 8.32 20.25 8.38 C19.07 8.41 17.89 8.45 16.67 8.49 C6.91 8.59 6.91 8.59 3.23 5.66 C1 3 1 3 0 0 Z " fill="#5089A3" transform="translate(477,346)"/>
<path d="M0 0 C3.02 0.09 4.01 0.3 6.62 2 C8.61 5.14 8.8 6.72 8.12 10.38 C5.63 13.74 4.24 15.19 0.06 15.88 C-2.88 15.38 -2.88 15.38 -4.51 13.88 C-8.02 11.65 -11.55 11.9 -15.58 11.86 C-16.42 11.85 -17.25 11.83 -18.12 11.81 C-20.79 11.75 -23.46 11.72 -26.12 11.69 C-27.94 11.65 -29.75 11.62 -31.56 11.58 C-36 11.5 -40.44 11.43 -44.88 11.38 C-44.88 11.05 -44.88 10.71 -44.88 10.38 C-32.66 10.38 -20.46 10.38 -7.88 10.38 C-7.88 9.38 -7.88 8.39 -7.88 7.38 C-19.75 7.38 -31.63 7.38 -43.88 7.38 C-43.88 7.05 -43.88 6.71 -43.88 6.38 C-32 6.38 -20.12 6.38 -7.88 6.38 C-7.22 5.06 -6.55 3.74 -5.88 2.38 C-3.88 0.38 -3.88 0.38 0 0 Z " fill="#6CBCB8" transform="translate(671.875,475.625)"/>
<path d="M0 0 C2.5 1.56 2.5 1.56 4 4 C4.7 8.93 4.77 10.84 2 15 C-1.33 17.22 -3.14 17.76 -7.06 17.48 C-10.57 16.61 -12.01 14.92 -14 12 C-14.69 7.7 -14.52 5.79 -12.12 2.12 C-8.31 -1.69 -5.02 -1.25 0 0 Z " fill="#61D3C9" transform="translate(671,361)"/>
<path d="M0 0 C3.3 0 6.6 0 10 0 C10.06 4.29 10.09 8.58 10.12 12.88 C10.14 14.1 10.16 15.32 10.18 16.58 C10.18 17.75 10.19 18.92 10.2 20.12 C10.21 21.2 10.22 22.27 10.23 23.39 C10 26 10 26 8 28 C1.42 27.42 1.42 27.42 0 26 C-0.09 24.07 -0.11 22.14 -0.1 20.21 C-0.09 19.05 -0.09 17.88 -0.09 16.67 C-0.08 15.44 -0.07 14.21 -0.06 12.94 C-0.06 11.7 -0.05 10.47 -0.05 9.19 C-0.04 6.13 -0.02 3.06 0 0 Z " fill="#86E1E5" transform="translate(560,251)"/>
<path d="M0 0 C3.65 0.87 5.13 2.44 7.16 5.52 C7.94 9.89 7.68 11.73 5.22 15.45 C1.62 17.88 -0.49 18.2 -4.75 17.93 C-6.84 17.52 -6.84 17.52 -9.34 15.95 C-11.39 12.62 -11.91 10.44 -11.84 6.52 C-8.85 1.04 -6.25 -0.46 0 0 Z " fill="#61CCC9" transform="translate(329.83984375,360.484375)"/>
<path d="M0 0 C3.75 2.08 4.79 3.29 6 7.44 C6 11.4 5.45 12.94 3 16 C-0.51 18.34 -1.86 18.5 -6 18 C-8.9 16.45 -10.54 15.28 -11.67 12.13 C-12.41 8.21 -12.33 6.54 -10.19 3.06 C-6.78 -0.15 -4.65 -0.46 0 0 Z " fill="#0F2839" transform="translate(655,402)"/>
<path d="M0 0 C3.33 0.55 5.3 1.49 8 3.5 C9.6 6.71 9.48 10.02 9 13.5 C6.86 16.83 5.37 17.39 1.56 18.5 C-2 18.5 -2 18.5 -4.88 16.69 C-7.56 13.93 -7.94 13.05 -8.38 9.19 C-8 5.5 -8 5.5 -5.88 2.56 C-3 0.5 -3 0.5 0 0 Z " fill="#0B263F" transform="translate(340,401.5)"/>
<path d="M0 0 C7.67 -0.14 11.73 3.2 17.24 8.28 C19.34 10.33 21.37 12.44 23.39 14.57 C24.17 15.38 24.95 16.19 25.75 17.02 C27.31 18.65 28.85 20.3 30.37 21.97 C34.06 25.85 36.59 28.42 42.05 29.03 C43.36 29.02 44.66 29.01 46 29 C46 30.32 46 31.64 46 33 C43.92 33.16 41.83 33.28 39.75 33.38 C38.01 33.48 38.01 33.48 36.23 33.59 C33 33 33 33 30.96 30.38 C30.31 29.26 29.67 28.15 29 27 C27.07 24.76 24.98 22.7 22.88 20.62 C22.3 20.06 21.73 19.5 21.14 18.91 C11.75 9.61 11.75 9.61 0 4 C0 2.68 0 1.36 0 0 Z " fill="#E7EEF2" transform="translate(376,300)"/>
<path d="M0 0 C11.85 -1.32 11.85 -1.32 17 0 C20.56 3.15 22.4 6.55 24 11 C24 11.66 24 12.32 24 13 C11.33 14.2 11.33 14.2 6 13 C2.62 10.17 1.16 7.22 0 3 C0 2.01 0 1.02 0 0 Z " fill="#D6DBDD" transform="translate(359,752)"/>
<path d="M0 0 C4.04 0.84 5.49 2.4 8 5.62 C9.12 8.12 9.12 8.12 9 10.62 C7.03 13.49 5.51 15.28 2.02 16.08 C-1.4 16.26 -3.63 15.87 -6.5 14 C-8.48 10.86 -8.67 9.28 -8 5.62 C-5.54 2.3 -4.07 0.85 0 0 Z " fill="#6BD3C7" transform="translate(321,324.375)"/>
<path d="M0 0 C12.87 0 25.74 0 39 0 C39 1.65 39 3.3 39 5 C38 6 38 6 35.13 6.11 C33.88 6.11 32.63 6.1 31.34 6.1 C30.34 6.1 30.34 6.1 29.33 6.09 C27.2 6.09 25.07 6.08 22.94 6.06 C21.5 6.06 20.06 6.05 18.62 6.05 C15.08 6.04 11.54 6.02 8 6 C8 4.68 8 3.36 8 2 C5.36 1.67 2.72 1.34 0 1 C0 0.67 0 0.34 0 0 Z " fill="#93DBF0" transform="translate(486,428)"/>
<path d="M0 0 C1.94 1 1.94 1 3 3 C3.36 7.57 3.62 11.06 1 15 C-6.23 15.48 -6.23 15.48 -9.5 13.44 C-11.58 10.05 -11.56 7.91 -11 4 C-8.11 -0.51 -5.12 -0.65 0 0 Z " fill="#F2FAFB" transform="translate(582,438)"/>
<path d="M0 0 C2.44 1.62 2.44 1.62 4 4 C4 7.75 3.82 10.02 1.38 12.94 C-1.93 14.42 -4.42 14.39 -8 14 C-10.67 12.4 -10.97 11.1 -11.94 8.12 C-12 5 -12 5 -10.19 2.19 C-6.61 -1.39 -4.84 -1.26 0 0 Z " fill="#6AD3CB" transform="translate(676,326)"/>
<path d="M0 0 C0.66 0.33 1.32 0.66 2 1 C-0.21 6.77 -5.66 8.59 -11 11 C-21.68 14.71 -31.73 15.14 -42.94 15.06 C-44.19 15.06 -45.45 15.05 -46.74 15.05 C-49.83 15.04 -52.91 15.02 -56 15 C-56 14.67 -56 14.34 -56 14 C-50.05 12 -44.37 11.53 -38.12 11.12 C-30.8 10.56 -23.66 9.79 -16.5 8.12 C-15.84 7.98 -15.18 7.83 -14.49 7.67 C-9.76 6.48 -6.15 4.45 -2 2 C-1.34 2 -0.68 2 0 2 C0 1.34 0 0.68 0 0 Z " fill="#8BD8E8" transform="translate(540,229)"/>
<path d="M0 0 C0.66 0 1.32 0 2 0 C2 0.66 2 1.32 2 2 C4.31 2 6.62 2 9 2 C9 2.66 9 3.32 9 4 C9.74 3.77 10.48 3.55 11.24 3.32 C16.13 2.12 19.52 1.35 24.25 3.43 C26.94 5.17 29.5 6.98 32 9 C31.01 9.99 30.02 10.98 29 12 C28.34 11.34 27.68 10.68 27 10 C24.32 9.61 21.76 9.35 19.06 9.19 C18.33 9.12 17.6 9.06 16.85 8.99 C14.46 8.8 14.46 8.8 11 9 C10.01 9.99 9.02 10.98 8 12 C5.03 9.03 2.06 6.06 -1 3 C-0.67 2.01 -0.34 1.02 0 0 Z " fill="#B2C5D3" transform="translate(453,356)"/>
<path d="M0 0 C5 -0.07 10 -0.13 15 -0.16 C16.69 -0.18 18.39 -0.2 20.09 -0.23 C22.54 -0.26 24.99 -0.28 27.44 -0.29 C28.57 -0.32 28.57 -0.32 29.72 -0.34 C34.87 -0.34 38.39 0.7 43 3 C43 3.99 43 4.98 43 6 C41.44 5.86 39.87 5.71 38.31 5.56 C37.44 5.48 36.57 5.4 35.68 5.32 C33 5 33 5 30.73 4.5 C27.66 3.94 24.72 3.79 21.61 3.68 C20.4 3.64 19.2 3.6 17.96 3.56 C16.72 3.52 15.47 3.48 14.19 3.44 C12.29 3.37 12.29 3.37 10.35 3.31 C7.24 3.2 4.12 3.1 1 3 C0.67 2.01 0.34 1.02 0 0 Z " fill="#F2F6F7" transform="translate(385,354)"/>
<path d="M0 0 C0.66 0.33 1.32 0.66 2 1 C1.67 1.66 1.34 2.32 1 3 C1.33 3.99 1.66 4.98 2 6 C0.05 7.71 -1.89 9.42 -3.86 11.11 C-5.94 12.9 -5.94 12.9 -7.52 14.58 C-10.71 17.77 -13.03 18.3 -17.38 18.31 C-18.92 18.23 -20.46 18.14 -22 18 C-22 20.64 -22 23.28 -22 26 C-22.33 26 -22.66 26 -23 26 C-23 22.37 -23 18.74 -23 15 C-23.66 14.67 -24.32 14.34 -25 14 C-24.12 13.91 -23.23 13.82 -22.32 13.73 C-11.58 12.13 -6.78 8.14 0 0 Z " fill="#CFDBE0" transform="translate(397,499)"/>
<path d="M0 0 C4.14 3.85 7.22 7.97 10.31 12.69 C10.77 13.36 11.22 14.04 11.69 14.74 C15 19.74 15 19.74 15 22 C11.34 22.54 10.17 22.13 7.14 19.88 C6.16 18.93 5.2 17.98 4.25 17 C3.76 16.5 3.27 16.01 2.76 15.5 C0.04 12.59 -1.72 10.31 -2.19 6.31 C-2.13 5.22 -2.06 4.13 -2 3 C-1.34 3 -0.68 3 0 3 C0 2.01 0 1.02 0 0 Z " fill="#B3D2E1" transform="translate(631,449)"/>
<path d="M0 0 C0 2.33 0 4.67 0 7 C0.66 7 1.32 7 2 7 C2.33 10.53 2.34 12.46 0.44 15.5 C-7.71 23.86 -7.71 23.86 -12.44 24.38 C-13.28 24.25 -14.13 24.13 -15 24 C-13.58 20.87 -11.83 18.45 -9.62 15.81 C-6.6 12.02 -4.58 8.36 -2.82 3.85 C-2 2 -2 2 0 0 Z " fill="#BCD8E7" transform="translate(363,447)"/>
<path d="M0 0 C1.18 0.01 1.18 0.01 2.39 0.01 C4.89 0.03 7.38 0.07 9.88 0.11 C11.58 0.12 13.28 0.13 14.99 0.15 C19.14 0.18 23.29 0.23 27.44 0.29 C27.44 0.95 27.44 1.61 27.44 2.29 C26.66 2.34 25.88 2.38 25.08 2.43 C21.47 2.64 17.86 2.87 14.25 3.11 C12.41 3.21 12.41 3.21 10.54 3.32 C3.15 3.81 -3.77 4.83 -10.94 6.68 C-13.56 7.29 -13.56 7.29 -16.56 7.29 C-16.5 5.48 -16.5 5.48 -15.56 3.29 C-10.23 0.44 -5.98 -0.12 0 0 Z " fill="#F9FBFD" transform="translate(580.55859375,353.70703125)"/>
<path d="M0 0 C1.06 0.01 1.06 0.01 2.14 0.01 C4.39 0.03 6.64 0.07 8.89 0.11 C10.42 0.12 11.95 0.13 13.48 0.15 C17.22 0.18 20.96 0.23 24.71 0.29 C24.71 1.61 24.71 2.93 24.71 4.29 C20.37 4.49 16.02 4.66 11.68 4.83 C10.21 4.89 8.73 4.95 7.25 5.02 C5.13 5.11 3 5.19 0.88 5.27 C-0.4 5.32 -1.68 5.37 -2.99 5.43 C-6.12 5.3 -7.71 4.96 -10.29 3.29 C-7.61 -0.52 -4.26 -0.1 0 0 Z " fill="#EFFAFB" transform="translate(640.29296875,331.70703125)"/>
<path d="M0 0 C0.99 0.66 1.98 1.32 3 2 C3.19 4.88 3.19 4.88 3 8 C2.7 11.78 2.7 11.78 4 14 C0.66 13.44 -2.03 12.65 -5 11 C-5 12.32 -5 13.64 -5 15 C-5.99 15 -6.98 15 -8 15 C-8 10.38 -8 5.76 -8 1 C-5.23 -0.39 -3.07 -0.19 0 0 Z " fill="#4D565E" transform="translate(818,686)"/>
<path d="M0 0 C0.86 -0.02 1.72 -0.05 2.61 -0.07 C6.57 -0.14 10.53 -0.2 14.49 -0.24 C16.57 -0.26 18.66 -0.3 20.75 -0.36 C23.75 -0.44 26.76 -0.47 29.77 -0.49 C31.16 -0.54 31.16 -0.54 32.58 -0.59 C38.94 -0.57 38.94 -0.57 41.91 1.8 C45.94 6.41 45.94 6.41 45.94 8.22 C28.12 8.22 10.3 8.22 -8.06 8.22 C-4.58 0.11 -4.58 0.11 0 0 Z M-3.06 1.22 C-4.05 3.2 -5.04 5.18 -6.06 7.22 C9.12 7.22 24.3 7.22 39.94 7.22 C40.27 5.9 40.6 4.58 40.94 3.22 C39.19 1.07 39.19 1.07 37.11 0.98 C36 0.99 36 0.99 34.86 1 C34.02 1 33.18 1 32.31 1 C30.95 1.01 30.95 1.01 29.56 1.03 C28.63 1.03 27.7 1.03 26.74 1.04 C23.77 1.05 20.79 1.07 17.82 1.1 C15.8 1.11 13.79 1.12 11.77 1.13 C6.83 1.15 1.89 1.18 -3.06 1.22 Z " fill="#76B1C9" transform="translate(475.057373046875,408.775390625)"/>
<path d="M0 0 C13.86 0 27.72 0 42 0 C42 0.99 42 1.98 42 3 C28.14 3 14.28 3 0 3 C0 2.01 0 1.02 0 0 Z " fill="#DFEBF1" transform="translate(329,483)"/>
<path d="M0 0 C1.6 0.04 3.21 0.09 4.81 0.14 C6.07 0.18 6.07 0.18 7.36 0.21 C10.06 0.29 12.76 0.38 15.46 0.46 C17.29 0.51 19.11 0.57 20.94 0.62 C25.43 0.75 29.91 0.88 34.4 1.02 C34.4 2.01 34.4 3 34.4 4.02 C21.53 4.02 8.66 4.02 -4.6 4.02 C-4.6 -0.35 -4.47 0.03 0 0 Z " fill="#E2EBEF" transform="translate(629.601806640625,481.978271484375)"/>
<path d="M0 0 C0.33 0.99 0.66 1.98 1 3 C-0.38 5.5 -0.38 5.5 -2 8 C-2.33 8.99 -2.66 9.98 -3 11 C-6.91 15.02 -11.21 18.13 -16 21 C-17.78 23.07 -17.78 23.07 -19 25 C-18.36 25.05 -17.72 25.1 -17.07 25.15 C-16.24 25.22 -15.41 25.3 -14.56 25.38 C-13.74 25.44 -12.92 25.51 -12.07 25.59 C-11.38 25.72 -10.7 25.86 -10 26 C-9.67 26.66 -9.34 27.32 -9 28 C-8.4 27.48 -7.8 26.97 -7.19 26.44 C-6.47 25.96 -5.74 25.49 -5 25 C-4.01 25.33 -3.02 25.66 -2 26 C-7.06 29.98 -7.06 29.98 -10.75 30.06 C-15.42 28.54 -19.67 26.32 -24 24 C-21.29 21.13 -18.56 18.95 -15.25 16.81 C-8.9 12.45 -3.21 7.11 0 0 Z " fill="#64A8C4" transform="translate(535,446)"/>
<path d="M0 0 C5.94 0 11.88 0 18 0 C17.67 1.32 17.34 2.64 17 4 C19.48 4.5 19.48 4.5 22 5 C22 5.33 22 5.66 22 6 C14.74 6 7.48 6 0 6 C0 4.02 0 2.04 0 0 Z " fill="#DBF5FA" transform="translate(466,429)"/>
<path d="M0 0 C2.69 0.08 4.43 0.42 6.35 2.37 C6.81 2.91 7.27 3.45 7.75 4 C10.91 7.46 13.69 7.77 18.24 7.99 C19.11 8 19.11 8 20 8 C20 9.32 20 10.64 20 12 C15.62 12.34 11.37 12.53 7 12 C4.44 9.31 4.44 9.31 3 6 C1.68 4.32 0.36 2.65 -1 1 C-0.67 0.67 -0.34 0.34 0 0 Z " fill="#F0F5F7" transform="translate(402,321)"/>
<path d="M0 0 C1.88 1.12 1.88 1.12 3 3 C2.57 8.43 2.57 8.43 1 10 C-2.44 10.19 -2.44 10.19 -6 10 C-8 8 -8 8 -8.31 5 C-8.21 4.01 -8.11 3.02 -8 2 C-4.77 -0.16 -3.75 -0.47 0 0 Z " fill="#6AB3B3" transform="translate(541,585)"/>
<path d="M0 0 C0.66 0.33 1.32 0.66 2 1 C1.21 1.74 0.41 2.47 -0.41 3.23 C-1.44 4.22 -2.47 5.2 -3.5 6.19 C-4.02 6.67 -4.55 7.15 -5.09 7.65 C-6.82 9.27 -6.82 9.27 -9 12 C-9 13.65 -9 15.3 -9 17 C-13.62 17 -18.24 17 -23 17 C-23 15.35 -23 13.7 -23 12 C-22.26 12.06 -21.52 12.11 -20.76 12.17 C-14.47 12.21 -10.71 11.36 -6.22 7 C-4.07 4.72 -2.01 2.4 0 0 Z " fill="#DDE4E7" transform="translate(592,316)"/>
<path d="M0 0 C-2.95 3.32 -5.43 4.83 -9.62 6.25 C-10.59 6.59 -11.55 6.92 -12.54 7.27 C-15 8 -15 8 -17 8 C-17 6.35 -17 4.7 -17 3 C-18 3.25 -18 3.25 -19.01 3.5 C-22.63 4.11 -26.16 4.11 -29.81 4.06 C-30.51 4.06 -31.2 4.05 -31.91 4.05 C-33.61 4.04 -35.3 4.02 -37 4 C-37 3.67 -37 3.34 -37 3 C-36.21 2.94 -35.42 2.89 -34.6 2.83 C-31 2.58 -27.41 2.32 -23.81 2.06 C-22.57 1.98 -21.32 1.89 -20.04 1.8 C-18.84 1.71 -17.63 1.62 -16.39 1.54 C-15.29 1.46 -14.18 1.38 -13.05 1.3 C-8.59 0.86 -4.5 -0.13 0 0 Z " fill="#0D3742" transform="translate(539,230)"/>
<path d="M0 0 C6.58 0.58 6.58 0.58 8 2 C8.19 4.94 8.19 4.94 8 8 C6 10 6 10 3 10.25 C0 10 0 10 -2 8 C-2.25 5 -2.25 5 -2 2 C-1.34 1.34 -0.68 0.68 0 0 Z " fill="#65B9BC" transform="translate(493,591)"/>
<path d="M0 0 C0.66 0.99 1.32 1.98 2 3 C0.26 4.8 -1.49 6.59 -3.25 8.38 C-3.74 8.88 -4.23 9.39 -4.74 9.91 C-7.31 12.52 -9.57 14.65 -13 16 C-13.66 14.68 -14.32 13.36 -15 12 C-13.07 10.18 -11.13 8.37 -9.19 6.56 C-8.37 5.79 -8.37 5.79 -7.53 5 C-5.04 2.69 -3.26 1.09 0 0 Z " fill="#C7D9DF" transform="translate(384,470)"/>
<path d="M0 0 C1.18 0.08 2.35 0.16 3.56 0.25 C5.56 3.25 5.56 3.25 5.31 5.31 C4.56 7.25 4.56 7.25 2.56 9.25 C-0.44 9.56 -0.44 9.56 -3.44 9.25 C-5.44 6.25 -5.44 6.25 -5.12 3.62 C-4.07 -0.03 -4.03 0.29 0 0 Z " fill="#6BC6BD" transform="translate(454.4375,585.75)"/>
<path d="M0 0 C3 0.25 3 0.25 5 2.25 C5.25 4.75 5.25 4.75 5 7.25 C3 9.25 3 9.25 0 9.5 C-3 9.25 -3 9.25 -5 7.25 C-5.25 4.75 -5.25 4.75 -5 2.25 C-3 0.25 -3 0.25 0 0 Z " fill="#74C8C2" transform="translate(375,545.75)"/>
<path d="M0 0 C4.34 0.5 6.9 3.11 10 6 C10.33 6.99 10.66 7.98 11 9 C12.76 8.94 12.76 8.94 14.56 8.88 C18.72 8.86 22.06 9.69 26 11 C26 8.69 26 6.38 26 4 C29.01 7.01 28.6 9.82 29 14 C28.03 13.67 27.06 13.34 26.06 13 C20.14 11.31 13.96 11.46 8 13 C7.61 11.78 7.22 10.57 6.81 9.31 C5.27 5.13 3.34 2.89 0 0 Z " fill="#74C0D9" transform="translate(550,207)"/>
<path d="M0 0 C3.06 0.19 3.06 0.19 5.06 2.19 C5.19 5.31 5.19 5.31 5.06 8.19 C-1.35 9.52 -1.35 9.52 -3.94 8.06 C-4.94 6.19 -4.94 6.19 -4.69 3.56 C-3.64 0.23 -3.64 0.23 0 0 Z " fill="#5BD2CA" transform="translate(616.9375,545.8125)"/>
<path d="M0 0 C5.57 0.57 5.57 0.57 7 2 C7.19 4.44 7.19 4.44 7 7 C5 9 5 9 2 9.25 C-1 9 -1 9 -3 7 C-2.67 3.7 -2.38 2.38 0 0 Z " fill="#E9EEF1" transform="translate(394,818)"/>
<path d="M0 0 C2.38 0.69 2.38 0.69 3.38 1.69 C3.62 4.62 3.62 4.62 3.38 7.69 C0.38 9.69 0.38 9.69 -2.25 9.38 C-4.62 8.69 -4.62 8.69 -5.62 7.69 C-5.88 4.75 -5.88 4.75 -5.62 1.69 C-2.62 -0.31 -2.62 -0.31 0 0 Z " fill="#E3EBEE" transform="translate(690.625,389.3125)"/>
<path d="M0 0 C2.38 0.75 2.38 0.75 3.38 1.75 C3.56 4.69 3.56 4.69 3.38 7.75 C2.71 8.41 2.06 9.07 1.38 9.75 C-1.75 9.38 -1.75 9.38 -4.62 8.75 C-5.95 3.32 -5.95 3.32 -4.5 0.81 C-2.62 -0.25 -2.62 -0.25 0 0 Z " fill="#E9EEF1" transform="translate(304.625,389.25)"/>
<path d="M0 0 C0 3 0 3 -1 5 C-1.75 5.26 -2.49 5.52 -3.26 5.79 C-6.77 7.34 -8.4 9.35 -10.81 12.31 C-12 13.73 -12 13.73 -13.21 15.18 C-15.11 18.17 -15.42 19.54 -15 23 C-14.01 23.33 -13.02 23.66 -12 24 C-13.98 24.66 -15.96 25.32 -18 26 C-17.76 18.49 -16.12 13.6 -11 8 C-7.48 5.1 -3.82 2.49 0 0 Z " fill="#76BAD1" transform="translate(432,195)"/>
<path d="M0 0 C11.52 -0.18 11.52 -0.18 17 1 C16.67 1.99 16.34 2.98 16 4 C13.96 4.2 11.92 4.38 9.88 4.56 C8.17 4.72 8.17 4.72 6.43 4.88 C3.11 5 0.24 4.67 -3 4 C-2.01 3.67 -1.02 3.34 0 3 C0 2.01 0 1.02 0 0 Z " fill="#72D5E4" transform="translate(474,239)"/>
<path d="M0 0 C3.56 0.19 3.56 0.19 5.56 2.19 C5.01 6.74 5.01 6.74 3.56 8.19 C0.62 8.38 0.62 8.38 -2.44 8.19 C-4.44 6.19 -4.44 6.19 -4.62 3.62 C-4.33 -0.19 -3.97 0.22 0 0 Z " fill="#F0F4F6" transform="translate(598.4375,818.8125)"/>
<path d="M0 0 C2.56 0.19 2.56 0.19 4.56 2.19 C4.81 4.69 4.81 4.69 4.56 7.19 C2.56 9.19 2.56 9.19 0.06 9.5 C-1.17 9.35 -1.17 9.35 -2.44 9.19 C-4.44 6.19 -4.44 6.19 -4.12 3.56 C-3.16 0.24 -3.16 0.24 0 0 Z " fill="#E6F0F3" transform="translate(690.4375,408.8125)"/>
<path d="M0 0 C0.64 0.56 0.64 0.56 1.29 1.14 C5.37 4.7 9.55 7.91 14 11 C13.01 12.49 13.01 12.49 12 14 C6.86 13.11 3.32 9.89 0 6 C-0.5 2.56 -0.5 2.56 0 0 Z " fill="#D6DFE4" transform="translate(613,470)"/>
<path d="M0 0 C1 1 1 1 1.19 3.44 C1 6 1 6 -1 8 C-3.5 8.25 -3.5 8.25 -6 8 C-6.66 7.34 -7.32 6.68 -8 6 C-7.75 2.94 -7.75 2.94 -7 0 C-4.32 -1.34 -2.85 -0.73 0 0 Z " fill="#EAF0F3" transform="translate(306,410)"/>
<path d="M0 0 C2.56 0.19 2.56 0.19 4.56 2.19 C4.81 4.69 4.81 4.69 4.56 7.19 C3.9 7.85 3.24 8.51 2.56 9.19 C-0.73 8.86 -2.06 8.56 -4.44 6.19 C-3.72 0.29 -3.72 0.29 0 0 Z " fill="#EAEEF3" transform="translate(377.4375,256.8125)"/>
<path d="M0 0 C2.31 1.06 2.31 1.06 4 2 C4 2.66 4 3.32 4 4 C3.28 3.65 2.56 3.3 1.81 2.94 C-1.46 1.85 -2.75 1.89 -6 3 C-10.85 5.7 -14.31 9.23 -18.07 13.29 C-20.1 15.09 -21.36 15.61 -24 16 C-19.46 8.38 -9.46 -2.48 0 0 Z " fill="#66A0BA" transform="translate(470,384)"/>
<path d="M0 0 C-1.41 3.22 -3.1 5.32 -5.62 7.75 C-6.57 8.67 -6.57 8.67 -7.54 9.61 C-8.02 10.07 -8.5 10.53 -9 11 C-11.48 10.01 -11.48 10.01 -14 9 C-13.07 7.87 -12.13 6.75 -11.19 5.62 C-10.67 5 -10.14 4.37 -9.61 3.73 C-6.5 0.39 -4.41 -0.24 0 0 Z " fill="#E3ECF0" transform="translate(634,336)"/>
<path d="M0 0 C0.87 0.01 1.75 0.02 2.65 0.03 C4.79 0.05 6.93 0.09 9.06 0.12 C9.06 1.12 9.06 2.1 9.06 3.12 C0.48 3.12 -8.1 3.12 -16.94 3.12 C-16.94 2.79 -16.94 2.47 -16.94 2.12 C-11.17 0.14 -6.08 -0.12 0 0 Z " fill="#82DFEF" transform="translate(500.9375,240.875)"/>
<path d="M0 0 C2 2 2 2 2.12 5.12 C2.08 6.07 2.04 7.02 2 8 C1.3 8.12 0.6 8.24 -0.12 8.37 C-1.03 8.53 -1.94 8.7 -2.88 8.88 C-4.23 9.12 -4.23 9.12 -5.62 9.37 C-8.17 9.83 -8.17 9.83 -10 12 C-10.99 12 -11.98 12 -13 12 C-11.69 8.08 -9.86 7.22 -6.5 4.88 C-3.1 2.62 -3.1 2.62 0 0 Z " fill="#AFF6F6" transform="translate(549,408)"/>
<path d="M0 0 C16.17 0 32.34 0 49 0 C47.35 1.98 45.7 3.96 44 6 C43.34 5.67 42.68 5.34 42 5 C42.33 4.01 42.66 3.02 43 2 C28.81 2 14.62 2 0 2 C0 1.34 0 0.68 0 0 Z " fill="#7FB0C7" transform="translate(473,447)"/>
<path d="M0 0 C4.56 0.56 4.56 0.56 6 2 C6.19 4.44 6.19 4.44 6 7 C5.34 7.66 4.68 8.32 4 9 C0.7 8.67 -0.62 8.38 -3 6 C-2.63 3.07 -2.14 2.14 0 0 Z " fill="#EBF1F4" transform="translate(614,257)"/>
<path d="M0 0 C5.94 0.99 5.94 0.99 12 2 C12 2.33 12 2.66 12 3 C10.35 3.33 8.7 3.66 7 4 C7.99 4.33 8.98 4.66 10 5 C9.67 5.99 9.34 6.98 9 8 C8.67 7.67 8.34 7.34 8 7 C5.45 6.72 2.9 6.55 0.35 6.38 C-2 6 -2 6 -4 4 C-3.67 3.01 -3.34 2.02 -3 1 C-2.34 1.33 -1.68 1.66 -1 2 C-0.67 1.34 -0.34 0.68 0 0 Z " fill="#CFD8DF" transform="translate(609,511)"/>
<path d="M0 0 C5.62 -0.25 5.62 -0.25 9 2 C9.19 4.88 9.19 4.88 9 8 C8.7 11.78 8.7 11.78 10 14 C8.35 13.67 6.7 13.34 5 13 C5 12.01 5 11.02 5 10 C3.68 9.67 2.36 9.34 1 9 C2.65 8.67 4.3 8.34 6 8 C5.67 6.35 5.34 4.7 5 3 C3.35 2.67 1.7 2.34 0 2 C-0.33 2.99 -0.66 3.98 -1 5 C-0.67 3.35 -0.34 1.7 0 0 Z " fill="#29323B" transform="translate(812,686)"/>
<path d="M0 0 C0.33 0.99 0.66 1.98 1 3 C-0.38 5.5 -0.38 5.5 -2 8 C-2.33 8.99 -2.66 9.98 -3 11 C-6.73 14.91 -10.71 18.51 -16 20 C-14.6 16.71 -13.04 15.01 -10.25 12.81 C-5.84 9.11 -2.94 4.91 0 0 Z " fill="#6DB7CD" transform="translate(535,446)"/>
<path d="M0 0 C0 2.33 0 4.67 0 7 C0.66 7 1.32 7 2 7 C2 8.98 2 10.96 2 13 C1.01 13.5 1.01 13.5 0 14 C-2.12 13.06 -2.12 13.06 -4 12 C-3.91 10.56 -3.8 9.12 -3.69 7.69 C-3.63 6.89 -3.57 6.09 -3.51 5.26 C-2.92 2.64 -2.04 1.69 0 0 Z " fill="#B9D7E5" transform="translate(363,447)"/>
<path d="M0 0 C0.5 1.98 0.5 1.98 1 4 C0.01 4 -0.98 4 -2 4 C-2.33 3.67 -2.66 3.34 -3 3 C-5.14 2.84 -7.29 2.75 -9.44 2.68 C-10.75 2.64 -12.05 2.6 -13.4 2.56 C-14.79 2.52 -16.17 2.48 -17.56 2.44 C-18.96 2.39 -20.35 2.35 -21.74 2.31 C-25.16 2.2 -28.58 2.1 -32 2 C-32 1.67 -32 1.34 -32 1 C-27.6 0.83 -23.21 0.67 -18.81 0.5 C-17.57 0.45 -16.32 0.4 -15.04 0.36 C-13.84 0.31 -12.63 0.27 -11.39 0.22 C-10.29 0.18 -9.18 0.13 -8.05 0.09 C-5.36 0.01 -2.69 -0.02 0 0 Z " fill="#E9F1F6" transform="translate(613,470)"/>
<path d="M0 0 C0.66 0 1.32 0 2 0 C2.07 1.21 2.07 1.21 2.15 2.45 C2.22 3.52 2.3 4.59 2.38 5.69 C2.44 6.74 2.51 7.8 2.59 8.89 C2.99 11.91 3.74 14.24 5 17 C3.12 16.69 3.12 16.69 1 16 C-1.49 12.26 -1.06 10.71 -0.62 6.31 C-0.51 5.13 -0.4 3.95 -0.29 2.74 C-0.19 1.83 -0.1 0.93 0 0 Z " fill="#C9EDF6" transform="translate(545,256)"/>
<path d="M0 0 C-0.66 1.32 -1.32 2.64 -2 4 C-1.01 4.33 -0.02 4.66 1 5 C-4.28 4.67 -9.56 4.34 -15 4 C-14.67 3.34 -14.34 2.68 -14 2 C-9.18 0.53 -5.08 -0.25 0 0 Z " fill="#0A3645" transform="translate(488,235)"/>
<path d="M0 0 C0.66 0.66 1.32 1.32 2 2 C0.9 1.99 0.9 1.99 -0.23 1.97 C-5.91 1.99 -5.91 1.99 -10.77 4.48 C-12.03 6.27 -13.05 8.03 -14 10 C-14.43 10.8 -14.87 11.61 -15.31 12.44 C-15.54 12.95 -15.77 13.47 -16 14 C-16.32 9.34 -15.91 6.71 -13 3 C-8.76 -0.52 -5.29 -0.43 0 0 Z " fill="#49A6A5" transform="translate(588,555)"/>
<path d="M0 0 C3.26 0.35 4.02 1.02 6.25 3.56 C6.83 4.37 7.4 5.17 8 6 C7.34 7.32 6.68 8.64 6 10 C1.77 6.92 1.77 6.92 0 5 C-0.38 2.19 -0.38 2.19 0 0 Z " fill="#CED9E0" transform="translate(588,493)"/>
<path d="M0 0 C3.78 1.51 4.01 2.01 6 6 C1.38 6 -3.24 6 -8 6 C-5 4 -5 4 -2.88 3 C-0.83 2.14 -0.83 2.14 0 0 Z " fill="#6698B7" transform="translate(510,509)"/>
<path d="M0 0 C-0.99 0.66 -1.98 1.32 -3 2 C-3.33 2.99 -3.66 3.98 -4 5 C-6.64 5.33 -9.28 5.66 -12 6 C-11.94 4.19 -11.94 4.19 -11 2 C-4.07 -1.79 -4.07 -1.79 0 0 Z " fill="#D4DDE3" transform="translate(576,355)"/>
<path d="M0 0 C0.66 0.99 1.32 1.98 2 3 C0.91 4.03 -0.2 5.05 -1.31 6.06 C-1.93 6.63 -2.54 7.2 -3.18 7.79 C-3.78 8.19 -4.38 8.59 -5 9 C-5.99 8.67 -6.98 8.34 -8 8 C-6.3 3.89 -3.93 1.97 0 0 Z " fill="#C9DAE3" transform="translate(384,470)"/>
<path d="M0 0 C0.33 0 0.66 0 1 0 C1.33 3.3 1.66 6.6 2 10 C3.98 9.67 5.96 9.34 8 9 C7.05 10.15 6.09 11.29 5.12 12.44 C4.59 13.08 4.06 13.71 3.51 14.37 C2 16 2 16 0 17 C0 11.39 0 5.78 0 0 Z " fill="#E3EDF3" transform="translate(539,542)"/>
<path d="M0 0 C6.6 0 13.2 0 20 0 C20.33 1.65 20.66 3.3 21 5 C19.35 5.33 17.7 5.66 16 6 C16.33 4.68 16.66 3.36 17 2 C11.39 1.67 5.78 1.34 0 1 C0 0.67 0 0.34 0 0 Z " fill="#C0DAE5" transform="translate(466,428)"/>
<path d="M0 0 C0 0.66 0 1.32 0 2 C-5.94 2 -11.88 2 -18 2 C-18 1.34 -18 0.68 -18 0 C-15.38 -0.19 -12.75 -0.38 -10.12 -0.56 C-9.01 -0.65 -9.01 -0.65 -7.86 -0.73 C-2.23 -1.11 -2.23 -1.11 0 0 Z " fill="#ADB9C3" transform="translate(383,763)"/>
<path d="M0 0 C0.66 0 1.32 0 2 0 C2.08 2.08 2.14 4.17 2.19 6.25 C2.22 7.41 2.26 8.57 2.29 9.77 C1.98 13.22 1.34 14.52 -1 17 C-1.66 16.67 -2.32 16.34 -3 16 C-2.68 15.29 -2.37 14.59 -2.04 13.86 C-0.95 10.87 -0.6 8.35 -0.38 5.19 C-0.26 3.72 -0.26 3.72 -0.15 2.23 C-0.1 1.49 -0.05 0.76 0 0 Z " fill="#C0EAF2" transform="translate(445,256)"/>
<path d="M0 0 C-0.66 1.32 -1.32 2.64 -2 4 C-3.65 4 -5.3 4 -7 4 C-7 6.97 -7 9.94 -7 13 C-7.33 13 -7.66 13 -8 13 C-8 9.37 -8 5.74 -8 2 C-8.66 1.67 -9.32 1.34 -10 1 C-6.59 0.22 -3.49 -0.1 0 0 Z " fill="#B8C4CC" transform="translate(382,512)"/>
<path d="M0 0 C0.66 0 1.32 0 2 0 C2 0.66 2 1.32 2 2 C11.24 2 20.48 2 30 2 C30 2.33 30 2.66 30 3 C20.1 3 10.2 3 0 3 C0 2.01 0 1.02 0 0 Z " fill="#90C4DB" transform="translate(481,452)"/>
<path d="M0 0 C-1.29 1.17 -2.58 2.34 -3.88 3.5 C-4.59 4.15 -5.31 4.8 -6.05 5.47 C-8 7 -8 7 -10 7 C-9.81 4.69 -9.81 4.69 -9 2 C-5.65 -0.72 -4.05 -1.26 0 0 Z " fill="#70B4D7" transform="translate(524,299)"/>
<path d="M0 0 C1.65 0 3.3 0 5 0 C5.38 1.66 5.71 3.32 6 5 C5 6 5 6 2.44 6.06 C1.23 6.03 1.23 6.03 0 6 C0 4.02 0 2.04 0 0 Z " fill="#E2ECF0" transform="translate(813,689)"/>
<path d="M0 0 C1.32 0 2.64 0 4 0 C4 1.32 4 2.64 4 4 C3.34 4 2.68 4 2 4 C1.34 5.65 0.68 7.3 0 9 C-0.99 8.34 -1.98 7.68 -3 7 C-2.69 6.4 -2.38 5.8 -2.06 5.19 C-0.9 2.91 -0.9 2.91 0 0 Z " fill="#DAEBF0" transform="translate(364,446)"/>
<path d="M0 0 C0.33 0 0.66 0 1 0 C1 9.57 1 19.14 1 29 C0.01 28.01 -0.98 27.02 -2 26 C-1.67 25.67 -1.34 25.34 -1 25 C-0.84 23.15 -0.75 21.29 -0.68 19.43 C-0.62 17.75 -0.62 17.75 -0.56 16.03 C-0.52 14.84 -0.48 13.66 -0.44 12.44 C-0.39 11.25 -0.35 10.06 -0.31 8.84 C-0.2 5.89 -0.1 2.95 0 0 Z " fill="#568EA8" transform="translate(452,530)"/>
<path d="M0 0 C0.66 0.33 1.32 0.66 2 1 C1.18 1.58 0.35 2.15 -0.5 2.75 C-2.68 4.86 -2.99 5.92 -3.33 9 C-3.31 12.02 -3.22 15 -3 18 C-5.73 15.27 -5.75 13.08 -6.11 9.33 C-5.94 5.71 -4.33 3.67 -2 1 C-1.34 0.67 -0.68 0.34 0 0 Z " fill="#5AAFB0" transform="translate(403,520)"/>
<path d="M0 0 C2.84 -0.08 5.64 -0.02 8.47 0.1 C9.46 0.12 10.45 0.15 11.47 0.17 C13.91 0.23 16.34 0.31 18.78 0.41 C18.78 0.74 18.78 1.07 18.78 1.41 C12.18 1.41 5.58 1.41 -1.22 1.41 C-1.55 2.73 -1.88 4.05 -2.22 5.41 C-3.21 5.41 -4.2 5.41 -5.22 5.41 C-4.17 2.31 -3.35 0.62 0 0 Z " fill="#6EA8BF" transform="translate(473.21630859375,408.58740234375)"/>
<path d="M0 0 C1.94 0.81 1.94 0.81 4 2 C4.33 2.99 4.66 3.98 5 5 C4.01 5.99 3.02 6.98 2 8 C0.68 6.68 -0.64 5.36 -2 4 C-1.34 2.68 -0.68 1.36 0 0 Z " fill="#E2E8ED" transform="translate(356,370)"/>
<path d="M0 0 C0.33 1.32 0.66 2.64 1 4 C-1.64 4.33 -4.28 4.66 -7 5 C-7 4.01 -7 3.02 -7 2 C-9.31 2 -11.62 2 -14 2 C-14 1.67 -14 1.34 -14 1 C-12.23 0.83 -10.46 0.67 -8.69 0.5 C-7.7 0.41 -6.72 0.31 -5.7 0.22 C-3 0 -3 0 0 0 Z " fill="#77CADF" transform="translate(517,239)"/>
<path d="M0 0 C0.33 0.66 0.66 1.32 1 2 C1.99 2 2.98 2 4 2 C2.55 5.83 0.57 7.12 -3 9 C-3 5.31 -1.72 3.22 0 0 Z " fill="#D7E1EA" transform="translate(410,484)"/>
<path d="M0 0 C0.99 0.33 1.98 0.66 3 1 C1.76 2.32 0.51 3.63 -0.75 4.94 C-1.45 5.67 -2.14 6.4 -2.86 7.15 C-5.01 9.01 -6.24 9.61 -9 10 C-3.6 1.92 -3.6 1.92 0 0 Z " fill="#70ACC3" transform="translate(455,390)"/>
<path d="M0 0 C1.17 0.1 1.17 0.1 2.37 0.2 C4.92 0.84 5.9 1.76 7.56 3.75 C7.07 3.59 6.57 3.42 6.06 3.25 C0.86 2.21 -4.32 2.47 -9.44 3.75 C-6.25 0.42 -4.63 -0.46 0 0 Z " fill="#56BCB5" transform="translate(410.4375,555.25)"/>
<path d="M0 0 C2.64 1.98 5.28 3.96 8 6 C7.67 6.99 7.34 7.98 7 9 C4 9 4 9 1 7 C0.31 3.38 0.31 3.38 0 0 Z " fill="#E0EAEF" transform="translate(601,505)"/>
<path d="M0 0 C0.33 0.66 0.66 1.32 1 2 C0.34 2 -0.32 2 -1 2 C-1 2.66 -1 3.32 -1 4 C0.32 4.33 1.64 4.66 3 5 C0.36 5.33 -2.28 5.66 -5 6 C-5.33 5.01 -5.66 4.02 -6 3 C-6.99 2.67 -7.98 2.34 -9 2 C-6.03 1.34 -3.06 0.68 0 0 Z " fill="#CBD6DB" transform="translate(619,298)"/>
<path d="M0 0 C6.27 0 12.54 0 19 0 C19.33 1.32 19.66 2.64 20 4 C19.01 4 18.02 4 17 4 C17 3.01 17 2.02 17 1 C11.39 1 5.78 1 0 1 C0 0.67 0 0.34 0 0 Z " fill="#B3C3D5" transform="translate(411,483)"/>
<path d="M0 0 C0.99 0.66 1.98 1.32 3 2 C2.2 2.47 1.39 2.95 0.56 3.44 C-2.99 6.99 -2.89 10.14 -3 15 C-3.66 14.34 -4.32 13.68 -5 13 C-4.81 7.26 -4.12 4.25 0 0 Z " fill="#63BBBD" transform="translate(306,438)"/>
<path d="M0 0 C0 0.99 0 1.98 0 3 C-2.34 5.04 -2.34 5.04 -5.38 7.19 C-6.37 7.9 -7.37 8.62 -8.4 9.36 C-11 11 -11 11 -13 11 C-11.74 7.21 -10.48 6.86 -7.06 4.94 C-3.28 2.8 -3.28 2.8 0 0 Z " fill="#E6FEFE" transform="translate(548,407)"/>
<path d="M0 0 C0 1.65 0 3.3 0 5 C-3.33 6.33 -6.67 7.67 -10 9 C-9.07 7.87 -8.13 6.75 -7.19 5.62 C-6.67 5 -6.14 4.37 -5.61 3.73 C-2.14 0 -2.14 0 0 0 Z " fill="#7AC9D5" transform="translate(415,254)"/>
<path d="M0 0 C5.62 -0.25 5.62 -0.25 9 2 C8.67 3.32 8.34 4.64 8 6 C8 5.34 8 4.68 8 4 C5.36 3.34 2.72 2.68 0 2 C-0.33 2.99 -0.66 3.98 -1 5 C-0.67 3.35 -0.34 1.7 0 0 Z " fill="#303C44" transform="translate(812,686)"/>
<path d="M0 0 C-3.01 3.01 -5.82 2.6 -10 3 C-10 2.01 -10 1.02 -10 0 C-6.31 -1.23 -3.79 -0.64 0 0 Z " fill="#8ADEF3" transform="translate(527,239)"/>
<path d="M0 0 C1.02 0.98 2.02 1.98 3 3 C3 3.33 3 3.66 3 4 C-3.6 4 -10.2 4 -17 4 C-17 3.67 -17 3.34 -17 3 C-15.86 2.95 -14.71 2.9 -13.54 2.85 C-12.04 2.78 -10.55 2.7 -9.06 2.62 C-8.31 2.59 -7.55 2.56 -6.78 2.53 C-4.84 2.43 -2.92 2.22 -1 2 C-0.67 1.34 -0.34 0.68 0 0 Z " fill="#E4EAEF" transform="translate(486,760)"/>
<path d="M0 0 C0.33 0.99 0.66 1.98 1 3 C3.5 4.22 3.5 4.22 6 5 C4.68 6.32 3.36 7.64 2 9 C1.67 8.01 1.34 7.02 1 6 C0.01 5.34 -0.98 4.68 -2 4 C-1.34 2.68 -0.68 1.36 0 0 Z " fill="#90BCCE" transform="translate(358,456)"/>
<path d="M0 0 C5.44 1.49 5.44 1.49 11 3 C11 3.66 11 4.32 11 5 C11.66 5 12.32 5 13 5 C13.33 4.34 13.66 3.68 14 3 C14 3.99 14 4.98 14 6 C8.29 5.53 4.84 4.06 0 1 C0 0.67 0 0.34 0 0 Z " fill="#B6DAE9" transform="translate(439,426)"/>
<path d="M0 0 C0.66 0.33 1.32 0.66 2 1 C1.48 1.41 0.97 1.82 0.44 2.25 C-0.04 2.83 -0.51 3.4 -1 4 C-0.77 6.16 -0.77 6.16 0 8 C-0.99 8.5 -0.99 8.5 -2 9 C-3.32 8.01 -4.64 7.02 -6 6 C-4.02 4.02 -2.04 2.04 0 0 Z " fill="#D7E5E9" transform="translate(626,338)"/>
<path d="M0 0 C0.33 0 0.66 0 1 0 C1.17 1.44 1.33 2.87 1.5 4.31 C1.59 5.11 1.69 5.91 1.78 6.74 C2 9 2 9 2 12 C1.01 12 0.02 12 -1 12 C-1.03 10.56 -1.05 9.13 -1.06 7.69 C-1.07 6.89 -1.09 6.09 -1.1 5.26 C-1 3 -1 3 0 0 Z " fill="#70BCC4" transform="translate(577,256)"/>
<path d="M0 0 C3.63 0 7.26 0 11 0 C11 0.33 11 0.66 11 1 C9.42 1.53 7.84 2.05 6.25 2.56 C5.37 2.85 4.49 3.14 3.58 3.44 C0.92 4.02 -0.47 3.89 -3 3 C-2.01 3 -1.02 3 0 3 C0 2.01 0 1.02 0 0 Z " fill="#71C8D7" transform="translate(474,239)"/>
<path d="M0 0 C0.66 0.33 1.32 0.66 2 1 C0.87 4.29 0.01 5 -3.12 6.75 C-4.55 7.37 -4.55 7.37 -6 8 C-6.33 7.01 -6.66 6.02 -7 5 C-2.25 2 -2.25 2 0 2 C0 1.34 0 0.68 0 0 Z " fill="#83D1E2" transform="translate(540,229)"/>
<path d="M0 0 C0 0.33 0 0.66 0 1 C-1.09 1.12 -2.19 1.25 -3.31 1.38 C-7.07 1.75 -7.07 1.75 -10 4 C-11.66 4.38 -13.32 4.73 -15 5 C-10.68 -0.76 -6.92 -0.61 0 0 Z " fill="#54A9AA" transform="translate(589,519)"/>
<path d="M0 0 C2.31 0.33 4.62 0.66 7 1 C7.33 1.99 7.66 2.98 8 4 C5.69 4 3.38 4 1 4 C0.67 2.68 0.34 1.36 0 0 Z " fill="#475B72" transform="translate(430,483)"/>
<path d="M0 0 C0 1.32 0 2.64 0 4 C-1.98 4.33 -3.96 4.66 -6 5 C-6.33 4.34 -6.66 3.68 -7 3 C-4.5 -0 -4.26 0 0 0 Z " fill="#A7FDFE" transform="translate(551,412)"/>
<path d="M0 0 C2.48 0.99 2.48 0.99 5 2 C4.01 2.5 4.01 2.5 3 3 C2.84 3.82 2.67 4.65 2.5 5.5 C2.34 6.32 2.17 7.15 2 8 C1.01 8.5 1.01 8.5 0 9 C0 6.03 0 3.06 0 0 Z " fill="#78DADF" transform="translate(578,255)"/>
<path d="M0 0 C0 3 0 3 -1 5 C-2.66 5.68 -4.33 6.35 -6 7 C-6.66 7.66 -7.32 8.32 -8 9 C-8 8.01 -8 7.02 -8 6 C-6.25 4.39 -6.25 4.39 -4 2.81 C-3.26 2.28 -2.51 1.75 -1.75 1.21 C-1.17 0.81 -0.6 0.41 0 0 Z " fill="#84CCE2" transform="translate(432,195)"/>
<path d="M0 0 C0 3 0 3 -1 6 C-0.34 6 0.32 6 1 6 C1 6.66 1 7.32 1 8 C-0.98 8 -2.96 8 -5 8 C-3.63 5.05 -2.01 2.56 0 0 Z " fill="#ACC8D9" transform="translate(353,463)"/>
<path d="M0 0 C1.38 1.29 2.71 2.63 4 4 C4 4.66 4 5.32 4 6 C0.25 7.12 0.25 7.12 -2 6 C-2 5.01 -2 4.02 -2 3 C-1.34 3 -0.68 3 0 3 C0 2.01 0 1.02 0 0 Z " fill="#C9DEEC" transform="translate(631,449)"/>
<path d="M0 0 C0.99 0 1.98 0 3 0 C1.63 2.95 0.12 5.52 -2 8 C-2.66 8 -3.32 8 -4 8 C-2.25 2.25 -2.25 2.25 0 0 Z " fill="#5FBDBD" transform="translate(669,438)"/>
<path d="M0 0 C1.05 0.25 2.1 0.5 3.19 0.75 C1.19 1.75 -0.81 2.75 -2.81 3.75 C-2.81 3.09 -2.81 2.43 -2.81 1.75 C-4.13 2.74 -5.45 3.73 -6.81 4.75 C-7.47 4.42 -8.13 4.09 -8.81 3.75 C-5.66 0.6 -4.56 -0.3 0 0 Z " fill="#63C2BF" transform="translate(666.8125,360.25)"/>
<path d="M0 0 C1.32 0.33 2.64 0.66 4 1 C3.62 2.94 3.62 2.94 3 5 C2.01 5.5 2.01 5.5 1 6 C0.67 5.01 0.34 4.02 0 3 C-1.98 3.99 -1.98 3.99 -4 5 C-2.68 3.35 -1.36 1.7 0 0 Z " fill="#D2DDDF" transform="translate(632,374)"/>
<path d="M0 0 C0 3 0 3 -1.53 4.82 C-2.18 5.44 -2.83 6.05 -3.5 6.69 C-4.15 7.31 -4.8 7.93 -5.47 8.57 C-5.97 9.04 -6.48 9.52 -7 10 C-7.99 9.67 -8.98 9.34 -10 9 C-6.7 6.03 -3.4 3.06 0 0 Z " fill="#1A2D3F" transform="translate(598,317)"/>
<path d="M0 0 C0.66 0.33 1.32 0.66 2 1 C1.69 3.38 1.69 3.38 1 6 C0.01 6.66 -0.98 7.32 -2 8 C-2.33 7.01 -2.66 6.02 -3 5 C-1.56 2.31 -1.56 2.31 0 0 Z " fill="#D7E5E8" transform="translate(400,496)"/>
<path d="M0 0 C-3.64 3.34 -7.29 3.98 -12 5 C-8.36 1 -5.43 -0.3 0 0 Z " fill="#67A9C4" transform="translate(525,329)"/>
<path d="M0 0 C0.27 0.64 0.54 1.28 0.81 1.94 C1.89 4.33 1.89 4.33 5 5 C3.02 5.66 1.04 6.32 -1 7 C-0.67 4.69 -0.34 2.38 0 0 Z " fill="#7EC5D9" transform="translate(415,214)"/>
<path d="M0 0 C0.33 0.99 0.66 1.98 1 3 C-1.97 5.48 -1.97 5.48 -5 8 C-5 5 -5 5 -2.5 2.31 C-1.68 1.55 -0.85 0.79 0 0 Z " fill="#213042" transform="translate(395,507)"/>
<path d="M0 0 C0.33 0.66 0.66 1.32 1 2 C1.99 2 2.98 2 4 2 C3.34 3.32 2.68 4.64 2 6 C-0.48 5.01 -0.48 5.01 -3 4 C-2.01 2.68 -1.02 1.36 0 0 Z " fill="#B6C8D4" transform="translate(375,476)"/>
<path d="M0 0 C0.99 0 1.98 0 3 0 C2.67 1.65 2.34 3.3 2 5 C0.68 4.67 -0.64 4.34 -2 4 C-1.34 2.68 -0.68 1.36 0 0 Z " fill="#C4EDF2" transform="translate(484,429)"/>
<path d="M0 0 C3.16 1.37 3.99 1.99 6 5 C2.42 5 0.95 3.91 -2 2 C-1.34 1.34 -0.68 0.68 0 0 Z " fill="#89A2B2" transform="translate(467,353)"/>
<path d="M0 0 C0 2.97 0 5.94 0 9 C-0.33 9 -0.66 9 -1 9 C-1 7.35 -1 5.7 -1 4 C-2.65 3.67 -4.3 3.34 -6 3 C-1.5 0 -1.5 0 0 0 Z " fill="#315E78" transform="translate(552,328)"/>
<path d="M0 0 C0.66 0.33 1.32 0.66 2 1 C1.01 1.33 0.02 1.66 -1 2 C-1.73 4.02 -1.73 4.02 -2 6 C-1.34 6.33 -0.68 6.66 0 7 C-1.65 7 -3.3 7 -5 7 C-3.71 4.12 -2.34 2.13 0 0 Z " fill="#547E9B" transform="translate(477,508)"/>
<path d="M0 0 C0.66 0 1.32 0 2 0 C2.33 0.99 2.66 1.98 3 3 C2.67 3.66 2.34 4.32 2 5 C3.65 5 5.3 5 7 5 C7 5.33 7 5.66 7 6 C4.12 6.12 4.12 6.12 1 6 C0.34 5.34 -0.32 4.68 -1 4 C-0.62 1.88 -0.62 1.88 0 0 Z " fill="#B4EAF6" transform="translate(487,429)"/>
<path d="M0 0 C1.81 0.12 1.81 0.12 4 1 C5.75 4.06 5.75 4.06 7 7 C3.17 5.55 1.88 3.57 0 0 Z " fill="#4D7F96" transform="translate(477,346)"/>
<path d="M0 0 C0.33 1.32 0.66 2.64 1 4 C0.01 4.66 -0.98 5.32 -2 6 C-2.66 5.34 -3.32 4.68 -4 4 C-3.67 3.01 -3.34 2.02 -3 1 C-2.34 1.33 -1.68 1.66 -1 2 C-0.67 1.34 -0.34 0.68 0 0 Z " fill="#CED7DF" transform="translate(609,511)"/>
<path d="M0 0 C-2.26 2.26 -4 2.98 -7 4 C-7.99 4 -8.98 4 -10 4 C-6.59 0.88 -4.68 -0.54 0 0 Z " fill="#E3EFF6" transform="translate(417,405)"/>
<path d="M0 0 C2.97 0.33 5.94 0.66 9 1 C8.67 1.66 8.34 2.32 8 3 C5.66 2.74 3.32 2.41 1 2 C0.67 1.34 0.34 0.68 0 0 Z " fill="#518B9F" transform="translate(519,369)"/>
</svg>
