<svg width="220" height="236" viewBox="0 0 220 236" xmlns="http://www.w3.org/2000/svg" role="img" aria-label="BARTEK LLC">
<path d="M 16 40 L 16 16 L 40 16" fill="none" stroke="#2c6fbb" stroke-width="3.5" stroke-linecap="round" stroke-linejoin="round"/><circle cx="16" cy="16" r="3" fill="#2bd4c0"/><path d="M 204 40 L 204 16 L 180 16" fill="none" stroke="#2c6fbb" stroke-width="3.5" stroke-linecap="round" stroke-linejoin="round"/><circle cx="204" cy="16" r="3" fill="#2bd4c0"/><path d="M 16 196 L 16 220 L 40 220" fill="none" stroke="#2c6fbb" stroke-width="3.5" stroke-linecap="round" stroke-linejoin="round"/><circle cx="16" cy="220" r="3" fill="#2bd4c0"/><path d="M 204 196 L 204 220 L 180 220" fill="none" stroke="#2c6fbb" stroke-width="3.5" stroke-linecap="round" stroke-linejoin="round"/><circle cx="204" cy="220" r="3" fill="#2bd4c0"/><line x1="30" y1="72" x2="30" y2="164" stroke="#2c6fbb" stroke-width="4" stroke-linecap="round"/><circle cx="30" cy="86" r="4" fill="#2bd4c0"/><line x1="30" y1="86" x2="46" y2="86" stroke="#2c6fbb" stroke-width="3" stroke-linecap="round"/><circle cx="46" cy="86" r="2.4" fill="#2bd4c0"/><circle cx="30" cy="128.0" r="4" fill="#2bd4c0"/><line x1="30" y1="128.0" x2="46" y2="128.0" stroke="#2c6fbb" stroke-width="3" stroke-linecap="round"/><circle cx="46" cy="128.0" r="2.4" fill="#2bd4c0"/><circle cx="30" cy="150" r="4" fill="#2bd4c0"/><line x1="30" y1="150" x2="46" y2="150" stroke="#2c6fbb" stroke-width="3" stroke-linecap="round"/><circle cx="46" cy="150" r="2.4" fill="#2bd4c0"/><rect x="27.0" y="69.0" width="6" height="6" fill="#2bd4c0"/><rect x="27.0" y="161.0" width="6" height="6" fill="#2bd4c0"/><line x1="190" y1="72" x2="190" y2="164" stroke="#2c6fbb" stroke-width="4" stroke-linecap="round"/><circle cx="190" cy="86" r="4" fill="#2bd4c0"/><line x1="190" y1="86" x2="174" y2="86" stroke="#2c6fbb" stroke-width="3" stroke-linecap="round"/><circle cx="174" cy="86" r="2.4" fill="#2bd4c0"/><circle cx="190" cy="128.0" r="4" fill="#2bd4c0"/><line x1="190" y1="128.0" x2="174" y2="128.0" stroke="#2c6fbb" stroke-width="3" stroke-linecap="round"/><circle cx="174" cy="128.0" r="2.4" fill="#2bd4c0"/><circle cx="190" cy="150" r="4" fill="#2bd4c0"/><line x1="190" y1="150" x2="174" y2="150" stroke="#2c6fbb" stroke-width="3" stroke-linecap="round"/><circle cx="174" cy="150" r="2.4" fill="#2bd4c0"/><rect x="187.0" y="69.0" width="6" height="6" fill="#2bd4c0"/><rect x="187.0" y="161.0" width="6" height="6" fill="#2bd4c0"/><line x1="110" y1="60" x2="110" y2="74" stroke="#2c6fbb" stroke-width="4" stroke-linecap="round"/><path d="M 70 74 L 150 74" stroke="#2c6fbb" stroke-width="3" fill="none" stroke-linecap="round"/><circle cx="70" cy="74" r="4" fill="#2bd4c0"/><circle cx="150" cy="74" r="4" fill="#2bd4c0"/><line x1="110" y1="196" x2="110" y2="182" stroke="#2c6fbb" stroke-width="4" stroke-linecap="round"/><path d="M 70 182 L 150 182" stroke="#2c6fbb" stroke-width="3" fill="none" stroke-linecap="round"/><circle cx="70" cy="182" r="4" fill="#2bd4c0"/><circle cx="150" cy="182" r="4" fill="#2bd4c0"/>
<line x1="123.0" y1="65.7" x2="97.0" y2="65.7" stroke="#2c6fbb" stroke-width="4" opacity="0.85"/><line x1="136.0" y1="77.0" x2="84.0" y2="77.0" stroke="#2c6fbb" stroke-width="4" opacity="0.85"/><line x1="123.0" y1="88.3" x2="97.0" y2="88.3" stroke="#2c6fbb" stroke-width="4" opacity="0.85"/><line x1="97.0" y1="99.7" x2="123.0" y2="99.7" stroke="#2bd4c0" stroke-width="4" opacity="0.85"/><line x1="84.0" y1="111.0" x2="136.0" y2="111.0" stroke="#2bd4c0" stroke-width="4" opacity="0.85"/><line x1="97.0" y1="122.3" x2="123.0" y2="122.3" stroke="#2bd4c0" stroke-width="4" opacity="0.85"/><line x1="123.0" y1="133.7" x2="97.0" y2="133.7" stroke="#2c6fbb" stroke-width="4" opacity="0.85"/><line x1="136.0" y1="145.0" x2="84.0" y2="145.0" stroke="#2c6fbb" stroke-width="4" opacity="0.85"/><line x1="123.0" y1="156.3" x2="97.0" y2="156.3" stroke="#2c6fbb" stroke-width="4" opacity="0.85"/><line x1="97.0" y1="167.7" x2="123.0" y2="167.7" stroke="#2bd4c0" stroke-width="4" opacity="0.85"/><line x1="84.0" y1="179.0" x2="136.0" y2="179.0" stroke="#2bd4c0" stroke-width="4" opacity="0.85"/><line x1="97.0" y1="190.3" x2="123.0" y2="190.3" stroke="#2bd4c0" stroke-width="4" opacity="0.85"/><path d="M 110.0 60.0 L 105.5 61.9 L 101.1 63.8 L 97.0 65.7 L 93.3 67.6 L 90.1 69.4 L 87.5 71.3 L 85.6 73.2 L 84.4 75.1 L 84.0 77.0 L 84.4 78.9 L 85.6 80.8 L 87.5 82.7 L 90.1 84.6 L 93.3 86.4 L 97.0 88.3 L 101.1 90.2 L 105.5 92.1 L 110.0 94.0 L 114.5 95.9 L 118.9 97.8 L 123.0 99.7 L 126.7 101.6 L 129.9 103.4 L 132.5 105.3 L 134.4 107.2 L 135.6 109.1 L 136.0 111.0 L 135.6 112.9 L 134.4 114.8 L 132.5 116.7 L 129.9 118.6 L 126.7 120.4 L 123.0 122.3 L 118.9 124.2 L 114.5 126.1 L 110.0 128.0 L 105.5 129.9 L 101.1 131.8 L 97.0 133.7 L 93.3 135.6 L 90.1 137.4 L 87.5 139.3 L 85.6 141.2 L 84.4 143.1 L 84.0 145.0 L 84.4 146.9 L 85.6 148.8 L 87.5 150.7 L 90.1 152.6 L 93.3 154.4 L 97.0 156.3 L 101.1 158.2 L 105.5 160.1 L 110.0 162.0 L 114.5 163.9 L 118.9 165.8 L 123.0 167.7 L 126.7 169.6 L 129.9 171.4 L 132.5 173.3 L 134.4 175.2 L 135.6 177.1 L 136.0 179.0 L 135.6 180.9 L 134.4 182.8 L 132.5 184.7 L 129.9 186.6 L 126.7 188.4 L 123.0 190.3 L 118.9 192.2 L 114.5 194.1 L 110.0 196.0" fill="none" stroke="#2bd4c0" stroke-width="8" stroke-linecap="round" stroke-linejoin="round"/><path d="M 110.0 60.0 L 114.5 61.9 L 118.9 63.8 L 123.0 65.7 L 126.7 67.6 L 129.9 69.4 L 132.5 71.3 L 134.4 73.2 L 135.6 75.1 L 136.0 77.0 L 135.6 78.9 L 134.4 80.8 L 132.5 82.7 L 129.9 84.6 L 126.7 86.4 L 123.0 88.3 L 118.9 90.2 L 114.5 92.1 L 110.0 94.0 L 105.5 95.9 L 101.1 97.8 L 97.0 99.7 L 93.3 101.6 L 90.1 103.4 L 87.5 105.3 L 85.6 107.2 L 84.4 109.1 L 84.0 111.0 L 84.4 112.9 L 85.6 114.8 L 87.5 116.7 L 90.1 118.6 L 93.3 120.4 L 97.0 122.3 L 101.1 124.2 L 105.5 126.1 L 110.0 128.0 L 114.5 129.9 L 118.9 131.8 L 123.0 133.7 L 126.7 135.6 L 129.9 137.4 L 132.5 139.3 L 134.4 141.2 L 135.6 143.1 L 136.0 145.0 L 135.6 146.9 L 134.4 148.8 L 132.5 150.7 L 129.9 152.6 L 126.7 154.4 L 123.0 156.3 L 118.9 158.2 L 114.5 160.1 L 110.0 162.0 L 105.5 163.9 L 101.1 165.8 L 97.0 167.7 L 93.3 169.6 L 90.1 171.4 L 87.5 173.3 L 85.6 175.2 L 84.4 177.1 L 84.0 179.0 L 84.4 180.9 L 85.6 182.8 L 87.5 184.7 L 90.1 186.6 L 93.3 188.4 L 97.0 190.3 L 101.1 192.2 L 105.5 194.1 L 110.0 196.0" fill="none" stroke="#2c6fbb" stroke-width="8" stroke-linecap="round" stroke-linejoin="round"/>
</svg>
