<svg width="180" height="324" viewBox="0 0 180 324" xmlns="http://www.w3.org/2000/svg" shape-rendering="crispEdges" role="img" aria-label="BARTEK">
<rect x="23" y="143" width="14" height="14" fill="#24304a"/>
<rect x="23" y="155" width="14" height="14" fill="#24304a"/>
<rect x="23" y="167" width="14" height="14" fill="#24304a"/>
<rect x="23" y="203" width="14" height="14" fill="#24304a"/>
<rect x="23" y="215" width="14" height="14" fill="#24304a"/>
<rect x="23" y="227" width="14" height="14" fill="#24304a"/>
<rect x="23" y="263" width="14" height="14" fill="#24304a"/>
<rect x="23" y="275" width="14" height="14" fill="#24304a"/>
<rect x="23" y="287" width="14" height="14" fill="#24304a"/>
<rect x="35" y="47" width="14" height="14" fill="#24304a"/>
<rect x="35" y="59" width="14" height="14" fill="#24304a"/>
<rect x="35" y="71" width="14" height="14" fill="#24304a"/>
<rect x="35" y="143" width="14" height="14" fill="#24304a"/>
<rect x="35" y="167" width="14" height="14" fill="#24304a"/>
<rect x="35" y="203" width="14" height="14" fill="#24304a"/>
<rect x="35" y="227" width="14" height="14" fill="#24304a"/>
<rect x="35" y="263" width="14" height="14" fill="#24304a"/>
<rect x="35" y="287" width="14" height="14" fill="#24304a"/>
<rect x="47" y="11" width="14" height="14" fill="#24304a"/>
<rect x="47" y="23" width="14" height="14" fill="#24304a"/>
<rect x="47" y="131" width="14" height="14" fill="#24304a"/>
<rect x="47" y="143" width="14" height="14" fill="#24304a"/>
<rect x="47" y="167" width="14" height="14" fill="#24304a"/>
<rect x="47" y="179" width="14" height="14" fill="#24304a"/>
<rect x="47" y="191" width="14" height="14" fill="#24304a"/>
<rect x="47" y="203" width="14" height="14" fill="#24304a"/>
<rect x="47" y="227" width="14" height="14" fill="#24304a"/>
<rect x="47" y="239" width="14" height="14" fill="#24304a"/>
<rect x="47" y="251" width="14" height="14" fill="#24304a"/>
<rect x="47" y="263" width="14" height="14" fill="#24304a"/>
<rect x="47" y="287" width="14" height="14" fill="#24304a"/>
<rect x="47" y="299" width="14" height="14" fill="#24304a"/>
<rect x="59" y="23" width="14" height="14" fill="#24304a"/>
<rect x="59" y="35" width="14" height="14" fill="#24304a"/>
<rect x="59" y="47" width="14" height="14" fill="#24304a"/>
<rect x="59" y="59" width="14" height="14" fill="#24304a"/>
<rect x="59" y="71" width="14" height="14" fill="#24304a"/>
<rect x="59" y="83" width="14" height="14" fill="#24304a"/>
<rect x="59" y="95" width="14" height="14" fill="#24304a"/>
<rect x="59" y="131" width="14" height="14" fill="#24304a"/>
<rect x="59" y="179" width="14" height="14" fill="#24304a"/>
<rect x="59" y="191" width="14" height="14" fill="#24304a"/>
<rect x="59" y="239" width="14" height="14" fill="#24304a"/>
<rect x="59" y="251" width="14" height="14" fill="#24304a"/>
<rect x="59" y="299" width="14" height="14" fill="#24304a"/>
<rect x="71" y="35" width="14" height="14" fill="#24304a"/>
<rect x="71" y="47" width="14" height="14" fill="#24304a"/>
<rect x="71" y="71" width="14" height="14" fill="#24304a"/>
<rect x="71" y="95" width="14" height="14" fill="#24304a"/>
<rect x="71" y="131" width="14" height="14" fill="#24304a"/>
<rect x="71" y="179" width="14" height="14" fill="#24304a"/>
<rect x="71" y="191" width="14" height="14" fill="#24304a"/>
<rect x="71" y="239" width="14" height="14" fill="#24304a"/>
<rect x="71" y="251" width="14" height="14" fill="#24304a"/>
<rect x="71" y="299" width="14" height="14" fill="#24304a"/>
<rect x="83" y="35" width="14" height="14" fill="#24304a"/>
<rect x="83" y="59" width="14" height="14" fill="#24304a"/>
<rect x="83" y="83" width="14" height="14" fill="#24304a"/>
<rect x="83" y="107" width="14" height="14" fill="#24304a"/>
<rect x="83" y="119" width="14" height="14" fill="#24304a"/>
<rect x="83" y="143" width="14" height="14" fill="#24304a"/>
<rect x="83" y="155" width="14" height="14" fill="#24304a"/>
<rect x="83" y="167" width="14" height="14" fill="#24304a"/>
<rect x="83" y="203" width="14" height="14" fill="#24304a"/>
<rect x="83" y="215" width="14" height="14" fill="#24304a"/>
<rect x="83" y="227" width="14" height="14" fill="#24304a"/>
<rect x="83" y="263" width="14" height="14" fill="#24304a"/>
<rect x="83" y="275" width="14" height="14" fill="#24304a"/>
<rect x="83" y="287" width="14" height="14" fill="#24304a"/>
<rect x="83" y="299" width="14" height="14" fill="#24304a"/>
<rect x="95" y="35" width="14" height="14" fill="#24304a"/>
<rect x="95" y="47" width="14" height="14" fill="#24304a"/>
<rect x="95" y="71" width="14" height="14" fill="#24304a"/>
<rect x="95" y="95" width="14" height="14" fill="#24304a"/>
<rect x="95" y="131" width="14" height="14" fill="#24304a"/>
<rect x="95" y="179" width="14" height="14" fill="#24304a"/>
<rect x="95" y="191" width="14" height="14" fill="#24304a"/>
<rect x="95" y="239" width="14" height="14" fill="#24304a"/>
<rect x="95" y="251" width="14" height="14" fill="#24304a"/>
<rect x="95" y="299" width="14" height="14" fill="#24304a"/>
<rect x="107" y="23" width="14" height="14" fill="#24304a"/>
<rect x="107" y="35" width="14" height="14" fill="#24304a"/>
<rect x="107" y="47" width="14" height="14" fill="#24304a"/>
<rect x="107" y="59" width="14" height="14" fill="#24304a"/>
<rect x="107" y="71" width="14" height="14" fill="#24304a"/>
<rect x="107" y="83" width="14" height="14" fill="#24304a"/>
<rect x="107" y="95" width="14" height="14" fill="#24304a"/>
<rect x="107" y="131" width="14" height="14" fill="#24304a"/>
<rect x="107" y="179" width="14" height="14" fill="#24304a"/>
<rect x="107" y="191" width="14" height="14" fill="#24304a"/>
<rect x="107" y="239" width="14" height="14" fill="#24304a"/>
<rect x="107" y="251" width="14" height="14" fill="#24304a"/>
<rect x="107" y="299" width="14" height="14" fill="#24304a"/>
<rect x="119" y="11" width="14" height="14" fill="#24304a"/>
<rect x="119" y="23" width="14" height="14" fill="#24304a"/>
<rect x="119" y="131" width="14" height="14" fill="#24304a"/>
<rect x="119" y="143" width="14" height="14" fill="#24304a"/>
<rect x="119" y="167" width="14" height="14" fill="#24304a"/>
<rect x="119" y="179" width="14" height="14" fill="#24304a"/>
<rect x="119" y="191" width="14" height="14" fill="#24304a"/>
<rect x="119" y="203" width="14" height="14" fill="#24304a"/>
<rect x="119" y="227" width="14" height="14" fill="#24304a"/>
<rect x="119" y="239" width="14" height="14" fill="#24304a"/>
<rect x="119" y="251" width="14" height="14" fill="#24304a"/>
<rect x="119" y="263" width="14" height="14" fill="#24304a"/>
<rect x="119" y="287" width="14" height="14" fill="#24304a"/>
<rect x="119" y="299" width="14" height="14" fill="#24304a"/>
<rect x="131" y="47" width="14" height="14" fill="#24304a"/>
<rect x="131" y="59" width="14" height="14" fill="#24304a"/>
<rect x="131" y="71" width="14" height="14" fill="#24304a"/>
<rect x="131" y="143" width="14" height="14" fill="#24304a"/>
<rect x="131" y="167" width="14" height="14" fill="#24304a"/>
<rect x="131" y="203" width="14" height="14" fill="#24304a"/>
<rect x="131" y="227" width="14" height="14" fill="#24304a"/>
<rect x="131" y="263" width="14" height="14" fill="#24304a"/>
<rect x="131" y="287" width="14" height="14" fill="#24304a"/>
<rect x="143" y="143" width="14" height="14" fill="#24304a"/>
<rect x="143" y="155" width="14" height="14" fill="#24304a"/>
<rect x="143" y="167" width="14" height="14" fill="#24304a"/>
<rect x="143" y="203" width="14" height="14" fill="#24304a"/>
<rect x="143" y="215" width="14" height="14" fill="#24304a"/>
<rect x="143" y="227" width="14" height="14" fill="#24304a"/>
<rect x="143" y="263" width="14" height="14" fill="#24304a"/>
<rect x="143" y="275" width="14" height="14" fill="#24304a"/>
<rect x="143" y="287" width="14" height="14" fill="#24304a"/>
<rect x="48" y="12" width="12" height="12" fill="#e0a92e"/>
<rect x="120" y="12" width="12" height="12" fill="#e0a92e"/>
<rect x="48" y="24" width="12" height="12" fill="#e0a92e"/>
<rect x="60" y="24" width="12" height="12" fill="#e0a92e"/>
<rect x="108" y="24" width="12" height="12" fill="#e0a92e"/>
<rect x="120" y="24" width="12" height="12" fill="#e0a92e"/>
<rect x="60" y="36" width="12" height="12" fill="#e0a92e"/>
<rect x="72" y="36" width="12" height="12" fill="#e0a92e"/>
<rect x="84" y="36" width="12" height="12" fill="#e0a92e"/>
<rect x="96" y="36" width="12" height="12" fill="#e0a92e"/>
<rect x="108" y="36" width="12" height="12" fill="#e0a92e"/>
<rect x="36" y="48" width="12" height="12" fill="#e0a92e"/>
<rect x="60" y="48" width="12" height="12" fill="#e0a92e"/>
<rect x="72" y="48" width="12" height="12" fill="#e0a92e"/>
<rect x="84" y="48" width="12" height="12" fill="#e0a92e"/>
<rect x="96" y="48" width="12" height="12" fill="#e0a92e"/>
<rect x="108" y="48" width="12" height="12" fill="#e0a92e"/>
<rect x="132" y="48" width="12" height="12" fill="#e0a92e"/>
<rect x="36" y="60" width="12" height="12" fill="#e0a92e"/>
<rect x="60" y="60" width="12" height="12" fill="#e0a92e"/>
<rect x="84" y="60" width="12" height="12" fill="#e0a92e"/>
<rect x="108" y="60" width="12" height="12" fill="#e0a92e"/>
<rect x="132" y="60" width="12" height="12" fill="#e0a92e"/>
<rect x="36" y="72" width="12" height="12" fill="#e0a92e"/>
<rect x="60" y="72" width="12" height="12" fill="#e0a92e"/>
<rect x="72" y="72" width="12" height="12" fill="#e0a92e"/>
<rect x="84" y="72" width="12" height="12" fill="#e0a92e"/>
<rect x="96" y="72" width="12" height="12" fill="#e0a92e"/>
<rect x="108" y="72" width="12" height="12" fill="#e0a92e"/>
<rect x="132" y="72" width="12" height="12" fill="#e0a92e"/>
<rect x="60" y="84" width="12" height="12" fill="#e0a92e"/>
<rect x="84" y="84" width="12" height="12" fill="#e0a92e"/>
<rect x="108" y="84" width="12" height="12" fill="#e0a92e"/>
<rect x="60" y="96" width="12" height="12" fill="#e0a92e"/>
<rect x="72" y="96" width="12" height="12" fill="#e0a92e"/>
<rect x="84" y="96" width="12" height="12" fill="#e0a92e"/>
<rect x="96" y="96" width="12" height="12" fill="#e0a92e"/>
<rect x="108" y="96" width="12" height="12" fill="#e0a92e"/>
<rect x="84" y="108" width="12" height="12" fill="#e0a92e"/>
<rect x="84" y="120" width="12" height="12" fill="#2bd4c0"/>
<rect x="84" y="132" width="12" height="12" fill="#3f8fe0"/>
<rect x="96" y="132" width="12" height="12" fill="#3f8fe0"/>
<rect x="108" y="132" width="12" height="12" fill="#3f8fe0"/>
<rect x="120" y="132" width="12" height="12" fill="#3f8fe0"/>
<rect x="48" y="132" width="12" height="12" fill="#2bd4c0"/>
<rect x="60" y="132" width="12" height="12" fill="#2bd4c0"/>
<rect x="72" y="132" width="12" height="12" fill="#2bd4c0"/>
<rect x="84" y="144" width="12" height="12" fill="#6f7fb0"/>
<rect x="120" y="144" width="12" height="12" fill="#3f8fe0"/>
<rect x="132" y="144" width="12" height="12" fill="#3f8fe0"/>
<rect x="144" y="144" width="12" height="12" fill="#3f8fe0"/>
<rect x="24" y="144" width="12" height="12" fill="#2bd4c0"/>
<rect x="36" y="144" width="12" height="12" fill="#2bd4c0"/>
<rect x="48" y="144" width="12" height="12" fill="#2bd4c0"/>
<rect x="84" y="156" width="12" height="12" fill="#6f7fb0"/>
<rect x="144" y="156" width="12" height="12" fill="#3f8fe0"/>
<rect x="24" y="156" width="12" height="12" fill="#2bd4c0"/>
<rect x="84" y="168" width="12" height="12" fill="#6f7fb0"/>
<rect x="120" y="168" width="12" height="12" fill="#3f8fe0"/>
<rect x="132" y="168" width="12" height="12" fill="#3f8fe0"/>
<rect x="144" y="168" width="12" height="12" fill="#3f8fe0"/>
<rect x="24" y="168" width="12" height="12" fill="#2bd4c0"/>
<rect x="36" y="168" width="12" height="12" fill="#2bd4c0"/>
<rect x="48" y="168" width="12" height="12" fill="#2bd4c0"/>
<rect x="84" y="180" width="12" height="12" fill="#2bd4c0"/>
<rect x="96" y="180" width="12" height="12" fill="#3f8fe0"/>
<rect x="108" y="180" width="12" height="12" fill="#3f8fe0"/>
<rect x="120" y="180" width="12" height="12" fill="#3f8fe0"/>
<rect x="48" y="180" width="12" height="12" fill="#2bd4c0"/>
<rect x="60" y="180" width="12" height="12" fill="#2bd4c0"/>
<rect x="72" y="180" width="12" height="12" fill="#2bd4c0"/>
<rect x="84" y="192" width="12" height="12" fill="#3f8fe0"/>
<rect x="48" y="192" width="12" height="12" fill="#3f8fe0"/>
<rect x="60" y="192" width="12" height="12" fill="#3f8fe0"/>
<rect x="72" y="192" width="12" height="12" fill="#3f8fe0"/>
<rect x="96" y="192" width="12" height="12" fill="#2bd4c0"/>
<rect x="108" y="192" width="12" height="12" fill="#2bd4c0"/>
<rect x="120" y="192" width="12" height="12" fill="#2bd4c0"/>
<rect x="84" y="204" width="12" height="12" fill="#6f7fb0"/>
<rect x="24" y="204" width="12" height="12" fill="#3f8fe0"/>
<rect x="36" y="204" width="12" height="12" fill="#3f8fe0"/>
<rect x="48" y="204" width="12" height="12" fill="#3f8fe0"/>
<rect x="120" y="204" width="12" height="12" fill="#2bd4c0"/>
<rect x="132" y="204" width="12" height="12" fill="#2bd4c0"/>
<rect x="144" y="204" width="12" height="12" fill="#2bd4c0"/>
<rect x="84" y="216" width="12" height="12" fill="#6f7fb0"/>
<rect x="24" y="216" width="12" height="12" fill="#3f8fe0"/>
<rect x="144" y="216" width="12" height="12" fill="#2bd4c0"/>
<rect x="84" y="228" width="12" height="12" fill="#6f7fb0"/>
<rect x="24" y="228" width="12" height="12" fill="#3f8fe0"/>
<rect x="36" y="228" width="12" height="12" fill="#3f8fe0"/>
<rect x="48" y="228" width="12" height="12" fill="#3f8fe0"/>
<rect x="120" y="228" width="12" height="12" fill="#2bd4c0"/>
<rect x="132" y="228" width="12" height="12" fill="#2bd4c0"/>
<rect x="144" y="228" width="12" height="12" fill="#2bd4c0"/>
<rect x="48" y="240" width="12" height="12" fill="#3f8fe0"/>
<rect x="60" y="240" width="12" height="12" fill="#3f8fe0"/>
<rect x="72" y="240" width="12" height="12" fill="#3f8fe0"/>
<rect x="84" y="240" width="12" height="12" fill="#2bd4c0"/>
<rect x="96" y="240" width="12" height="12" fill="#2bd4c0"/>
<rect x="108" y="240" width="12" height="12" fill="#2bd4c0"/>
<rect x="120" y="240" width="12" height="12" fill="#2bd4c0"/>
<rect x="84" y="252" width="12" height="12" fill="#3f8fe0"/>
<rect x="96" y="252" width="12" height="12" fill="#3f8fe0"/>
<rect x="108" y="252" width="12" height="12" fill="#3f8fe0"/>
<rect x="120" y="252" width="12" height="12" fill="#3f8fe0"/>
<rect x="48" y="252" width="12" height="12" fill="#2bd4c0"/>
<rect x="60" y="252" width="12" height="12" fill="#2bd4c0"/>
<rect x="72" y="252" width="12" height="12" fill="#2bd4c0"/>
<rect x="84" y="264" width="12" height="12" fill="#6f7fb0"/>
<rect x="120" y="264" width="12" height="12" fill="#3f8fe0"/>
<rect x="132" y="264" width="12" height="12" fill="#3f8fe0"/>
<rect x="144" y="264" width="12" height="12" fill="#3f8fe0"/>
<rect x="24" y="264" width="12" height="12" fill="#2bd4c0"/>
<rect x="36" y="264" width="12" height="12" fill="#2bd4c0"/>
<rect x="48" y="264" width="12" height="12" fill="#2bd4c0"/>
<rect x="84" y="276" width="12" height="12" fill="#6f7fb0"/>
<rect x="144" y="276" width="12" height="12" fill="#3f8fe0"/>
<rect x="24" y="276" width="12" height="12" fill="#2bd4c0"/>
<rect x="84" y="288" width="12" height="12" fill="#6f7fb0"/>
<rect x="120" y="288" width="12" height="12" fill="#3f8fe0"/>
<rect x="132" y="288" width="12" height="12" fill="#3f8fe0"/>
<rect x="144" y="288" width="12" height="12" fill="#3f8fe0"/>
<rect x="24" y="288" width="12" height="12" fill="#2bd4c0"/>
<rect x="36" y="288" width="12" height="12" fill="#2bd4c0"/>
<rect x="48" y="288" width="12" height="12" fill="#2bd4c0"/>
<rect x="84" y="300" width="12" height="12" fill="#2bd4c0"/>
<rect x="96" y="300" width="12" height="12" fill="#3f8fe0"/>
<rect x="108" y="300" width="12" height="12" fill="#3f8fe0"/>
<rect x="120" y="300" width="12" height="12" fill="#3f8fe0"/>
<rect x="48" y="300" width="12" height="12" fill="#2bd4c0"/>
<rect x="60" y="300" width="12" height="12" fill="#2bd4c0"/>
<rect x="72" y="300" width="12" height="12" fill="#2bd4c0"/>
</svg>
