<svg width="180" height="276" viewBox="0 0 180 276" xmlns="http://www.w3.org/2000/svg" shape-rendering="crispEdges" role="img" aria-label="BARTEK">
<rect x="23" y="11" width="14" height="14" fill="#24304a"/>
<rect x="23" y="71" width="14" height="14" fill="#24304a"/>
<rect x="23" y="131" width="14" height="14" fill="#24304a"/>
<rect x="23" y="191" width="14" height="14" fill="#24304a"/>
<rect x="23" y="251" width="14" height="14" fill="#24304a"/>
<rect x="35" y="23" width="14" height="14" fill="#24304a"/>
<rect x="35" y="59" width="14" height="14" fill="#24304a"/>
<rect x="35" y="83" width="14" height="14" fill="#24304a"/>
<rect x="35" y="119" width="14" height="14" fill="#24304a"/>
<rect x="35" y="143" width="14" height="14" fill="#24304a"/>
<rect x="35" y="179" width="14" height="14" fill="#24304a"/>
<rect x="35" y="203" width="14" height="14" fill="#24304a"/>
<rect x="35" y="239" width="14" height="14" fill="#24304a"/>
<rect x="59" y="35" width="14" height="14" fill="#24304a"/>
<rect x="59" y="47" width="14" height="14" fill="#24304a"/>
<rect x="59" y="95" width="14" height="14" fill="#24304a"/>
<rect x="59" y="107" width="14" height="14" fill="#24304a"/>
<rect x="59" y="155" width="14" height="14" fill="#24304a"/>
<rect x="59" y="167" width="14" height="14" fill="#24304a"/>
<rect x="59" y="215" width="14" height="14" fill="#24304a"/>
<rect x="59" y="227" width="14" height="14" fill="#24304a"/>
<rect x="107" y="35" width="14" height="14" fill="#24304a"/>
<rect x="107" y="47" width="14" height="14" fill="#24304a"/>
<rect x="107" y="95" width="14" height="14" fill="#24304a"/>
<rect x="107" y="107" width="14" height="14" fill="#24304a"/>
<rect x="107" y="155" width="14" height="14" fill="#24304a"/>
<rect x="107" y="167" width="14" height="14" fill="#24304a"/>
<rect x="107" y="215" width="14" height="14" fill="#24304a"/>
<rect x="107" y="227" width="14" height="14" fill="#24304a"/>
<rect x="131" y="23" width="14" height="14" fill="#24304a"/>
<rect x="131" y="59" width="14" height="14" fill="#24304a"/>
<rect x="131" y="83" width="14" height="14" fill="#24304a"/>
<rect x="131" y="119" width="14" height="14" fill="#24304a"/>
<rect x="131" y="143" width="14" height="14" fill="#24304a"/>
<rect x="131" y="179" width="14" height="14" fill="#24304a"/>
<rect x="131" y="203" width="14" height="14" fill="#24304a"/>
<rect x="131" y="239" width="14" height="14" fill="#24304a"/>
<rect x="143" y="11" width="14" height="14" fill="#24304a"/>
<rect x="143" y="71" width="14" height="14" fill="#24304a"/>
<rect x="143" y="131" width="14" height="14" fill="#24304a"/>
<rect x="143" y="191" width="14" height="14" fill="#24304a"/>
<rect x="143" y="251" width="14" height="14" fill="#24304a"/>
<rect x="144" y="12" width="12" height="12" fill="#3f8fe0"/>
<rect x="24" y="12" width="12" height="12" fill="#2bd4c0"/>
<rect x="132" y="24" width="12" height="12" fill="#3f8fe0"/>
<rect x="36" y="24" width="12" height="12" fill="#2bd4c0"/>
<rect x="108" y="36" width="12" height="12" fill="#3f8fe0"/>
<rect x="60" y="36" width="12" height="12" fill="#2bd4c0"/>
<rect x="60" y="48" width="12" height="12" fill="#3f8fe0"/>
<rect x="108" y="48" width="12" height="12" fill="#2bd4c0"/>
<rect x="36" y="60" width="12" height="12" fill="#3f8fe0"/>
<rect x="132" y="60" width="12" height="12" fill="#2bd4c0"/>
<rect x="24" y="72" width="12" height="12" fill="#3f8fe0"/>
<rect x="144" y="72" width="12" height="12" fill="#2bd4c0"/>
<rect x="36" y="84" width="12" height="12" fill="#3f8fe0"/>
<rect x="132" y="84" width="12" height="12" fill="#2bd4c0"/>
<rect x="60" y="96" width="12" height="12" fill="#3f8fe0"/>
<rect x="108" y="96" width="12" height="12" fill="#2bd4c0"/>
<rect x="108" y="108" width="12" height="12" fill="#3f8fe0"/>
<rect x="60" y="108" width="12" height="12" fill="#2bd4c0"/>
<rect x="132" y="120" width="12" height="12" fill="#3f8fe0"/>
<rect x="36" y="120" width="12" height="12" fill="#2bd4c0"/>
<rect x="144" y="132" width="12" height="12" fill="#3f8fe0"/>
<rect x="24" y="132" width="12" height="12" fill="#2bd4c0"/>
<rect x="132" y="144" width="12" height="12" fill="#3f8fe0"/>
<rect x="36" y="144" width="12" height="12" fill="#2bd4c0"/>
<rect x="108" y="156" width="12" height="12" fill="#3f8fe0"/>
<rect x="60" y="156" width="12" height="12" fill="#2bd4c0"/>
<rect x="60" y="168" width="12" height="12" fill="#3f8fe0"/>
<rect x="108" y="168" width="12" height="12" fill="#2bd4c0"/>
<rect x="36" y="180" width="12" height="12" fill="#3f8fe0"/>
<rect x="132" y="180" width="12" height="12" fill="#2bd4c0"/>
<rect x="24" y="192" width="12" height="12" fill="#3f8fe0"/>
<rect x="144" y="192" width="12" height="12" fill="#2bd4c0"/>
<rect x="36" y="204" width="12" height="12" fill="#3f8fe0"/>
<rect x="132" y="204" width="12" height="12" fill="#2bd4c0"/>
<rect x="60" y="216" width="12" height="12" fill="#3f8fe0"/>
<rect x="108" y="216" width="12" height="12" fill="#2bd4c0"/>
<rect x="108" y="228" width="12" height="12" fill="#3f8fe0"/>
<rect x="60" y="228" width="12" height="12" fill="#2bd4c0"/>
<rect x="132" y="240" width="12" height="12" fill="#3f8fe0"/>
<rect x="36" y="240" width="12" height="12" fill="#2bd4c0"/>
<rect x="144" y="252" width="12" height="12" fill="#3f8fe0"/>
<rect x="24" y="252" width="12" height="12" fill="#2bd4c0"/>
</svg>
