<svg width="280" height="400" viewBox="0 0 280 400" xmlns="http://www.w3.org/2000/svg" shape-rendering="crispEdges" role="img" aria-label="BARTEK emblem">
<rect x="2" y="2" width="276" height="396" rx="56" fill="#0e1c33"/>
<rect x="37" y="121" width="14" height="14" fill="#54637a"/>
<rect x="37" y="133" width="14" height="14" fill="#54637a"/>
<rect x="49" y="61" width="14" height="14" fill="#54637a"/>
<rect x="49" y="73" width="14" height="14" fill="#54637a"/>
<rect x="49" y="85" width="14" height="14" fill="#54637a"/>
<rect x="49" y="133" width="14" height="14" fill="#54637a"/>
<rect x="49" y="145" width="14" height="14" fill="#54637a"/>
<rect x="49" y="169" width="14" height="14" fill="#54637a"/>
<rect x="49" y="205" width="14" height="14" fill="#54637a"/>
<rect x="49" y="241" width="14" height="14" fill="#54637a"/>
<rect x="61" y="61" width="14" height="14" fill="#54637a"/>
<rect x="61" y="85" width="14" height="14" fill="#54637a"/>
<rect x="61" y="133" width="14" height="14" fill="#54637a"/>
<rect x="61" y="169" width="14" height="14" fill="#54637a"/>
<rect x="61" y="205" width="14" height="14" fill="#54637a"/>
<rect x="61" y="241" width="14" height="14" fill="#54637a"/>
<rect x="61" y="337" width="14" height="14" fill="#54637a"/>
<rect x="61" y="349" width="14" height="14" fill="#54637a"/>
<rect x="61" y="361" width="14" height="14" fill="#54637a"/>
<rect x="73" y="61" width="14" height="14" fill="#54637a"/>
<rect x="73" y="73" width="14" height="14" fill="#54637a"/>
<rect x="73" y="85" width="14" height="14" fill="#54637a"/>
<rect x="73" y="133" width="14" height="14" fill="#54637a"/>
<rect x="73" y="145" width="14" height="14" fill="#54637a"/>
<rect x="73" y="169" width="14" height="14" fill="#54637a"/>
<rect x="73" y="205" width="14" height="14" fill="#54637a"/>
<rect x="73" y="241" width="14" height="14" fill="#54637a"/>
<rect x="73" y="337" width="14" height="14" fill="#54637a"/>
<rect x="73" y="361" width="14" height="14" fill="#54637a"/>
<rect x="85" y="37" width="14" height="14" fill="#54637a"/>
<rect x="85" y="73" width="14" height="14" fill="#54637a"/>
<rect x="85" y="133" width="14" height="14" fill="#54637a"/>
<rect x="85" y="157" width="14" height="14" fill="#54637a"/>
<rect x="85" y="169" width="14" height="14" fill="#54637a"/>
<rect x="85" y="181" width="14" height="14" fill="#54637a"/>
<rect x="85" y="193" width="14" height="14" fill="#54637a"/>
<rect x="85" y="205" width="14" height="14" fill="#54637a"/>
<rect x="85" y="217" width="14" height="14" fill="#54637a"/>
<rect x="85" y="229" width="14" height="14" fill="#54637a"/>
<rect x="85" y="241" width="14" height="14" fill="#54637a"/>
<rect x="85" y="253" width="14" height="14" fill="#54637a"/>
<rect x="85" y="265" width="14" height="14" fill="#54637a"/>
<rect x="85" y="277" width="14" height="14" fill="#54637a"/>
<rect x="85" y="325" width="14" height="14" fill="#54637a"/>
<rect x="85" y="337" width="14" height="14" fill="#54637a"/>
<rect x="85" y="349" width="14" height="14" fill="#54637a"/>
<rect x="85" y="361" width="14" height="14" fill="#54637a"/>
<rect x="97" y="13" width="14" height="14" fill="#54637a"/>
<rect x="97" y="25" width="14" height="14" fill="#54637a"/>
<rect x="97" y="49" width="14" height="14" fill="#54637a"/>
<rect x="97" y="61" width="14" height="14" fill="#54637a"/>
<rect x="97" y="85" width="14" height="14" fill="#54637a"/>
<rect x="97" y="97" width="14" height="14" fill="#54637a"/>
<rect x="97" y="109" width="14" height="14" fill="#54637a"/>
<rect x="97" y="133" width="14" height="14" fill="#54637a"/>
<rect x="97" y="145" width="14" height="14" fill="#54637a"/>
<rect x="97" y="181" width="14" height="14" fill="#54637a"/>
<rect x="97" y="217" width="14" height="14" fill="#54637a"/>
<rect x="97" y="253" width="14" height="14" fill="#54637a"/>
<rect x="97" y="277" width="14" height="14" fill="#54637a"/>
<rect x="97" y="325" width="14" height="14" fill="#54637a"/>
<rect x="109" y="25" width="14" height="14" fill="#54637a"/>
<rect x="109" y="73" width="14" height="14" fill="#54637a"/>
<rect x="109" y="97" width="14" height="14" fill="#54637a"/>
<rect x="109" y="109" width="14" height="14" fill="#54637a"/>
<rect x="109" y="133" width="14" height="14" fill="#54637a"/>
<rect x="109" y="157" width="14" height="14" fill="#54637a"/>
<rect x="109" y="169" width="14" height="14" fill="#54637a"/>
<rect x="109" y="193" width="14" height="14" fill="#54637a"/>
<rect x="109" y="205" width="14" height="14" fill="#54637a"/>
<rect x="109" y="229" width="14" height="14" fill="#54637a"/>
<rect x="109" y="241" width="14" height="14" fill="#54637a"/>
<rect x="109" y="265" width="14" height="14" fill="#54637a"/>
<rect x="109" y="277" width="14" height="14" fill="#54637a"/>
<rect x="109" y="313" width="14" height="14" fill="#54637a"/>
<rect x="121" y="37" width="14" height="14" fill="#54637a"/>
<rect x="121" y="61" width="14" height="14" fill="#54637a"/>
<rect x="121" y="85" width="14" height="14" fill="#54637a"/>
<rect x="121" y="109" width="14" height="14" fill="#54637a"/>
<rect x="121" y="133" width="14" height="14" fill="#54637a"/>
<rect x="121" y="145" width="14" height="14" fill="#54637a"/>
<rect x="121" y="181" width="14" height="14" fill="#54637a"/>
<rect x="121" y="217" width="14" height="14" fill="#54637a"/>
<rect x="121" y="253" width="14" height="14" fill="#54637a"/>
<rect x="121" y="277" width="14" height="14" fill="#54637a"/>
<rect x="121" y="289" width="14" height="14" fill="#54637a"/>
<rect x="121" y="301" width="14" height="14" fill="#54637a"/>
<rect x="133" y="37" width="14" height="14" fill="#54637a"/>
<rect x="133" y="73" width="14" height="14" fill="#54637a"/>
<rect x="133" y="85" width="14" height="14" fill="#54637a"/>
<rect x="133" y="109" width="14" height="14" fill="#54637a"/>
<rect x="133" y="121" width="14" height="14" fill="#54637a"/>
<rect x="133" y="157" width="14" height="14" fill="#54637a"/>
<rect x="133" y="169" width="14" height="14" fill="#54637a"/>
<rect x="133" y="193" width="14" height="14" fill="#54637a"/>
<rect x="133" y="205" width="14" height="14" fill="#54637a"/>
<rect x="133" y="229" width="14" height="14" fill="#54637a"/>
<rect x="133" y="241" width="14" height="14" fill="#54637a"/>
<rect x="133" y="265" width="14" height="14" fill="#54637a"/>
<rect x="133" y="277" width="14" height="14" fill="#54637a"/>
<rect x="145" y="37" width="14" height="14" fill="#54637a"/>
<rect x="145" y="61" width="14" height="14" fill="#54637a"/>
<rect x="145" y="85" width="14" height="14" fill="#54637a"/>
<rect x="145" y="109" width="14" height="14" fill="#54637a"/>
<rect x="145" y="133" width="14" height="14" fill="#54637a"/>
<rect x="145" y="145" width="14" height="14" fill="#54637a"/>
<rect x="145" y="181" width="14" height="14" fill="#54637a"/>
<rect x="145" y="217" width="14" height="14" fill="#54637a"/>
<rect x="145" y="253" width="14" height="14" fill="#54637a"/>
<rect x="145" y="277" width="14" height="14" fill="#54637a"/>
<rect x="145" y="289" width="14" height="14" fill="#54637a"/>
<rect x="145" y="301" width="14" height="14" fill="#54637a"/>
<rect x="157" y="25" width="14" height="14" fill="#54637a"/>
<rect x="157" y="73" width="14" height="14" fill="#54637a"/>
<rect x="157" y="97" width="14" height="14" fill="#54637a"/>
<rect x="157" y="109" width="14" height="14" fill="#54637a"/>
<rect x="157" y="133" width="14" height="14" fill="#54637a"/>
<rect x="157" y="157" width="14" height="14" fill="#54637a"/>
<rect x="157" y="169" width="14" height="14" fill="#54637a"/>
<rect x="157" y="193" width="14" height="14" fill="#54637a"/>
<rect x="157" y="205" width="14" height="14" fill="#54637a"/>
<rect x="157" y="229" width="14" height="14" fill="#54637a"/>
<rect x="157" y="241" width="14" height="14" fill="#54637a"/>
<rect x="157" y="265" width="14" height="14" fill="#54637a"/>
<rect x="157" y="277" width="14" height="14" fill="#54637a"/>
<rect x="157" y="313" width="14" height="14" fill="#54637a"/>
<rect x="169" y="13" width="14" height="14" fill="#54637a"/>
<rect x="169" y="25" width="14" height="14" fill="#54637a"/>
<rect x="169" y="49" width="14" height="14" fill="#54637a"/>
<rect x="169" y="61" width="14" height="14" fill="#54637a"/>
<rect x="169" y="85" width="14" height="14" fill="#54637a"/>
<rect x="169" y="97" width="14" height="14" fill="#54637a"/>
<rect x="169" y="109" width="14" height="14" fill="#54637a"/>
<rect x="169" y="133" width="14" height="14" fill="#54637a"/>
<rect x="169" y="145" width="14" height="14" fill="#54637a"/>
<rect x="169" y="181" width="14" height="14" fill="#54637a"/>
<rect x="169" y="217" width="14" height="14" fill="#54637a"/>
<rect x="169" y="253" width="14" height="14" fill="#54637a"/>
<rect x="169" y="277" width="14" height="14" fill="#54637a"/>
<rect x="169" y="325" width="14" height="14" fill="#54637a"/>
<rect x="181" y="37" width="14" height="14" fill="#54637a"/>
<rect x="181" y="73" width="14" height="14" fill="#54637a"/>
<rect x="181" y="133" width="14" height="14" fill="#54637a"/>
<rect x="181" y="157" width="14" height="14" fill="#54637a"/>
<rect x="181" y="169" width="14" height="14" fill="#54637a"/>
<rect x="181" y="181" width="14" height="14" fill="#54637a"/>
<rect x="181" y="193" width="14" height="14" fill="#54637a"/>
<rect x="181" y="205" width="14" height="14" fill="#54637a"/>
<rect x="181" y="217" width="14" height="14" fill="#54637a"/>
<rect x="181" y="229" width="14" height="14" fill="#54637a"/>
<rect x="181" y="241" width="14" height="14" fill="#54637a"/>
<rect x="181" y="253" width="14" height="14" fill="#54637a"/>
<rect x="181" y="265" width="14" height="14" fill="#54637a"/>
<rect x="181" y="277" width="14" height="14" fill="#54637a"/>
<rect x="181" y="325" width="14" height="14" fill="#54637a"/>
<rect x="181" y="337" width="14" height="14" fill="#54637a"/>
<rect x="181" y="349" width="14" height="14" fill="#54637a"/>
<rect x="181" y="361" width="14" height="14" fill="#54637a"/>
<rect x="193" y="61" width="14" height="14" fill="#54637a"/>
<rect x="193" y="73" width="14" height="14" fill="#54637a"/>
<rect x="193" y="85" width="14" height="14" fill="#54637a"/>
<rect x="193" y="133" width="14" height="14" fill="#54637a"/>
<rect x="193" y="145" width="14" height="14" fill="#54637a"/>
<rect x="193" y="169" width="14" height="14" fill="#54637a"/>
<rect x="193" y="205" width="14" height="14" fill="#54637a"/>
<rect x="193" y="241" width="14" height="14" fill="#54637a"/>
<rect x="193" y="337" width="14" height="14" fill="#54637a"/>
<rect x="193" y="361" width="14" height="14" fill="#54637a"/>
<rect x="205" y="61" width="14" height="14" fill="#54637a"/>
<rect x="205" y="85" width="14" height="14" fill="#54637a"/>
<rect x="205" y="133" width="14" height="14" fill="#54637a"/>
<rect x="205" y="169" width="14" height="14" fill="#54637a"/>
<rect x="205" y="205" width="14" height="14" fill="#54637a"/>
<rect x="205" y="241" width="14" height="14" fill="#54637a"/>
<rect x="205" y="337" width="14" height="14" fill="#54637a"/>
<rect x="205" y="349" width="14" height="14" fill="#54637a"/>
<rect x="205" y="361" width="14" height="14" fill="#54637a"/>
<rect x="217" y="61" width="14" height="14" fill="#54637a"/>
<rect x="217" y="73" width="14" height="14" fill="#54637a"/>
<rect x="217" y="85" width="14" height="14" fill="#54637a"/>
<rect x="217" y="133" width="14" height="14" fill="#54637a"/>
<rect x="217" y="145" width="14" height="14" fill="#54637a"/>
<rect x="217" y="169" width="14" height="14" fill="#54637a"/>
<rect x="217" y="205" width="14" height="14" fill="#54637a"/>
<rect x="217" y="241" width="14" height="14" fill="#54637a"/>
<rect x="229" y="121" width="14" height="14" fill="#54637a"/>
<rect x="229" y="133" width="14" height="14" fill="#54637a"/>
<rect x="98" y="14" width="12" height="12" fill="#2c6fbb"/>
<rect x="170" y="14" width="12" height="12" fill="#2c6fbb"/>
<rect x="98" y="26" width="12" height="12" fill="#2c6fbb"/>
<rect x="110" y="26" width="12" height="12" fill="#2c6fbb"/>
<rect x="158" y="26" width="12" height="12" fill="#2c6fbb"/>
<rect x="170" y="26" width="12" height="12" fill="#2c6fbb"/>
<rect x="86" y="38" width="12" height="12" fill="#2c6fbb"/>
<rect x="98" y="38" width="12" height="12" fill="#2c6fbb"/>
<rect x="110" y="38" width="12" height="12" fill="#2c6fbb"/>
<rect x="122" y="38" width="12" height="12" fill="#2c6fbb"/>
<rect x="134" y="38" width="12" height="12" fill="#2c6fbb"/>
<rect x="146" y="38" width="12" height="12" fill="#2c6fbb"/>
<rect x="158" y="38" width="12" height="12" fill="#2c6fbb"/>
<rect x="170" y="38" width="12" height="12" fill="#2c6fbb"/>
<rect x="182" y="38" width="12" height="12" fill="#2c6fbb"/>
<rect x="98" y="50" width="12" height="12" fill="#2c6fbb"/>
<rect x="110" y="50" width="12" height="12" fill="#2c6fbb"/>
<rect x="122" y="50" width="12" height="12" fill="#2c6fbb"/>
<rect x="134" y="50" width="12" height="12" fill="#2c6fbb"/>
<rect x="146" y="50" width="12" height="12" fill="#2c6fbb"/>
<rect x="158" y="50" width="12" height="12" fill="#2c6fbb"/>
<rect x="170" y="50" width="12" height="12" fill="#2c6fbb"/>
<rect x="98" y="62" width="12" height="12" fill="#2c6fbb"/>
<rect x="110" y="62" width="12" height="12" fill="#2c6fbb"/>
<rect x="122" y="62" width="12" height="12" fill="#2c6fbb"/>
<rect x="134" y="62" width="12" height="12" fill="#2c6fbb"/>
<rect x="146" y="62" width="12" height="12" fill="#2c6fbb"/>
<rect x="158" y="62" width="12" height="12" fill="#2c6fbb"/>
<rect x="170" y="62" width="12" height="12" fill="#2c6fbb"/>
<rect x="98" y="74" width="12" height="12" fill="#2c6fbb"/>
<rect x="110" y="74" width="12" height="12" fill="#2c6fbb"/>
<rect x="134" y="74" width="12" height="12" fill="#2c6fbb"/>
<rect x="158" y="74" width="12" height="12" fill="#2c6fbb"/>
<rect x="170" y="74" width="12" height="12" fill="#2c6fbb"/>
<rect x="98" y="86" width="12" height="12" fill="#2c6fbb"/>
<rect x="110" y="86" width="12" height="12" fill="#2c6fbb"/>
<rect x="122" y="86" width="12" height="12" fill="#2c6fbb"/>
<rect x="134" y="86" width="12" height="12" fill="#2c6fbb"/>
<rect x="146" y="86" width="12" height="12" fill="#2c6fbb"/>
<rect x="158" y="86" width="12" height="12" fill="#2c6fbb"/>
<rect x="170" y="86" width="12" height="12" fill="#2c6fbb"/>
<rect x="98" y="98" width="12" height="12" fill="#2c6fbb"/>
<rect x="110" y="98" width="12" height="12" fill="#2c6fbb"/>
<rect x="158" y="98" width="12" height="12" fill="#2c6fbb"/>
<rect x="170" y="98" width="12" height="12" fill="#2c6fbb"/>
<rect x="98" y="110" width="12" height="12" fill="#2c6fbb"/>
<rect x="110" y="110" width="12" height="12" fill="#2c6fbb"/>
<rect x="122" y="110" width="12" height="12" fill="#2c6fbb"/>
<rect x="134" y="110" width="12" height="12" fill="#2c6fbb"/>
<rect x="146" y="110" width="12" height="12" fill="#2c6fbb"/>
<rect x="158" y="110" width="12" height="12" fill="#2c6fbb"/>
<rect x="170" y="110" width="12" height="12" fill="#2c6fbb"/>
<rect x="50" y="62" width="12" height="12" fill="#2c6fbb"/>
<rect x="62" y="62" width="12" height="12" fill="#2c6fbb"/>
<rect x="74" y="62" width="12" height="12" fill="#2c6fbb"/>
<rect x="50" y="74" width="12" height="12" fill="#2c6fbb"/>
<rect x="74" y="74" width="12" height="12" fill="#2c6fbb"/>
<rect x="50" y="86" width="12" height="12" fill="#2c6fbb"/>
<rect x="62" y="86" width="12" height="12" fill="#2c6fbb"/>
<rect x="74" y="86" width="12" height="12" fill="#2c6fbb"/>
<rect x="194" y="62" width="12" height="12" fill="#2c6fbb"/>
<rect x="206" y="62" width="12" height="12" fill="#2c6fbb"/>
<rect x="218" y="62" width="12" height="12" fill="#2c6fbb"/>
<rect x="194" y="74" width="12" height="12" fill="#2c6fbb"/>
<rect x="218" y="74" width="12" height="12" fill="#2c6fbb"/>
<rect x="194" y="86" width="12" height="12" fill="#2c6fbb"/>
<rect x="206" y="86" width="12" height="12" fill="#2c6fbb"/>
<rect x="218" y="86" width="12" height="12" fill="#2c6fbb"/>
<rect x="86" y="74" width="12" height="12" fill="#2c6fbb"/>
<rect x="182" y="74" width="12" height="12" fill="#2c6fbb"/>
<rect x="134" y="122" width="12" height="12" fill="#2c6fbb"/>
<rect x="38" y="134" width="12" height="12" fill="#2bd4c0"/>
<rect x="50" y="134" width="12" height="12" fill="#2bd4c0"/>
<rect x="62" y="134" width="12" height="12" fill="#2bd4c0"/>
<rect x="74" y="134" width="12" height="12" fill="#2bd4c0"/>
<rect x="86" y="134" width="12" height="12" fill="#2bd4c0"/>
<rect x="182" y="134" width="12" height="12" fill="#2bd4c0"/>
<rect x="194" y="134" width="12" height="12" fill="#2bd4c0"/>
<rect x="206" y="134" width="12" height="12" fill="#2bd4c0"/>
<rect x="218" y="134" width="12" height="12" fill="#2bd4c0"/>
<rect x="230" y="134" width="12" height="12" fill="#2bd4c0"/>
<rect x="38" y="122" width="12" height="12" fill="#2bd4c0"/>
<rect x="230" y="122" width="12" height="12" fill="#2bd4c0"/>
<rect x="98" y="134" width="12" height="12" fill="#2c6fbb"/>
<rect x="110" y="134" width="12" height="12" fill="#2c6fbb"/>
<rect x="122" y="134" width="12" height="12" fill="#2c6fbb"/>
<rect x="134" y="134" width="12" height="12" fill="#2c6fbb"/>
<rect x="146" y="134" width="12" height="12" fill="#2c6fbb"/>
<rect x="158" y="134" width="12" height="12" fill="#2c6fbb"/>
<rect x="170" y="134" width="12" height="12" fill="#2c6fbb"/>
<rect x="50" y="146" width="12" height="12" fill="#2bd4c0"/>
<rect x="74" y="146" width="12" height="12" fill="#2bd4c0"/>
<rect x="194" y="146" width="12" height="12" fill="#2bd4c0"/>
<rect x="218" y="146" width="12" height="12" fill="#2bd4c0"/>
<rect x="86" y="146" width="12" height="12" fill="#2c6fbb"/>
<rect x="86" y="158" width="12" height="12" fill="#2c6fbb"/>
<rect x="86" y="170" width="12" height="12" fill="#2c6fbb"/>
<rect x="86" y="182" width="12" height="12" fill="#2c6fbb"/>
<rect x="86" y="194" width="12" height="12" fill="#2c6fbb"/>
<rect x="86" y="206" width="12" height="12" fill="#2c6fbb"/>
<rect x="86" y="218" width="12" height="12" fill="#2c6fbb"/>
<rect x="86" y="230" width="12" height="12" fill="#2c6fbb"/>
<rect x="86" y="242" width="12" height="12" fill="#2c6fbb"/>
<rect x="86" y="254" width="12" height="12" fill="#2c6fbb"/>
<rect x="86" y="266" width="12" height="12" fill="#2c6fbb"/>
<rect x="86" y="278" width="12" height="12" fill="#2c6fbb"/>
<rect x="110" y="146" width="12" height="12" fill="#2c6fbb"/>
<rect x="110" y="158" width="12" height="12" fill="#2c6fbb"/>
<rect x="110" y="170" width="12" height="12" fill="#2c6fbb"/>
<rect x="110" y="182" width="12" height="12" fill="#2c6fbb"/>
<rect x="110" y="194" width="12" height="12" fill="#2c6fbb"/>
<rect x="110" y="206" width="12" height="12" fill="#2c6fbb"/>
<rect x="110" y="218" width="12" height="12" fill="#2c6fbb"/>
<rect x="110" y="230" width="12" height="12" fill="#2c6fbb"/>
<rect x="110" y="242" width="12" height="12" fill="#2c6fbb"/>
<rect x="110" y="254" width="12" height="12" fill="#2c6fbb"/>
<rect x="110" y="266" width="12" height="12" fill="#2c6fbb"/>
<rect x="110" y="278" width="12" height="12" fill="#2c6fbb"/>
<rect x="134" y="146" width="12" height="12" fill="#2c6fbb"/>
<rect x="134" y="158" width="12" height="12" fill="#2c6fbb"/>
<rect x="134" y="170" width="12" height="12" fill="#2c6fbb"/>
<rect x="134" y="182" width="12" height="12" fill="#2c6fbb"/>
<rect x="134" y="194" width="12" height="12" fill="#2c6fbb"/>
<rect x="134" y="206" width="12" height="12" fill="#2c6fbb"/>
<rect x="134" y="218" width="12" height="12" fill="#2c6fbb"/>
<rect x="134" y="230" width="12" height="12" fill="#2c6fbb"/>
<rect x="134" y="242" width="12" height="12" fill="#2c6fbb"/>
<rect x="134" y="254" width="12" height="12" fill="#2c6fbb"/>
<rect x="134" y="266" width="12" height="12" fill="#2c6fbb"/>
<rect x="134" y="278" width="12" height="12" fill="#2c6fbb"/>
<rect x="158" y="146" width="12" height="12" fill="#2c6fbb"/>
<rect x="158" y="158" width="12" height="12" fill="#2c6fbb"/>
<rect x="158" y="170" width="12" height="12" fill="#2c6fbb"/>
<rect x="158" y="182" width="12" height="12" fill="#2c6fbb"/>
<rect x="158" y="194" width="12" height="12" fill="#2c6fbb"/>
<rect x="158" y="206" width="12" height="12" fill="#2c6fbb"/>
<rect x="158" y="218" width="12" height="12" fill="#2c6fbb"/>
<rect x="158" y="230" width="12" height="12" fill="#2c6fbb"/>
<rect x="158" y="242" width="12" height="12" fill="#2c6fbb"/>
<rect x="158" y="254" width="12" height="12" fill="#2c6fbb"/>
<rect x="158" y="266" width="12" height="12" fill="#2c6fbb"/>
<rect x="158" y="278" width="12" height="12" fill="#2c6fbb"/>
<rect x="182" y="146" width="12" height="12" fill="#2c6fbb"/>
<rect x="182" y="158" width="12" height="12" fill="#2c6fbb"/>
<rect x="182" y="170" width="12" height="12" fill="#2c6fbb"/>
<rect x="182" y="182" width="12" height="12" fill="#2c6fbb"/>
<rect x="182" y="194" width="12" height="12" fill="#2c6fbb"/>
<rect x="182" y="206" width="12" height="12" fill="#2c6fbb"/>
<rect x="182" y="218" width="12" height="12" fill="#2c6fbb"/>
<rect x="182" y="230" width="12" height="12" fill="#2c6fbb"/>
<rect x="182" y="242" width="12" height="12" fill="#2c6fbb"/>
<rect x="182" y="254" width="12" height="12" fill="#2c6fbb"/>
<rect x="182" y="266" width="12" height="12" fill="#2c6fbb"/>
<rect x="182" y="278" width="12" height="12" fill="#2c6fbb"/>
<rect x="98" y="146" width="12" height="12" fill="#2c6fbb"/>
<rect x="122" y="146" width="12" height="12" fill="#2c6fbb"/>
<rect x="146" y="146" width="12" height="12" fill="#2c6fbb"/>
<rect x="170" y="146" width="12" height="12" fill="#2c6fbb"/>
<rect x="98" y="182" width="12" height="12" fill="#2c6fbb"/>
<rect x="122" y="182" width="12" height="12" fill="#2c6fbb"/>
<rect x="146" y="182" width="12" height="12" fill="#2c6fbb"/>
<rect x="170" y="182" width="12" height="12" fill="#2c6fbb"/>
<rect x="98" y="218" width="12" height="12" fill="#2c6fbb"/>
<rect x="122" y="218" width="12" height="12" fill="#2c6fbb"/>
<rect x="146" y="218" width="12" height="12" fill="#2c6fbb"/>
<rect x="170" y="218" width="12" height="12" fill="#2c6fbb"/>
<rect x="98" y="254" width="12" height="12" fill="#2c6fbb"/>
<rect x="122" y="254" width="12" height="12" fill="#2c6fbb"/>
<rect x="146" y="254" width="12" height="12" fill="#2c6fbb"/>
<rect x="170" y="254" width="12" height="12" fill="#2c6fbb"/>
<rect x="98" y="278" width="12" height="12" fill="#2c6fbb"/>
<rect x="122" y="278" width="12" height="12" fill="#2c6fbb"/>
<rect x="146" y="278" width="12" height="12" fill="#2c6fbb"/>
<rect x="170" y="278" width="12" height="12" fill="#2c6fbb"/>
<rect x="50" y="170" width="12" height="12" fill="#2c6fbb"/>
<rect x="62" y="170" width="12" height="12" fill="#2c6fbb"/>
<rect x="74" y="170" width="12" height="12" fill="#2c6fbb"/>
<rect x="194" y="170" width="12" height="12" fill="#2c6fbb"/>
<rect x="206" y="170" width="12" height="12" fill="#2c6fbb"/>
<rect x="218" y="170" width="12" height="12" fill="#2c6fbb"/>
<rect x="50" y="206" width="12" height="12" fill="#2c6fbb"/>
<rect x="62" y="206" width="12" height="12" fill="#2c6fbb"/>
<rect x="74" y="206" width="12" height="12" fill="#2c6fbb"/>
<rect x="194" y="206" width="12" height="12" fill="#2c6fbb"/>
<rect x="206" y="206" width="12" height="12" fill="#2c6fbb"/>
<rect x="218" y="206" width="12" height="12" fill="#2c6fbb"/>
<rect x="50" y="242" width="12" height="12" fill="#2c6fbb"/>
<rect x="62" y="242" width="12" height="12" fill="#2c6fbb"/>
<rect x="74" y="242" width="12" height="12" fill="#2c6fbb"/>
<rect x="194" y="242" width="12" height="12" fill="#2c6fbb"/>
<rect x="206" y="242" width="12" height="12" fill="#2c6fbb"/>
<rect x="218" y="242" width="12" height="12" fill="#2c6fbb"/>
<rect x="122" y="290" width="12" height="12" fill="#2bd4c0"/>
<rect x="122" y="302" width="12" height="12" fill="#2bd4c0"/>
<rect x="110" y="314" width="12" height="12" fill="#2bd4c0"/>
<rect x="98" y="326" width="12" height="12" fill="#2bd4c0"/>
<rect x="86" y="326" width="12" height="12" fill="#2bd4c0"/>
<rect x="62" y="338" width="12" height="12" fill="#2bd4c0"/>
<rect x="74" y="338" width="12" height="12" fill="#2bd4c0"/>
<rect x="86" y="338" width="12" height="12" fill="#2bd4c0"/>
<rect x="62" y="350" width="12" height="12" fill="#2bd4c0"/>
<rect x="86" y="350" width="12" height="12" fill="#2bd4c0"/>
<rect x="62" y="362" width="12" height="12" fill="#2bd4c0"/>
<rect x="74" y="362" width="12" height="12" fill="#2bd4c0"/>
<rect x="86" y="362" width="12" height="12" fill="#2bd4c0"/>
<rect x="146" y="290" width="12" height="12" fill="#2bd4c0"/>
<rect x="146" y="302" width="12" height="12" fill="#2bd4c0"/>
<rect x="158" y="314" width="12" height="12" fill="#2bd4c0"/>
<rect x="170" y="326" width="12" height="12" fill="#2bd4c0"/>
<rect x="182" y="326" width="12" height="12" fill="#2bd4c0"/>
<rect x="182" y="338" width="12" height="12" fill="#2bd4c0"/>
<rect x="194" y="338" width="12" height="12" fill="#2bd4c0"/>
<rect x="206" y="338" width="12" height="12" fill="#2bd4c0"/>
<rect x="182" y="350" width="12" height="12" fill="#2bd4c0"/>
<rect x="206" y="350" width="12" height="12" fill="#2bd4c0"/>
<rect x="182" y="362" width="12" height="12" fill="#2bd4c0"/>
<rect x="194" y="362" width="12" height="12" fill="#2bd4c0"/>
<rect x="206" y="362" width="12" height="12" fill="#2bd4c0"/>
</svg>
