<svg width="220" height="220" viewBox="0 0 220 220" xmlns="http://www.w3.org/2000/svg" role="img" aria-label="BARTEK LLC">
<rect x="2" y="2" width="216" height="216" rx="48" fill="#0e1c33"/>
<circle cx="206.0" cy="110.0" r="3.2" fill="#2bd4c0" opacity="0.55"/>
<line x1="192.0" y1="110.0" x2="206.0" y2="110.0" stroke="#2bd4c0" stroke-width="1.4" opacity="0.35"/>
<circle cx="193.1" cy="139.8" r="3.2" fill="#2bd4c0" opacity="0.55"/>
<line x1="181.0" y1="135.4" x2="193.1" y2="139.8" stroke="#2bd4c0" stroke-width="1.4" opacity="0.35"/>
<circle cx="158.0" cy="161.5" r="3.2" fill="#2bd4c0" opacity="0.55"/>
<line x1="151.0" y1="154.0" x2="158.0" y2="161.5" stroke="#2bd4c0" stroke-width="1.4" opacity="0.35"/>
<circle cx="110.0" cy="169.5" r="3.2" fill="#2bd4c0" opacity="0.55"/>
<line x1="110.0" y1="160.8" x2="110.0" y2="169.5" stroke="#2bd4c0" stroke-width="1.4" opacity="0.35"/>
<circle cx="62.0" cy="161.5" r="3.2" fill="#2bd4c0" opacity="0.55"/>
<line x1="69.0" y1="154.0" x2="62.0" y2="161.5" stroke="#2bd4c0" stroke-width="1.4" opacity="0.35"/>
<circle cx="26.9" cy="139.8" r="3.2" fill="#2bd4c0" opacity="0.55"/>
<line x1="39.0" y1="135.4" x2="26.9" y2="139.8" stroke="#2bd4c0" stroke-width="1.4" opacity="0.35"/>
<circle cx="14.0" cy="110.0" r="3.2" fill="#2bd4c0" opacity="0.55"/>
<line x1="28.0" y1="110.0" x2="14.0" y2="110.0" stroke="#2bd4c0" stroke-width="1.4" opacity="0.35"/>
<circle cx="26.9" cy="80.2" r="3.2" fill="#2bd4c0" opacity="0.55"/>
<line x1="39.0" y1="84.6" x2="26.9" y2="80.2" stroke="#2bd4c0" stroke-width="1.4" opacity="0.35"/>
<circle cx="62.0" cy="58.5" r="3.2" fill="#2bd4c0" opacity="0.55"/>
<line x1="69.0" y1="66.0" x2="62.0" y2="58.5" stroke="#2bd4c0" stroke-width="1.4" opacity="0.35"/>
<circle cx="110.0" cy="50.5" r="3.2" fill="#2bd4c0" opacity="0.55"/>
<line x1="110.0" y1="59.2" x2="110.0" y2="50.5" stroke="#2bd4c0" stroke-width="1.4" opacity="0.35"/>
<circle cx="158.0" cy="58.5" r="3.2" fill="#2bd4c0" opacity="0.55"/>
<line x1="151.0" y1="66.0" x2="158.0" y2="58.5" stroke="#2bd4c0" stroke-width="1.4" opacity="0.35"/>
<circle cx="193.1" cy="80.2" r="3.2" fill="#2bd4c0" opacity="0.55"/>
<line x1="181.0" y1="84.6" x2="193.1" y2="80.2" stroke="#2bd4c0" stroke-width="1.4" opacity="0.35"/>
<line x1="130.0" y1="40.3" x2="90.0" y2="40.3" stroke="#2c6fbb" stroke-width="4" opacity="0.85"/>
<line x1="150.0" y1="53.0" x2="70.0" y2="53.0" stroke="#2c6fbb" stroke-width="4" opacity="0.85"/>
<line x1="130.0" y1="65.7" x2="90.0" y2="65.7" stroke="#2c6fbb" stroke-width="4" opacity="0.85"/>
<line x1="90.0" y1="78.3" x2="130.0" y2="78.3" stroke="#2bd4c0" stroke-width="4" opacity="0.85"/>
<line x1="70.0" y1="91.0" x2="150.0" y2="91.0" stroke="#2bd4c0" stroke-width="4" opacity="0.85"/>
<line x1="90.0" y1="103.7" x2="130.0" y2="103.7" stroke="#2bd4c0" stroke-width="4" opacity="0.85"/>
<line x1="130.0" y1="116.3" x2="90.0" y2="116.3" stroke="#2c6fbb" stroke-width="4" opacity="0.85"/>
<line x1="150.0" y1="129.0" x2="70.0" y2="129.0" stroke="#2c6fbb" stroke-width="4" opacity="0.85"/>
<line x1="130.0" y1="141.7" x2="90.0" y2="141.7" stroke="#2c6fbb" stroke-width="4" opacity="0.85"/>
<line x1="90.0" y1="154.3" x2="130.0" y2="154.3" stroke="#2bd4c0" stroke-width="4" opacity="0.85"/>
<line x1="70.0" y1="167.0" x2="150.0" y2="167.0" stroke="#2bd4c0" stroke-width="4" opacity="0.85"/>
<line x1="90.0" y1="179.7" x2="130.0" y2="179.7" stroke="#2bd4c0" stroke-width="4" opacity="0.85"/>
<path d="M 110.0 34.0 L 103.1 36.1 L 96.3 38.2 L 90.0 40.3 L 84.3 42.4 L 79.4 44.6 L 75.4 46.7 L 72.4 48.8 L 70.6 50.9 L 70.0 53.0 L 70.6 55.1 L 72.4 57.2 L 75.4 59.3 L 79.4 61.4 L 84.3 63.6 L 90.0 65.7 L 96.3 67.8 L 103.1 69.9 L 110.0 72.0 L 116.9 74.1 L 123.7 76.2 L 130.0 78.3 L 135.7 80.4 L 140.6 82.6 L 144.6 84.7 L 147.6 86.8 L 149.4 88.9 L 150.0 91.0 L 149.4 93.1 L 147.6 95.2 L 144.6 97.3 L 140.6 99.4 L 135.7 101.6 L 130.0 103.7 L 123.7 105.8 L 116.9 107.9 L 110.0 110.0 L 103.1 112.1 L 96.3 114.2 L 90.0 116.3 L 84.3 118.4 L 79.4 120.6 L 75.4 122.7 L 72.4 124.8 L 70.6 126.9 L 70.0 129.0 L 70.6 131.1 L 72.4 133.2 L 75.4 135.3 L 79.4 137.4 L 84.3 139.6 L 90.0 141.7 L 96.3 143.8 L 103.1 145.9 L 110.0 148.0 L 116.9 150.1 L 123.7 152.2 L 130.0 154.3 L 135.7 156.4 L 140.6 158.6 L 144.6 160.7 L 147.6 162.8 L 149.4 164.9 L 150.0 167.0 L 149.4 169.1 L 147.6 171.2 L 144.6 173.3 L 140.6 175.4 L 135.7 177.6 L 130.0 179.7 L 123.7 181.8 L 116.9 183.9 L 110.0 186.0" fill="none" stroke="#2bd4c0" stroke-width="8" stroke-linecap="round" stroke-linejoin="round"/>
<path d="M 110.0 34.0 L 116.9 36.1 L 123.7 38.2 L 130.0 40.3 L 135.7 42.4 L 140.6 44.6 L 144.6 46.7 L 147.6 48.8 L 149.4 50.9 L 150.0 53.0 L 149.4 55.1 L 147.6 57.2 L 144.6 59.3 L 140.6 61.4 L 135.7 63.6 L 130.0 65.7 L 123.7 67.8 L 116.9 69.9 L 110.0 72.0 L 103.1 74.1 L 96.3 76.2 L 90.0 78.3 L 84.3 80.4 L 79.4 82.6 L 75.4 84.7 L 72.4 86.8 L 70.6 88.9 L 70.0 91.0 L 70.6 93.1 L 72.4 95.2 L 75.4 97.3 L 79.4 99.4 L 84.3 101.6 L 90.0 103.7 L 96.3 105.8 L 103.1 107.9 L 110.0 110.0 L 116.9 112.1 L 123.7 114.2 L 130.0 116.3 L 135.7 118.4 L 140.6 120.6 L 144.6 122.7 L 147.6 124.8 L 149.4 126.9 L 150.0 129.0 L 149.4 131.1 L 147.6 133.2 L 144.6 135.3 L 140.6 137.4 L 135.7 139.6 L 130.0 141.7 L 123.7 143.8 L 116.9 145.9 L 110.0 148.0 L 103.1 150.1 L 96.3 152.2 L 90.0 154.3 L 84.3 156.4 L 79.4 158.6 L 75.4 160.7 L 72.4 162.8 L 70.6 164.9 L 70.0 167.0 L 70.6 169.1 L 72.4 171.2 L 75.4 173.3 L 79.4 175.4 L 84.3 177.6 L 90.0 179.7 L 96.3 181.8 L 103.1 183.9 L 110.0 186.0" fill="none" stroke="#2c6fbb" stroke-width="8" stroke-linecap="round" stroke-linejoin="round"/>
</svg>
