<svg width="266" height="294" viewBox="0 0 266 294" xmlns="http://www.w3.org/2000/svg" shape-rendering="crispEdges" role="img" aria-label="BARTEK">
<rect x="13" y="13" width="16" height="16" fill="#54637a"/>
<rect x="13" y="27" width="16" height="16" fill="#54637a"/>
<rect x="13" y="41" width="16" height="16" fill="#54637a"/>
<rect x="13" y="237" width="16" height="16" fill="#54637a"/>
<rect x="13" y="251" width="16" height="16" fill="#54637a"/>
<rect x="13" y="265" width="16" height="16" fill="#54637a"/>
<rect x="27" y="13" width="16" height="16" fill="#54637a"/>
<rect x="27" y="265" width="16" height="16" fill="#54637a"/>
<rect x="41" y="13" width="16" height="16" fill="#54637a"/>
<rect x="41" y="139" width="16" height="16" fill="#54637a"/>
<rect x="41" y="265" width="16" height="16" fill="#54637a"/>
<rect x="55" y="139" width="16" height="16" fill="#54637a"/>
<rect x="83" y="97" width="16" height="16" fill="#54637a"/>
<rect x="83" y="111" width="16" height="16" fill="#54637a"/>
<rect x="83" y="139" width="16" height="16" fill="#54637a"/>
<rect x="83" y="153" width="16" height="16" fill="#54637a"/>
<rect x="83" y="181" width="16" height="16" fill="#54637a"/>
<rect x="83" y="195" width="16" height="16" fill="#54637a"/>
<rect x="97" y="83" width="16" height="16" fill="#54637a"/>
<rect x="97" y="97" width="16" height="16" fill="#54637a"/>
<rect x="97" y="125" width="16" height="16" fill="#54637a"/>
<rect x="97" y="139" width="16" height="16" fill="#54637a"/>
<rect x="97" y="153" width="16" height="16" fill="#54637a"/>
<rect x="97" y="167" width="16" height="16" fill="#54637a"/>
<rect x="97" y="195" width="16" height="16" fill="#54637a"/>
<rect x="97" y="209" width="16" height="16" fill="#54637a"/>
<rect x="111" y="83" width="16" height="16" fill="#54637a"/>
<rect x="111" y="111" width="16" height="16" fill="#54637a"/>
<rect x="111" y="125" width="16" height="16" fill="#54637a"/>
<rect x="111" y="167" width="16" height="16" fill="#54637a"/>
<rect x="111" y="181" width="16" height="16" fill="#54637a"/>
<rect x="111" y="209" width="16" height="16" fill="#54637a"/>
<rect x="125" y="41" width="16" height="16" fill="#54637a"/>
<rect x="125" y="55" width="16" height="16" fill="#54637a"/>
<rect x="125" y="69" width="16" height="16" fill="#54637a"/>
<rect x="125" y="83" width="16" height="16" fill="#54637a"/>
<rect x="125" y="125" width="16" height="16" fill="#54637a"/>
<rect x="125" y="167" width="16" height="16" fill="#54637a"/>
<rect x="125" y="209" width="16" height="16" fill="#54637a"/>
<rect x="125" y="223" width="16" height="16" fill="#54637a"/>
<rect x="125" y="237" width="16" height="16" fill="#54637a"/>
<rect x="139" y="83" width="16" height="16" fill="#54637a"/>
<rect x="139" y="111" width="16" height="16" fill="#54637a"/>
<rect x="139" y="125" width="16" height="16" fill="#54637a"/>
<rect x="139" y="167" width="16" height="16" fill="#54637a"/>
<rect x="139" y="181" width="16" height="16" fill="#54637a"/>
<rect x="139" y="209" width="16" height="16" fill="#54637a"/>
<rect x="153" y="83" width="16" height="16" fill="#54637a"/>
<rect x="153" y="97" width="16" height="16" fill="#54637a"/>
<rect x="153" y="125" width="16" height="16" fill="#54637a"/>
<rect x="153" y="139" width="16" height="16" fill="#54637a"/>
<rect x="153" y="153" width="16" height="16" fill="#54637a"/>
<rect x="153" y="167" width="16" height="16" fill="#54637a"/>
<rect x="153" y="195" width="16" height="16" fill="#54637a"/>
<rect x="153" y="209" width="16" height="16" fill="#54637a"/>
<rect x="167" y="97" width="16" height="16" fill="#54637a"/>
<rect x="167" y="111" width="16" height="16" fill="#54637a"/>
<rect x="167" y="139" width="16" height="16" fill="#54637a"/>
<rect x="167" y="153" width="16" height="16" fill="#54637a"/>
<rect x="167" y="181" width="16" height="16" fill="#54637a"/>
<rect x="167" y="195" width="16" height="16" fill="#54637a"/>
<rect x="195" y="139" width="16" height="16" fill="#54637a"/>
<rect x="209" y="13" width="16" height="16" fill="#54637a"/>
<rect x="209" y="139" width="16" height="16" fill="#54637a"/>
<rect x="209" y="265" width="16" height="16" fill="#54637a"/>
<rect x="223" y="13" width="16" height="16" fill="#54637a"/>
<rect x="223" y="265" width="16" height="16" fill="#54637a"/>
<rect x="237" y="13" width="16" height="16" fill="#54637a"/>
<rect x="237" y="27" width="16" height="16" fill="#54637a"/>
<rect x="237" y="41" width="16" height="16" fill="#54637a"/>
<rect x="237" y="237" width="16" height="16" fill="#54637a"/>
<rect x="237" y="251" width="16" height="16" fill="#54637a"/>
<rect x="237" y="265" width="16" height="16" fill="#54637a"/>
<rect x="126" y="70" width="14" height="14" fill="#2bd4c0"/>
<rect x="126" y="84" width="14" height="14" fill="#2c6fbb"/>
<rect x="140" y="84" width="14" height="14" fill="#2c6fbb"/>
<rect x="154" y="84" width="14" height="14" fill="#2c6fbb"/>
<rect x="98" y="84" width="14" height="14" fill="#2bd4c0"/>
<rect x="112" y="84" width="14" height="14" fill="#2bd4c0"/>
<rect x="154" y="98" width="14" height="14" fill="#2c6fbb"/>
<rect x="168" y="98" width="14" height="14" fill="#2c6fbb"/>
<rect x="84" y="98" width="14" height="14" fill="#2bd4c0"/>
<rect x="98" y="98" width="14" height="14" fill="#2bd4c0"/>
<rect x="140" y="112" width="14" height="14" fill="#2c6fbb"/>
<rect x="154" y="112" width="14" height="14" fill="#2c6fbb"/>
<rect x="168" y="112" width="14" height="14" fill="#2c6fbb"/>
<rect x="84" y="112" width="14" height="14" fill="#2bd4c0"/>
<rect x="98" y="112" width="14" height="14" fill="#2bd4c0"/>
<rect x="112" y="112" width="14" height="14" fill="#2bd4c0"/>
<rect x="98" y="126" width="14" height="14" fill="#2c6fbb"/>
<rect x="112" y="126" width="14" height="14" fill="#2c6fbb"/>
<rect x="126" y="126" width="14" height="14" fill="#2c6fbb"/>
<rect x="140" y="126" width="14" height="14" fill="#2c6fbb"/>
<rect x="154" y="126" width="14" height="14" fill="#2bd4c0"/>
<rect x="84" y="140" width="14" height="14" fill="#2c6fbb"/>
<rect x="98" y="140" width="14" height="14" fill="#2c6fbb"/>
<rect x="154" y="140" width="14" height="14" fill="#2bd4c0"/>
<rect x="168" y="140" width="14" height="14" fill="#2bd4c0"/>
<rect x="84" y="154" width="14" height="14" fill="#2c6fbb"/>
<rect x="98" y="154" width="14" height="14" fill="#2c6fbb"/>
<rect x="154" y="154" width="14" height="14" fill="#2bd4c0"/>
<rect x="168" y="154" width="14" height="14" fill="#2bd4c0"/>
<rect x="98" y="168" width="14" height="14" fill="#2c6fbb"/>
<rect x="112" y="168" width="14" height="14" fill="#2bd4c0"/>
<rect x="126" y="168" width="14" height="14" fill="#2c6fbb"/>
<rect x="140" y="168" width="14" height="14" fill="#2c6fbb"/>
<rect x="154" y="168" width="14" height="14" fill="#2bd4c0"/>
<rect x="140" y="182" width="14" height="14" fill="#2c6fbb"/>
<rect x="154" y="182" width="14" height="14" fill="#2c6fbb"/>
<rect x="168" y="182" width="14" height="14" fill="#2c6fbb"/>
<rect x="84" y="182" width="14" height="14" fill="#2bd4c0"/>
<rect x="98" y="182" width="14" height="14" fill="#2bd4c0"/>
<rect x="112" y="182" width="14" height="14" fill="#2bd4c0"/>
<rect x="154" y="196" width="14" height="14" fill="#2c6fbb"/>
<rect x="168" y="196" width="14" height="14" fill="#2c6fbb"/>
<rect x="84" y="196" width="14" height="14" fill="#2bd4c0"/>
<rect x="98" y="196" width="14" height="14" fill="#2bd4c0"/>
<rect x="126" y="210" width="14" height="14" fill="#2bd4c0"/>
<rect x="140" y="210" width="14" height="14" fill="#2c6fbb"/>
<rect x="154" y="210" width="14" height="14" fill="#2c6fbb"/>
<rect x="98" y="210" width="14" height="14" fill="#2bd4c0"/>
<rect x="112" y="210" width="14" height="14" fill="#2bd4c0"/>
<rect x="126" y="42" width="14" height="14" fill="#2bd4c0"/>
<rect x="126" y="56" width="14" height="14" fill="#2c6fbb"/>
<rect x="126" y="238" width="14" height="14" fill="#2bd4c0"/>
<rect x="126" y="224" width="14" height="14" fill="#2c6fbb"/>
<rect x="42" y="140" width="14" height="14" fill="#2bd4c0"/>
<rect x="56" y="140" width="14" height="14" fill="#2c6fbb"/>
<rect x="210" y="140" width="14" height="14" fill="#2bd4c0"/>
<rect x="196" y="140" width="14" height="14" fill="#2c6fbb"/>
<rect x="14" y="14" width="14" height="14" fill="#2bd4c0"/>
<rect x="28" y="14" width="14" height="14" fill="#2c6fbb"/>
<rect x="42" y="14" width="14" height="14" fill="#2c6fbb"/>
<rect x="14" y="28" width="14" height="14" fill="#2c6fbb"/>
<rect x="14" y="42" width="14" height="14" fill="#2c6fbb"/>
<rect x="238" y="14" width="14" height="14" fill="#2bd4c0"/>
<rect x="224" y="14" width="14" height="14" fill="#2c6fbb"/>
<rect x="210" y="14" width="14" height="14" fill="#2c6fbb"/>
<rect x="238" y="28" width="14" height="14" fill="#2c6fbb"/>
<rect x="238" y="42" width="14" height="14" fill="#2c6fbb"/>
<rect x="14" y="266" width="14" height="14" fill="#2bd4c0"/>
<rect x="28" y="266" width="14" height="14" fill="#2c6fbb"/>
<rect x="42" y="266" width="14" height="14" fill="#2c6fbb"/>
<rect x="14" y="252" width="14" height="14" fill="#2c6fbb"/>
<rect x="14" y="238" width="14" height="14" fill="#2c6fbb"/>
<rect x="238" y="266" width="14" height="14" fill="#2bd4c0"/>
<rect x="224" y="266" width="14" height="14" fill="#2c6fbb"/>
<rect x="210" y="266" width="14" height="14" fill="#2c6fbb"/>
<rect x="238" y="252" width="14" height="14" fill="#2c6fbb"/>
<rect x="238" y="238" width="14" height="14" fill="#2c6fbb"/>
</svg>
