<svg width="220" height="272" viewBox="0 0 220 272" xmlns="http://www.w3.org/2000/svg" role="img" aria-label="BARTEK LLC">
<rect x="2" y="2" width="216" height="268" rx="31" fill="#0e1c33"/>
<line x1="122.8" y1="126.1" x2="97.2" y2="126.1" stroke="#2c6fbb" stroke-width="4" opacity="0.85"/>
<line x1="139.1" y1="138.3" x2="80.9" y2="138.3" stroke="#2c6fbb" stroke-width="4" opacity="0.85"/>
<line x1="134.1" y1="150.5" x2="85.9" y2="150.5" stroke="#2c6fbb" stroke-width="4" opacity="0.85"/>
<line x1="111.5" y1="162.7" x2="108.5" y2="162.7" stroke="#2c6fbb" stroke-width="4" opacity="0.85"/>
<line x1="87.8" y1="174.8" x2="132.2" y2="174.8" stroke="#2bd4c0" stroke-width="4" opacity="0.85"/>
<line x1="80.3" y1="187.0" x2="139.7" y2="187.0" stroke="#2bd4c0" stroke-width="4" opacity="0.85"/>
<line x1="94.6" y1="199.2" x2="125.4" y2="199.2" stroke="#2bd4c0" stroke-width="4" opacity="0.85"/>
<line x1="120.1" y1="211.4" x2="99.9" y2="211.4" stroke="#2c6fbb" stroke-width="4" opacity="0.85"/>
<line x1="138.2" y1="223.6" x2="81.8" y2="223.6" stroke="#2c6fbb" stroke-width="4" opacity="0.85"/>
<line x1="135.7" y1="235.8" x2="84.3" y2="235.8" stroke="#2c6fbb" stroke-width="4" opacity="0.85"/>
<line x1="114.4" y1="248.0" x2="105.6" y2="248.0" stroke="#2c6fbb" stroke-width="4" opacity="0.85"/>
<path d="M 110.0 120.0 L 105.6 122.0 L 101.3 124.1 L 97.2 126.1 L 93.3 128.1 L 89.9 130.2 L 86.8 132.2 L 84.3 134.2 L 82.3 136.2 L 80.9 138.3 L 80.1 140.3 L 80.0 142.3 L 80.6 144.4 L 81.8 146.4 L 83.5 148.4 L 85.9 150.5 L 88.8 152.5 L 92.1 154.5 L 95.9 156.6 L 99.9 158.6 L 104.1 160.6 L 108.5 162.7 L 112.9 164.7 L 117.3 166.7 L 121.5 168.8 L 125.4 170.8 L 129.0 172.8 L 132.2 174.8 L 134.9 176.9 L 137.1 178.9 L 138.7 180.9 L 139.7 183.0 L 140.0 185.0 L 139.7 187.0 L 138.7 189.1 L 137.1 191.1 L 134.9 193.1 L 132.2 195.2 L 129.0 197.2 L 125.4 199.2 L 121.5 201.2 L 117.3 203.3 L 112.9 205.3 L 108.5 207.3 L 104.1 209.4 L 99.9 211.4 L 95.9 213.4 L 92.1 215.5 L 88.8 217.5 L 85.9 219.5 L 83.5 221.6 L 81.8 223.6 L 80.6 225.6 L 80.0 227.7 L 80.1 229.7 L 80.9 231.7 L 82.3 233.8 L 84.3 235.8 L 86.8 237.8 L 89.9 239.8 L 93.3 241.9 L 97.2 243.9 L 101.3 245.9 L 105.6 248.0 L 110.0 250.0" fill="none" stroke="#2bd4c0" stroke-width="8" stroke-linecap="round" stroke-linejoin="round"/>
<path d="M 110.0 120.0 L 114.4 122.0 L 118.7 124.1 L 122.8 126.1 L 126.7 128.1 L 130.1 130.2 L 133.2 132.2 L 135.7 134.2 L 137.7 136.2 L 139.1 138.3 L 139.9 140.3 L 140.0 142.3 L 139.4 144.4 L 138.2 146.4 L 136.5 148.4 L 134.1 150.5 L 131.2 152.5 L 127.9 154.5 L 124.1 156.6 L 120.1 158.6 L 115.9 160.6 L 111.5 162.7 L 107.1 164.7 L 102.7 166.7 L 98.5 168.8 L 94.6 170.8 L 91.0 172.8 L 87.8 174.8 L 85.1 176.9 L 82.9 178.9 L 81.3 180.9 L 80.3 183.0 L 80.0 185.0 L 80.3 187.0 L 81.3 189.1 L 82.9 191.1 L 85.1 193.1 L 87.8 195.2 L 91.0 197.2 L 94.6 199.2 L 98.5 201.2 L 102.7 203.3 L 107.1 205.3 L 111.5 207.3 L 115.9 209.4 L 120.1 211.4 L 124.1 213.4 L 127.9 215.5 L 131.2 217.5 L 134.1 219.5 L 136.5 221.6 L 138.2 223.6 L 139.4 225.6 L 140.0 227.7 L 139.9 229.7 L 139.1 231.7 L 137.7 233.8 L 135.7 235.8 L 133.2 237.8 L 130.1 239.8 L 126.7 241.9 L 122.8 243.9 L 118.7 245.9 L 114.4 248.0 L 110.0 250.0" fill="none" stroke="#2c6fbb" stroke-width="8" stroke-linecap="round" stroke-linejoin="round"/>
<line x1="100" y1="104" x2="26" y2="104" stroke="#2c6fbb" stroke-width="6" stroke-linecap="round"/><line x1="26" y1="104" x2="26" y2="116" stroke="#2c6fbb" stroke-width="6" stroke-linecap="round"/><circle cx="26" cy="104" r="5" fill="#2bd4c0"/><circle cx="26" cy="116" r="3.5" fill="#2bd4c0"/><line x1="82" y1="104" x2="82" y2="114" stroke="#2c6fbb" stroke-width="4" stroke-linecap="round"/><circle cx="82" cy="114" r="2.6" fill="#2bd4c0"/><line x1="60" y1="104" x2="60" y2="114" stroke="#2c6fbb" stroke-width="4" stroke-linecap="round"/><circle cx="60" cy="114" r="2.6" fill="#2bd4c0"/><line x1="38" y1="104" x2="38" y2="114" stroke="#2c6fbb" stroke-width="4" stroke-linecap="round"/><circle cx="38" cy="114" r="2.6" fill="#2bd4c0"/><rect x="67" y="101" width="6" height="6" fill="#2bd4c0"/><line x1="120" y1="104" x2="194" y2="104" stroke="#2c6fbb" stroke-width="6" stroke-linecap="round"/><line x1="194" y1="104" x2="194" y2="116" stroke="#2c6fbb" stroke-width="6" stroke-linecap="round"/><circle cx="194" cy="104" r="5" fill="#2bd4c0"/><circle cx="194" cy="116" r="3.5" fill="#2bd4c0"/><line x1="138" y1="104" x2="138" y2="114" stroke="#2c6fbb" stroke-width="4" stroke-linecap="round"/><circle cx="138" cy="114" r="2.6" fill="#2bd4c0"/><line x1="160" y1="104" x2="160" y2="114" stroke="#2c6fbb" stroke-width="4" stroke-linecap="round"/><circle cx="160" cy="114" r="2.6" fill="#2bd4c0"/><line x1="182" y1="104" x2="182" y2="114" stroke="#2c6fbb" stroke-width="4" stroke-linecap="round"/><circle cx="182" cy="114" r="2.6" fill="#2bd4c0"/><rect x="147" y="101" width="6" height="6" fill="#2bd4c0"/>
<path d="M 98 46 C 80 16 60 22 72 42" fill="none" stroke="#d9a326" stroke-width="7" stroke-linecap="round"/><path d="M 122 46 C 140 16 160 22 148 42" fill="none" stroke="#d9a326" stroke-width="7" stroke-linecap="round"/><circle cx="74" cy="62" r="13" fill="none" stroke="#d9a326" stroke-width="5"/><circle cx="74" cy="62" r="4.5" fill="#d9a326"/><circle cx="146" cy="62" r="13" fill="none" stroke="#d9a326" stroke-width="5"/><circle cx="146" cy="62" r="4.5" fill="#d9a326"/><rect x="86" y="44" width="48" height="48" rx="9" fill="none" stroke="#d9a326" stroke-width="6"/><line x1="94" y1="58" x2="126" y2="58" stroke="#d9a326" stroke-width="3.5"/><circle cx="100" cy="62" r="4" fill="#d9a326"/><circle cx="120" cy="62" r="4" fill="#d9a326"/><path d="M 110 60 L 110 74 M 104 74 L 116 74" stroke="#d9a326" stroke-width="4" fill="none" stroke-linecap="round"/><rect x="98" y="80" width="24" height="7" rx="1.5" fill="#d9a326"/><line x1="110" y1="92" x2="110" y2="118" stroke="#d9a326" stroke-width="6" stroke-linecap="round"/>
</svg>
